  0
SECTION
  2
HEADER
  9
$ACADVER
  1
AC1009
  9
$EXTMIN
 10
0.0
 20
0.0
 30
0.0
  9
$EXTMAX
 10
1000.0
 20
1000.0
 30
0.0
  9
$FILLMODE
 70
 0
  9
$SPLFRAME
 70
 1
  0
ENDSEC
  0
SECTION
  2
TABLES
  0
TABLE
  2
LAYER
 70
1
  0
LAYER
  2
0
 70
     0
 62
     7
  6
CONTINUOUS
  0
ENDTAB
  0
ENDSEC
  0
SECTION
  2
ENTITIES
  0
LINE
  8
0
 62
     0
 10
0.0950846
 20
131.138
 30
0.0
 11
158.21
 21
131.138
 31
0.0
  0
LINE
  8
0
 62
     0
 10
158.21
 20
131.138
 30
0.0
 11
158.21
 21
0.202572
 31
0.0
  0
LINE
  8
0
 62
     0
 10
158.21
 20
0.202572
 30
0.0
 11
0.0950846
 21
0.202572
 31
0.0
  0
LINE
  8
0
 62
     0
 10
0.0950846
 20
0.202572
 30
0.0
 11
0.0950846
 21
131.138
 31
0.0
  0
LINE
  8
0
 62
     0
 10
14.5259
 20
19.0762
 30
0.0
 11
14.5259
 21
18.0771
 31
0.0
  0
LINE
  8
0
 62
     0
 10
14.5259
 20
18.0771
 30
0.0
 11
13.7253
 21
18.0771
 31
0.0
  0
LINE
  8
0
 62
     0
 10
13.7253
 20
18.0771
 30
0.0
 11
13.7253
 21
14.9765
 31
0.0
  0
LINE
  8
0
 62
     0
 10
13.7253
 20
14.9765
 30
0.0
 11
14.5259
 21
14.9765
 31
0.0
  0
LINE
  8
0
 62
     0
 10
14.5259
 20
14.9765
 30
0.0
 11
14.5259
 21
14.3771
 31
0.0
  0
LINE
  8
0
 62
     0
 10
14.5259
 20
14.3771
 30
0.0
 11
13.0004
 21
14.3771
 31
0.0
  0
LINE
  8
0
 62
     0
 10
13.0004
 20
14.3771
 30
0.0
 11
13.0004
 21
17.6072
 31
0.0
  0
LINE
  8
0
 62
     0
 10
13.0004
 20
17.6072
 30
0.0
 11
11.2751
 21
17.6072
 31
0.0
  0
LINE
  8
0
 62
     0
 10
11.2751
 20
17.6072
 30
0.0
 11
11.2751
 21
18.5263
 31
0.0
  0
LINE
  8
0
 62
     0
 10
11.2751
 20
18.5263
 30
0.0
 11
7.97609
 21
18.5263
 31
0.0
  0
LINE
  8
0
 62
     0
 10
7.97609
 20
18.5263
 30
0.0
 11
7.97609
 21
17.6072
 31
0.0
  0
LINE
  8
0
 62
     0
 10
7.97609
 20
17.6072
 30
0.0
 11
6.2508
 21
17.6072
 31
0.0
  0
LINE
  8
0
 62
     0
 10
6.2508
 20
17.6072
 30
0.0
 11
6.2508
 21
14.3771
 31
0.0
  0
LINE
  8
0
 62
     0
 10
6.2508
 20
14.3771
 30
0.0
 11
5.42533
 21
14.3771
 31
0.0
  0
LINE
  8
0
 62
     0
 10
5.42533
 20
14.3771
 30
0.0
 11
5.42533
 21
11.5769
 31
0.0
  0
LINE
  8
0
 62
     0
 10
5.42533
 20
11.5769
 30
0.0
 11
6.2508
 21
11.5769
 31
0.0
  0
LINE
  8
0
 62
     0
 10
6.2508
 20
11.5769
 30
0.0
 11
6.2508
 21
5.30684
 31
0.0
  0
LINE
  8
0
 62
     0
 10
6.2508
 20
5.30684
 30
0.0
 11
7.97609
 21
5.30684
 31
0.0
  0
LINE
  8
0
 62
     0
 10
7.97609
 20
5.30684
 30
0.0
 11
7.97609
 21
4.32703
 31
0.0
  0
LINE
  8
0
 62
     0
 10
7.97609
 20
4.32703
 30
0.0
 11
11.2751
 21
4.32703
 31
0.0
  0
LINE
  8
0
 62
     0
 10
11.2751
 20
4.32703
 30
0.0
 11
11.2751
 21
5.30684
 31
0.0
  0
LINE
  8
0
 62
     0
 10
11.2751
 20
5.30684
 30
0.0
 11
13.0004
 21
5.30684
 31
0.0
  0
LINE
  8
0
 62
     0
 10
13.0004
 20
5.30684
 30
0.0
 11
13.0004
 21
9.77717
 31
0.0
  0
LINE
  8
0
 62
     0
 10
13.0004
 20
9.77717
 30
0.0
 11
14.5259
 21
9.77717
 31
0.0
  0
LINE
  8
0
 62
     0
 10
14.5259
 20
9.77717
 30
0.0
 11
14.5259
 21
9.17635
 31
0.0
  0
LINE
  8
0
 62
     0
 10
14.5259
 20
9.17635
 30
0.0
 11
13.7253
 21
9.17635
 31
0.0
  0
LINE
  8
0
 62
     0
 10
13.7253
 20
9.17635
 30
0.0
 11
13.7253
 21
6.07716
 31
0.0
  0
LINE
  8
0
 62
     0
 10
13.7253
 20
6.07716
 30
0.0
 11
14.5259
 21
6.07716
 31
0.0
  0
LINE
  8
0
 62
     0
 10
14.5259
 20
6.07716
 30
0.0
 11
14.5259
 21
5.07668
 31
0.0
  0
LINE
  8
0
 62
     0
 10
14.5259
 20
5.07668
 30
0.0
 11
28.5254
 21
5.07668
 31
0.0
  0
LINE
  8
0
 62
     0
 10
28.5254
 20
5.07668
 30
0.0
 11
28.5254
 21
6.07716
 31
0.0
  0
LINE
  8
0
 62
     0
 10
28.5254
 20
6.07716
 30
0.0
 11
29.326
 21
6.07716
 31
0.0
  0
LINE
  8
0
 62
     0
 10
29.326
 20
6.07716
 30
0.0
 11
29.326
 21
9.17635
 31
0.0
  0
LINE
  8
0
 62
     0
 10
29.326
 20
9.17635
 30
0.0
 11
28.5254
 21
9.17635
 31
0.0
  0
LINE
  8
0
 62
     0
 10
28.5254
 20
9.17635
 30
0.0
 11
28.5254
 21
9.77717
 31
0.0
  0
LINE
  8
0
 62
     0
 10
28.5254
 20
9.77717
 30
0.0
 11
30.0509
 21
9.77717
 31
0.0
  0
LINE
  8
0
 62
     0
 10
30.0509
 20
9.77717
 30
0.0
 11
30.0509
 21
5.30684
 31
0.0
  0
LINE
  8
0
 62
     0
 10
30.0509
 20
5.30684
 30
0.0
 11
31.7748
 21
5.30684
 31
0.0
  0
LINE
  8
0
 62
     0
 10
31.7748
 20
5.30684
 30
0.0
 11
31.7748
 21
4.32703
 31
0.0
  0
LINE
  8
0
 62
     0
 10
31.7748
 20
4.32703
 30
0.0
 11
35.0752
 21
4.32703
 31
0.0
  0
LINE
  8
0
 62
     0
 10
35.0752
 20
4.32703
 30
0.0
 11
35.0752
 21
5.30684
 31
0.0
  0
LINE
  8
0
 62
     0
 10
35.0752
 20
5.30684
 30
0.0
 11
36.8004
 21
5.30684
 31
0.0
  0
LINE
  8
0
 62
     0
 10
36.8004
 20
5.30684
 30
0.0
 11
36.8004
 21
11.5769
 31
0.0
  0
LINE
  8
0
 62
     0
 10
36.8004
 20
11.5769
 30
0.0
 11
37.6259
 21
11.5769
 31
0.0
  0
LINE
  8
0
 62
     0
 10
37.6259
 20
11.5769
 30
0.0
 11
37.6259
 21
14.3771
 31
0.0
  0
LINE
  8
0
 62
     0
 10
37.6259
 20
14.3771
 30
0.0
 11
36.8004
 21
14.3771
 31
0.0
  0
LINE
  8
0
 62
     0
 10
36.8004
 20
14.3771
 30
0.0
 11
36.8004
 21
17.6072
 31
0.0
  0
LINE
  8
0
 62
     0
 10
36.8004
 20
17.6072
 30
0.0
 11
35.0752
 21
17.6072
 31
0.0
  0
LINE
  8
0
 62
     0
 10
35.0752
 20
17.6072
 30
0.0
 11
35.0752
 21
18.5263
 31
0.0
  0
LINE
  8
0
 62
     0
 10
35.0752
 20
18.5263
 30
0.0
 11
31.7748
 21
18.5263
 31
0.0
  0
LINE
  8
0
 62
     0
 10
31.7748
 20
18.5263
 30
0.0
 11
31.7748
 21
17.6072
 31
0.0
  0
LINE
  8
0
 62
     0
 10
31.7748
 20
17.6072
 30
0.0
 11
30.0509
 21
17.6072
 31
0.0
  0
LINE
  8
0
 62
     0
 10
30.0509
 20
17.6072
 30
0.0
 11
30.0509
 21
14.3771
 31
0.0
  0
LINE
  8
0
 62
     0
 10
30.0509
 20
14.3771
 30
0.0
 11
28.5254
 21
14.3771
 31
0.0
  0
LINE
  8
0
 62
     0
 10
28.5254
 20
14.3771
 30
0.0
 11
28.5254
 21
14.9765
 31
0.0
  0
LINE
  8
0
 62
     0
 10
28.5254
 20
14.9765
 30
0.0
 11
29.326
 21
14.9765
 31
0.0
  0
LINE
  8
0
 62
     0
 10
29.326
 20
14.9765
 30
0.0
 11
29.326
 21
18.0771
 31
0.0
  0
LINE
  8
0
 62
     0
 10
29.326
 20
18.0771
 30
0.0
 11
28.5254
 21
18.0771
 31
0.0
  0
LINE
  8
0
 62
     0
 10
28.5254
 20
18.0771
 30
0.0
 11
28.5254
 21
19.0762
 31
0.0
  0
LINE
  8
0
 62
     0
 10
28.5254
 20
19.0762
 30
0.0
 11
14.5259
 21
19.0762
 31
0.0
  0
LINE
  8
0
 62
     0
 10
124.007
 20
22.4551
 30
0.0
 11
124.214
 21
21.682
 31
0.0
  0
LINE
  8
0
 62
     0
 10
124.214
 20
21.682
 30
0.0
 11
118.611
 21
20.1814
 31
0.0
  0
LINE
  8
0
 62
     0
 10
118.611
 20
20.1814
 30
0.0
 11
118.404
 21
20.9531
 31
0.0
  0
LINE
  8
0
 62
     0
 10
118.404
 20
20.9531
 30
0.0
 11
115.409
 21
20.1511
 31
0.0
  0
LINE
  8
0
 62
     0
 10
115.409
 20
20.1511
 30
0.0
 11
115.616
 21
19.378
 31
0.0
  0
LINE
  8
0
 62
     0
 10
115.616
 20
19.378
 30
0.0
 11
114.65
 21
19.1203
 31
0.0
  0
LINE
  8
0
 62
     0
 10
114.65
 20
19.1203
 30
0.0
 11
118.274
 21
5.59622
 31
0.0
  0
LINE
  8
0
 62
     0
 10
118.274
 20
5.59622
 30
0.0
 11
119.239
 21
5.85668
 31
0.0
  0
LINE
  8
0
 62
     0
 10
119.239
 20
5.85668
 30
0.0
 11
119.447
 21
5.08222
 31
0.0
  0
LINE
  8
0
 62
     0
 10
119.447
 20
5.08222
 30
0.0
 11
122.441
 21
5.88698
 31
0.0
  0
LINE
  8
0
 62
     0
 10
122.441
 20
5.88698
 30
0.0
 11
122.235
 21
6.6573
 31
0.0
  0
LINE
  8
0
 62
     0
 10
122.235
 20
6.6573
 30
0.0
 11
127.836
 21
8.15936
 31
0.0
  0
LINE
  8
0
 62
     0
 10
127.836
 20
8.15936
 30
0.0
 11
128.043
 21
7.38628
 31
0.0
  0
LINE
  8
0
 62
     0
 10
128.043
 20
7.38628
 30
0.0
 11
131.039
 21
8.18829
 31
0.0
  0
LINE
  8
0
 62
     0
 10
131.039
 20
8.18829
 30
0.0
 11
130.831
 21
8.96137
 31
0.0
  0
LINE
  8
0
 62
     0
 10
130.831
 20
8.96137
 30
0.0
 11
131.797
 21
9.22045
 31
0.0
  0
LINE
  8
0
 62
     0
 10
131.797
 20
9.22045
 30
0.0
 11
128.174
 21
22.7432
 31
0.0
  0
LINE
  8
0
 62
     0
 10
128.174
 20
22.7432
 30
0.0
 11
127.208
 21
22.4841
 31
0.0
  0
LINE
  8
0
 62
     0
 10
127.208
 20
22.4841
 30
0.0
 11
127
 21
23.2572
 31
0.0
  0
LINE
  8
0
 62
     0
 10
127
 20
23.2572
 30
0.0
 11
124.007
 21
22.4551
 31
0.0
  0
LINE
  8
0
 62
     0
 10
48.8156
 20
24.7923
 30
0.0
 11
48.8156
 21
23.7918
 31
0.0
  0
LINE
  8
0
 62
     0
 10
48.8156
 20
23.7918
 30
0.0
 11
48.0148
 21
23.7918
 31
0.0
  0
LINE
  8
0
 62
     0
 10
48.0148
 20
23.7918
 30
0.0
 11
48.0148
 21
20.6912
 31
0.0
  0
LINE
  8
0
 62
     0
 10
48.0148
 20
20.6912
 30
0.0
 11
48.8156
 21
20.6912
 31
0.0
  0
LINE
  8
0
 62
     0
 10
48.8156
 20
20.6912
 30
0.0
 11
48.8156
 21
14.8924
 31
0.0
  0
LINE
  8
0
 62
     0
 10
48.8156
 20
14.8924
 30
0.0
 11
48.0148
 21
14.8924
 31
0.0
  0
LINE
  8
0
 62
     0
 10
48.0148
 20
14.8924
 30
0.0
 11
48.0148
 21
11.7919
 31
0.0
  0
LINE
  8
0
 62
     0
 10
48.0148
 20
11.7919
 30
0.0
 11
48.8156
 21
11.7919
 31
0.0
  0
LINE
  8
0
 62
     0
 10
48.8156
 20
11.7919
 30
0.0
 11
48.8156
 21
10.7914
 31
0.0
  0
LINE
  8
0
 62
     0
 10
48.8156
 20
10.7914
 30
0.0
 11
62.8153
 21
10.7914
 31
0.0
  0
LINE
  8
0
 62
     0
 10
62.8153
 20
10.7914
 30
0.0
 11
62.8153
 21
11.7919
 31
0.0
  0
LINE
  8
0
 62
     0
 10
62.8153
 20
11.7919
 30
0.0
 11
63.6157
 21
11.7919
 31
0.0
  0
LINE
  8
0
 62
     0
 10
63.6157
 20
11.7919
 30
0.0
 11
63.6157
 21
14.8924
 31
0.0
  0
LINE
  8
0
 62
     0
 10
63.6157
 20
14.8924
 30
0.0
 11
62.8153
 21
14.8924
 31
0.0
  0
LINE
  8
0
 62
     0
 10
62.8153
 20
14.8924
 30
0.0
 11
62.8153
 21
20.6912
 31
0.0
  0
LINE
  8
0
 62
     0
 10
62.8153
 20
20.6912
 30
0.0
 11
63.6157
 21
20.6912
 31
0.0
  0
LINE
  8
0
 62
     0
 10
63.6157
 20
20.6912
 30
0.0
 11
63.6157
 21
23.7918
 31
0.0
  0
LINE
  8
0
 62
     0
 10
63.6157
 20
23.7918
 30
0.0
 11
62.8153
 21
23.7918
 31
0.0
  0
LINE
  8
0
 62
     0
 10
62.8153
 20
23.7918
 30
0.0
 11
62.8153
 21
24.7923
 31
0.0
  0
LINE
  8
0
 62
     0
 10
62.8153
 20
24.7923
 30
0.0
 11
48.8156
 21
24.7923
 31
0.0
  0
LINE
  8
0
 62
     0
 10
95.4401
 20
26.8304
 30
0.0
 11
95.4401
 21
26.0298
 31
0.0
  0
LINE
  8
0
 62
     0
 10
95.4401
 20
26.0298
 30
0.0
 11
94.4397
 21
26.0298
 31
0.0
  0
LINE
  8
0
 62
     0
 10
94.4397
 20
26.0298
 30
0.0
 11
94.4397
 21
12.0303
 31
0.0
  0
LINE
  8
0
 62
     0
 10
94.4397
 20
12.0303
 30
0.0
 11
95.4401
 21
12.0303
 31
0.0
  0
LINE
  8
0
 62
     0
 10
95.4401
 20
12.0303
 30
0.0
 11
95.4401
 21
11.2296
 31
0.0
  0
LINE
  8
0
 62
     0
 10
95.4401
 20
11.2296
 30
0.0
 11
98.5393
 21
11.2296
 31
0.0
  0
LINE
  8
0
 62
     0
 10
98.5393
 20
11.2296
 30
0.0
 11
98.5393
 21
12.0303
 31
0.0
  0
LINE
  8
0
 62
     0
 10
98.5393
 20
12.0303
 30
0.0
 11
104.341
 21
12.0303
 31
0.0
  0
LINE
  8
0
 62
     0
 10
104.341
 20
12.0303
 30
0.0
 11
104.341
 21
11.2296
 31
0.0
  0
LINE
  8
0
 62
     0
 10
104.341
 20
11.2296
 30
0.0
 11
107.44
 21
11.2296
 31
0.0
  0
LINE
  8
0
 62
     0
 10
107.44
 20
11.2296
 30
0.0
 11
107.44
 21
12.0303
 31
0.0
  0
LINE
  8
0
 62
     0
 10
107.44
 20
12.0303
 30
0.0
 11
108.439
 21
12.0303
 31
0.0
  0
LINE
  8
0
 62
     0
 10
108.439
 20
12.0303
 30
0.0
 11
108.439
 21
26.0298
 31
0.0
  0
LINE
  8
0
 62
     0
 10
108.439
 20
26.0298
 30
0.0
 11
107.44
 21
26.0298
 31
0.0
  0
LINE
  8
0
 62
     0
 10
107.44
 20
26.0298
 30
0.0
 11
107.44
 21
26.8304
 31
0.0
  0
LINE
  8
0
 62
     0
 10
107.44
 20
26.8304
 30
0.0
 11
104.341
 21
26.8304
 31
0.0
  0
LINE
  8
0
 62
     0
 10
104.341
 20
26.8304
 30
0.0
 11
104.341
 21
26.0298
 31
0.0
  0
LINE
  8
0
 62
     0
 10
104.341
 20
26.0298
 30
0.0
 11
98.5393
 21
26.0298
 31
0.0
  0
LINE
  8
0
 62
     0
 10
98.5393
 20
26.0298
 30
0.0
 11
98.5393
 21
26.8304
 31
0.0
  0
LINE
  8
0
 62
     0
 10
98.5393
 20
26.8304
 30
0.0
 11
95.4401
 21
26.8304
 31
0.0
  0
LINE
  8
0
 62
     0
 10
72.8183
 20
28.6012
 30
0.0
 11
72.8183
 21
27.6021
 31
0.0
  0
LINE
  8
0
 62
     0
 10
72.8183
 20
27.6021
 30
0.0
 11
72.0189
 21
27.6021
 31
0.0
  0
LINE
  8
0
 62
     0
 10
72.0189
 20
27.6021
 30
0.0
 11
72.0189
 21
24.5015
 31
0.0
  0
LINE
  8
0
 62
     0
 10
72.0189
 20
24.5015
 30
0.0
 11
72.8183
 21
24.5015
 31
0.0
  0
LINE
  8
0
 62
     0
 10
72.8183
 20
24.5015
 30
0.0
 11
72.8183
 21
18.7013
 31
0.0
  0
LINE
  8
0
 62
     0
 10
72.8183
 20
18.7013
 30
0.0
 11
72.0189
 21
18.7013
 31
0.0
  0
LINE
  8
0
 62
     0
 10
72.0189
 20
18.7013
 30
0.0
 11
72.0189
 21
15.6022
 31
0.0
  0
LINE
  8
0
 62
     0
 10
72.0189
 20
15.6022
 30
0.0
 11
72.8183
 21
15.6022
 31
0.0
  0
LINE
  8
0
 62
     0
 10
72.8183
 20
15.6022
 30
0.0
 11
72.8183
 21
14.6017
 31
0.0
  0
LINE
  8
0
 62
     0
 10
72.8183
 20
14.6017
 30
0.0
 11
86.8193
 21
14.6017
 31
0.0
  0
LINE
  8
0
 62
     0
 10
86.8193
 20
14.6017
 30
0.0
 11
86.8193
 21
15.6022
 31
0.0
  0
LINE
  8
0
 62
     0
 10
86.8193
 20
15.6022
 30
0.0
 11
87.6184
 21
15.6022
 31
0.0
  0
LINE
  8
0
 62
     0
 10
87.6184
 20
15.6022
 30
0.0
 11
87.6184
 21
18.7013
 31
0.0
  0
LINE
  8
0
 62
     0
 10
87.6184
 20
18.7013
 30
0.0
 11
86.8193
 21
18.7013
 31
0.0
  0
LINE
  8
0
 62
     0
 10
86.8193
 20
18.7013
 30
0.0
 11
86.8193
 21
24.5015
 31
0.0
  0
LINE
  8
0
 62
     0
 10
86.8193
 20
24.5015
 30
0.0
 11
87.6184
 21
24.5015
 31
0.0
  0
LINE
  8
0
 62
     0
 10
87.6184
 20
24.5015
 30
0.0
 11
87.6184
 21
27.6021
 31
0.0
  0
LINE
  8
0
 62
     0
 10
87.6184
 20
27.6021
 30
0.0
 11
86.8193
 21
27.6021
 31
0.0
  0
LINE
  8
0
 62
     0
 10
86.8193
 20
27.6021
 30
0.0
 11
86.8193
 21
28.6012
 31
0.0
  0
LINE
  8
0
 62
     0
 10
86.8193
 20
28.6012
 30
0.0
 11
72.8183
 21
28.6012
 31
0.0
  0
LINE
  8
0
 62
     0
 10
141.684
 20
47.6511
 30
0.0
 11
141.684
 21
46.652
 31
0.0
  0
LINE
  8
0
 62
     0
 10
141.684
 20
46.652
 30
0.0
 11
140.885
 21
46.652
 31
0.0
  0
LINE
  8
0
 62
     0
 10
140.885
 20
46.652
 30
0.0
 11
140.885
 21
43.5515
 31
0.0
  0
LINE
  8
0
 62
     0
 10
140.885
 20
43.5515
 30
0.0
 11
141.684
 21
43.5515
 31
0.0
  0
LINE
  8
0
 62
     0
 10
141.684
 20
43.5515
 30
0.0
 11
141.684
 21
37.7515
 31
0.0
  0
LINE
  8
0
 62
     0
 10
141.684
 20
37.7515
 30
0.0
 11
140.885
 21
37.7515
 31
0.0
  0
LINE
  8
0
 62
     0
 10
140.885
 20
37.7515
 30
0.0
 11
140.885
 21
34.6522
 31
0.0
  0
LINE
  8
0
 62
     0
 10
140.885
 20
34.6522
 30
0.0
 11
141.684
 21
34.6522
 31
0.0
  0
LINE
  8
0
 62
     0
 10
141.684
 20
34.6522
 30
0.0
 11
141.684
 21
33.6517
 31
0.0
  0
LINE
  8
0
 62
     0
 10
141.684
 20
33.6517
 30
0.0
 11
155.684
 21
33.6517
 31
0.0
  0
LINE
  8
0
 62
     0
 10
155.684
 20
33.6517
 30
0.0
 11
155.684
 21
34.6522
 31
0.0
  0
LINE
  8
0
 62
     0
 10
155.684
 20
34.6522
 30
0.0
 11
156.484
 21
34.6522
 31
0.0
  0
LINE
  8
0
 62
     0
 10
156.484
 20
34.6522
 30
0.0
 11
156.484
 21
37.7515
 31
0.0
  0
LINE
  8
0
 62
     0
 10
156.484
 20
37.7515
 30
0.0
 11
155.684
 21
37.7515
 31
0.0
  0
LINE
  8
0
 62
     0
 10
155.684
 20
37.7515
 30
0.0
 11
155.684
 21
43.5515
 31
0.0
  0
LINE
  8
0
 62
     0
 10
155.684
 20
43.5515
 30
0.0
 11
156.484
 21
43.5515
 31
0.0
  0
LINE
  8
0
 62
     0
 10
156.484
 20
43.5515
 30
0.0
 11
156.484
 21
46.652
 31
0.0
  0
LINE
  8
0
 62
     0
 10
156.484
 20
46.652
 30
0.0
 11
155.684
 21
46.652
 31
0.0
  0
LINE
  8
0
 62
     0
 10
155.684
 20
46.652
 30
0.0
 11
155.684
 21
47.6511
 31
0.0
  0
LINE
  8
0
 62
     0
 10
155.684
 20
47.6511
 30
0.0
 11
141.684
 21
47.6511
 31
0.0
  0
LINE
  8
0
 62
     0
 10
121.682
 20
47.6511
 30
0.0
 11
121.682
 21
46.652
 31
0.0
  0
LINE
  8
0
 62
     0
 10
121.682
 20
46.652
 30
0.0
 11
120.881
 21
46.652
 31
0.0
  0
LINE
  8
0
 62
     0
 10
120.881
 20
46.652
 30
0.0
 11
120.881
 21
43.5515
 31
0.0
  0
LINE
  8
0
 62
     0
 10
120.881
 20
43.5515
 30
0.0
 11
121.682
 21
43.5515
 31
0.0
  0
LINE
  8
0
 62
     0
 10
121.682
 20
43.5515
 30
0.0
 11
121.682
 21
37.7515
 31
0.0
  0
LINE
  8
0
 62
     0
 10
121.682
 20
37.7515
 30
0.0
 11
120.881
 21
37.7515
 31
0.0
  0
LINE
  8
0
 62
     0
 10
120.881
 20
37.7515
 30
0.0
 11
120.881
 21
34.6522
 31
0.0
  0
LINE
  8
0
 62
     0
 10
120.881
 20
34.6522
 30
0.0
 11
121.682
 21
34.6522
 31
0.0
  0
LINE
  8
0
 62
     0
 10
121.682
 20
34.6522
 30
0.0
 11
121.682
 21
33.6517
 31
0.0
  0
LINE
  8
0
 62
     0
 10
121.682
 20
33.6517
 30
0.0
 11
135.682
 21
33.6517
 31
0.0
  0
LINE
  8
0
 62
     0
 10
135.682
 20
33.6517
 30
0.0
 11
135.682
 21
34.6522
 31
0.0
  0
LINE
  8
0
 62
     0
 10
135.682
 20
34.6522
 30
0.0
 11
136.481
 21
34.6522
 31
0.0
  0
LINE
  8
0
 62
     0
 10
136.481
 20
34.6522
 30
0.0
 11
136.481
 21
37.7515
 31
0.0
  0
LINE
  8
0
 62
     0
 10
136.481
 20
37.7515
 30
0.0
 11
135.682
 21
37.7515
 31
0.0
  0
LINE
  8
0
 62
     0
 10
135.682
 20
37.7515
 30
0.0
 11
135.682
 21
43.5515
 31
0.0
  0
LINE
  8
0
 62
     0
 10
135.682
 20
43.5515
 30
0.0
 11
136.481
 21
43.5515
 31
0.0
  0
LINE
  8
0
 62
     0
 10
136.481
 20
43.5515
 30
0.0
 11
136.481
 21
46.652
 31
0.0
  0
LINE
  8
0
 62
     0
 10
136.481
 20
46.652
 30
0.0
 11
135.682
 21
46.652
 31
0.0
  0
LINE
  8
0
 62
     0
 10
135.682
 20
46.652
 30
0.0
 11
135.682
 21
47.6511
 31
0.0
  0
LINE
  8
0
 62
     0
 10
135.682
 20
47.6511
 30
0.0
 11
121.682
 21
47.6511
 31
0.0
  0
LINE
  8
0
 62
     0
 10
102.632
 20
47.6511
 30
0.0
 11
102.632
 21
46.652
 31
0.0
  0
LINE
  8
0
 62
     0
 10
102.632
 20
46.652
 30
0.0
 11
101.831
 21
46.652
 31
0.0
  0
LINE
  8
0
 62
     0
 10
101.831
 20
46.652
 30
0.0
 11
101.831
 21
43.5515
 31
0.0
  0
LINE
  8
0
 62
     0
 10
101.831
 20
43.5515
 30
0.0
 11
102.632
 21
43.5515
 31
0.0
  0
LINE
  8
0
 62
     0
 10
102.632
 20
43.5515
 30
0.0
 11
102.632
 21
37.7515
 31
0.0
  0
LINE
  8
0
 62
     0
 10
102.632
 20
37.7515
 30
0.0
 11
101.831
 21
37.7515
 31
0.0
  0
LINE
  8
0
 62
     0
 10
101.831
 20
37.7515
 30
0.0
 11
101.831
 21
34.6522
 31
0.0
  0
LINE
  8
0
 62
     0
 10
101.831
 20
34.6522
 30
0.0
 11
102.632
 21
34.6522
 31
0.0
  0
LINE
  8
0
 62
     0
 10
102.632
 20
34.6522
 30
0.0
 11
102.632
 21
33.6517
 31
0.0
  0
LINE
  8
0
 62
     0
 10
102.632
 20
33.6517
 30
0.0
 11
116.632
 21
33.6517
 31
0.0
  0
LINE
  8
0
 62
     0
 10
116.632
 20
33.6517
 30
0.0
 11
116.632
 21
34.6522
 31
0.0
  0
LINE
  8
0
 62
     0
 10
116.632
 20
34.6522
 30
0.0
 11
117.431
 21
34.6522
 31
0.0
  0
LINE
  8
0
 62
     0
 10
117.431
 20
34.6522
 30
0.0
 11
117.431
 21
37.7515
 31
0.0
  0
LINE
  8
0
 62
     0
 10
117.431
 20
37.7515
 30
0.0
 11
116.632
 21
37.7515
 31
0.0
  0
LINE
  8
0
 62
     0
 10
116.632
 20
37.7515
 30
0.0
 11
116.632
 21
43.5515
 31
0.0
  0
LINE
  8
0
 62
     0
 10
116.632
 20
43.5515
 30
0.0
 11
117.431
 21
43.5515
 31
0.0
  0
LINE
  8
0
 62
     0
 10
117.431
 20
43.5515
 30
0.0
 11
117.431
 21
46.652
 31
0.0
  0
LINE
  8
0
 62
     0
 10
117.431
 20
46.652
 30
0.0
 11
116.632
 21
46.652
 31
0.0
  0
LINE
  8
0
 62
     0
 10
116.632
 20
46.652
 30
0.0
 11
116.632
 21
47.6511
 31
0.0
  0
LINE
  8
0
 62
     0
 10
116.632
 20
47.6511
 30
0.0
 11
102.632
 21
47.6511
 31
0.0
  0
LINE
  8
0
 62
     0
 10
83.5822
 20
47.6511
 30
0.0
 11
83.5822
 21
46.652
 31
0.0
  0
LINE
  8
0
 62
     0
 10
83.5822
 20
46.652
 30
0.0
 11
82.7814
 21
46.652
 31
0.0
  0
LINE
  8
0
 62
     0
 10
82.7814
 20
46.652
 30
0.0
 11
82.7814
 21
43.5515
 31
0.0
  0
LINE
  8
0
 62
     0
 10
82.7814
 20
43.5515
 30
0.0
 11
83.5822
 21
43.5515
 31
0.0
  0
LINE
  8
0
 62
     0
 10
83.5822
 20
43.5515
 30
0.0
 11
83.5822
 21
37.7515
 31
0.0
  0
LINE
  8
0
 62
     0
 10
83.5822
 20
37.7515
 30
0.0
 11
82.7814
 21
37.7515
 31
0.0
  0
LINE
  8
0
 62
     0
 10
82.7814
 20
37.7515
 30
0.0
 11
82.7814
 21
34.6522
 31
0.0
  0
LINE
  8
0
 62
     0
 10
82.7814
 20
34.6522
 30
0.0
 11
83.5822
 21
34.6522
 31
0.0
  0
LINE
  8
0
 62
     0
 10
83.5822
 20
34.6522
 30
0.0
 11
83.5822
 21
33.6517
 31
0.0
  0
LINE
  8
0
 62
     0
 10
83.5822
 20
33.6517
 30
0.0
 11
97.5815
 21
33.6517
 31
0.0
  0
LINE
  8
0
 62
     0
 10
97.5815
 20
33.6517
 30
0.0
 11
97.5815
 21
34.6522
 31
0.0
  0
LINE
  8
0
 62
     0
 10
97.5815
 20
34.6522
 30
0.0
 11
98.3809
 21
34.6522
 31
0.0
  0
LINE
  8
0
 62
     0
 10
98.3809
 20
34.6522
 30
0.0
 11
98.3809
 21
37.7515
 31
0.0
  0
LINE
  8
0
 62
     0
 10
98.3809
 20
37.7515
 30
0.0
 11
97.5815
 21
37.7515
 31
0.0
  0
LINE
  8
0
 62
     0
 10
97.5815
 20
37.7515
 30
0.0
 11
97.5815
 21
43.5515
 31
0.0
  0
LINE
  8
0
 62
     0
 10
97.5815
 20
43.5515
 30
0.0
 11
98.3809
 21
43.5515
 31
0.0
  0
LINE
  8
0
 62
     0
 10
98.3809
 20
43.5515
 30
0.0
 11
98.3809
 21
46.652
 31
0.0
  0
LINE
  8
0
 62
     0
 10
98.3809
 20
46.652
 30
0.0
 11
97.5815
 21
46.652
 31
0.0
  0
LINE
  8
0
 62
     0
 10
97.5815
 20
46.652
 30
0.0
 11
97.5815
 21
47.6511
 31
0.0
  0
LINE
  8
0
 62
     0
 10
97.5815
 20
47.6511
 30
0.0
 11
83.5822
 21
47.6511
 31
0.0
  0
LINE
  8
0
 62
     0
 10
64.5322
 20
47.6511
 30
0.0
 11
64.5322
 21
46.652
 31
0.0
  0
LINE
  8
0
 62
     0
 10
64.5322
 20
46.652
 30
0.0
 11
63.7314
 21
46.652
 31
0.0
  0
LINE
  8
0
 62
     0
 10
63.7314
 20
46.652
 30
0.0
 11
63.7314
 21
43.5515
 31
0.0
  0
LINE
  8
0
 62
     0
 10
63.7314
 20
43.5515
 30
0.0
 11
64.5322
 21
43.5515
 31
0.0
  0
LINE
  8
0
 62
     0
 10
64.5322
 20
43.5515
 30
0.0
 11
64.5322
 21
37.7515
 31
0.0
  0
LINE
  8
0
 62
     0
 10
64.5322
 20
37.7515
 30
0.0
 11
63.7314
 21
37.7515
 31
0.0
  0
LINE
  8
0
 62
     0
 10
63.7314
 20
37.7515
 30
0.0
 11
63.7314
 21
34.6522
 31
0.0
  0
LINE
  8
0
 62
     0
 10
63.7314
 20
34.6522
 30
0.0
 11
64.5322
 21
34.6522
 31
0.0
  0
LINE
  8
0
 62
     0
 10
64.5322
 20
34.6522
 30
0.0
 11
64.5322
 21
33.6517
 31
0.0
  0
LINE
  8
0
 62
     0
 10
64.5322
 20
33.6517
 30
0.0
 11
78.5315
 21
33.6517
 31
0.0
  0
LINE
  8
0
 62
     0
 10
78.5315
 20
33.6517
 30
0.0
 11
78.5315
 21
34.6522
 31
0.0
  0
LINE
  8
0
 62
     0
 10
78.5315
 20
34.6522
 30
0.0
 11
79.3309
 21
34.6522
 31
0.0
  0
LINE
  8
0
 62
     0
 10
79.3309
 20
34.6522
 30
0.0
 11
79.3309
 21
37.7515
 31
0.0
  0
LINE
  8
0
 62
     0
 10
79.3309
 20
37.7515
 30
0.0
 11
78.5315
 21
37.7515
 31
0.0
  0
LINE
  8
0
 62
     0
 10
78.5315
 20
37.7515
 30
0.0
 11
78.5315
 21
43.5515
 31
0.0
  0
LINE
  8
0
 62
     0
 10
78.5315
 20
43.5515
 30
0.0
 11
79.3309
 21
43.5515
 31
0.0
  0
LINE
  8
0
 62
     0
 10
79.3309
 20
43.5515
 30
0.0
 11
79.3309
 21
46.652
 31
0.0
  0
LINE
  8
0
 62
     0
 10
79.3309
 20
46.652
 30
0.0
 11
78.5315
 21
46.652
 31
0.0
  0
LINE
  8
0
 62
     0
 10
78.5315
 20
46.652
 30
0.0
 11
78.5315
 21
47.6511
 31
0.0
  0
LINE
  8
0
 62
     0
 10
78.5315
 20
47.6511
 30
0.0
 11
64.5322
 21
47.6511
 31
0.0
  0
LINE
  8
0
 62
     0
 10
45.4822
 20
47.6511
 30
0.0
 11
45.4822
 21
46.652
 31
0.0
  0
LINE
  8
0
 62
     0
 10
45.4822
 20
46.652
 30
0.0
 11
44.6814
 21
46.652
 31
0.0
  0
LINE
  8
0
 62
     0
 10
44.6814
 20
46.652
 30
0.0
 11
44.6814
 21
43.5515
 31
0.0
  0
LINE
  8
0
 62
     0
 10
44.6814
 20
43.5515
 30
0.0
 11
45.4822
 21
43.5515
 31
0.0
  0
LINE
  8
0
 62
     0
 10
45.4822
 20
43.5515
 30
0.0
 11
45.4822
 21
37.7515
 31
0.0
  0
LINE
  8
0
 62
     0
 10
45.4822
 20
37.7515
 30
0.0
 11
44.6814
 21
37.7515
 31
0.0
  0
LINE
  8
0
 62
     0
 10
44.6814
 20
37.7515
 30
0.0
 11
44.6814
 21
34.6522
 31
0.0
  0
LINE
  8
0
 62
     0
 10
44.6814
 20
34.6522
 30
0.0
 11
45.4822
 21
34.6522
 31
0.0
  0
LINE
  8
0
 62
     0
 10
45.4822
 20
34.6522
 30
0.0
 11
45.4822
 21
33.6517
 31
0.0
  0
LINE
  8
0
 62
     0
 10
45.4822
 20
33.6517
 30
0.0
 11
59.4815
 21
33.6517
 31
0.0
  0
LINE
  8
0
 62
     0
 10
59.4815
 20
33.6517
 30
0.0
 11
59.4815
 21
34.6522
 31
0.0
  0
LINE
  8
0
 62
     0
 10
59.4815
 20
34.6522
 30
0.0
 11
60.2809
 21
34.6522
 31
0.0
  0
LINE
  8
0
 62
     0
 10
60.2809
 20
34.6522
 30
0.0
 11
60.2809
 21
37.7515
 31
0.0
  0
LINE
  8
0
 62
     0
 10
60.2809
 20
37.7515
 30
0.0
 11
59.4815
 21
37.7515
 31
0.0
  0
LINE
  8
0
 62
     0
 10
59.4815
 20
37.7515
 30
0.0
 11
59.4815
 21
43.5515
 31
0.0
  0
LINE
  8
0
 62
     0
 10
59.4815
 20
43.5515
 30
0.0
 11
60.2809
 21
43.5515
 31
0.0
  0
LINE
  8
0
 62
     0
 10
60.2809
 20
43.5515
 30
0.0
 11
60.2809
 21
46.652
 31
0.0
  0
LINE
  8
0
 62
     0
 10
60.2809
 20
46.652
 30
0.0
 11
59.4815
 21
46.652
 31
0.0
  0
LINE
  8
0
 62
     0
 10
59.4815
 20
46.652
 30
0.0
 11
59.4815
 21
47.6511
 31
0.0
  0
LINE
  8
0
 62
     0
 10
59.4815
 20
47.6511
 30
0.0
 11
45.4822
 21
47.6511
 31
0.0
  0
LINE
  8
0
 62
     0
 10
14.0491
 20
53.3672
 30
0.0
 11
14.0491
 21
52.3667
 31
0.0
  0
LINE
  8
0
 62
     0
 10
14.0491
 20
52.3667
 30
0.0
 11
13.2485
 21
52.3667
 31
0.0
  0
LINE
  8
0
 62
     0
 10
13.2485
 20
52.3667
 30
0.0
 11
13.2485
 21
49.2661
 31
0.0
  0
LINE
  8
0
 62
     0
 10
13.2485
 20
49.2661
 30
0.0
 11
14.0491
 21
49.2661
 31
0.0
  0
LINE
  8
0
 62
     0
 10
14.0491
 20
49.2661
 30
0.0
 11
14.0491
 21
43.4675
 31
0.0
  0
LINE
  8
0
 62
     0
 10
14.0491
 20
43.4675
 30
0.0
 11
13.2485
 21
43.4675
 31
0.0
  0
LINE
  8
0
 62
     0
 10
13.2485
 20
43.4675
 30
0.0
 11
13.2485
 21
40.367
 31
0.0
  0
LINE
  8
0
 62
     0
 10
13.2485
 20
40.367
 30
0.0
 11
14.0491
 21
40.367
 31
0.0
  0
LINE
  8
0
 62
     0
 10
14.0491
 20
40.367
 30
0.0
 11
14.0491
 21
39.3665
 31
0.0
  0
LINE
  8
0
 62
     0
 10
14.0491
 20
39.3665
 30
0.0
 11
28.05
 21
39.3665
 31
0.0
  0
LINE
  8
0
 62
     0
 10
28.05
 20
39.3665
 30
0.0
 11
28.05
 21
40.367
 31
0.0
  0
LINE
  8
0
 62
     0
 10
28.05
 20
40.367
 30
0.0
 11
28.8478
 21
40.367
 31
0.0
  0
LINE
  8
0
 62
     0
 10
28.8478
 20
40.367
 30
0.0
 11
28.8478
 21
43.4675
 31
0.0
  0
LINE
  8
0
 62
     0
 10
28.8478
 20
43.4675
 30
0.0
 11
28.05
 21
43.4675
 31
0.0
  0
LINE
  8
0
 62
     0
 10
28.05
 20
43.4675
 30
0.0
 11
28.05
 21
49.2661
 31
0.0
  0
LINE
  8
0
 62
     0
 10
28.05
 20
49.2661
 30
0.0
 11
28.8478
 21
49.2661
 31
0.0
  0
LINE
  8
0
 62
     0
 10
28.8478
 20
49.2661
 30
0.0
 11
28.8478
 21
52.3667
 31
0.0
  0
LINE
  8
0
 62
     0
 10
28.8478
 20
52.3667
 30
0.0
 11
28.05
 21
52.3667
 31
0.0
  0
LINE
  8
0
 62
     0
 10
28.05
 20
52.3667
 30
0.0
 11
28.05
 21
53.3672
 31
0.0
  0
LINE
  8
0
 62
     0
 10
28.05
 20
53.3672
 30
0.0
 11
14.0491
 21
53.3672
 31
0.0
  0
LINE
  8
0
 62
     0
 10
141.683
 20
66.7011
 30
0.0
 11
141.683
 21
65.702
 31
0.0
  0
LINE
  8
0
 62
     0
 10
141.683
 20
65.702
 30
0.0
 11
140.884
 21
65.702
 31
0.0
  0
LINE
  8
0
 62
     0
 10
140.884
 20
65.702
 30
0.0
 11
140.884
 21
62.6015
 31
0.0
  0
LINE
  8
0
 62
     0
 10
140.884
 20
62.6015
 30
0.0
 11
141.683
 21
62.6015
 31
0.0
  0
LINE
  8
0
 62
     0
 10
141.683
 20
62.6015
 30
0.0
 11
141.683
 21
56.8015
 31
0.0
  0
LINE
  8
0
 62
     0
 10
141.683
 20
56.8015
 30
0.0
 11
140.884
 21
56.8015
 31
0.0
  0
LINE
  8
0
 62
     0
 10
140.884
 20
56.8015
 30
0.0
 11
140.884
 21
53.7023
 31
0.0
  0
LINE
  8
0
 62
     0
 10
140.884
 20
53.7023
 30
0.0
 11
141.683
 21
53.7023
 31
0.0
  0
LINE
  8
0
 62
     0
 10
141.683
 20
53.7023
 30
0.0
 11
141.683
 21
52.7018
 31
0.0
  0
LINE
  8
0
 62
     0
 10
141.683
 20
52.7018
 30
0.0
 11
155.684
 21
52.7018
 31
0.0
  0
LINE
  8
0
 62
     0
 10
155.684
 20
52.7018
 30
0.0
 11
155.684
 21
53.7023
 31
0.0
  0
LINE
  8
0
 62
     0
 10
155.684
 20
53.7023
 30
0.0
 11
156.484
 21
53.7023
 31
0.0
  0
LINE
  8
0
 62
     0
 10
156.484
 20
53.7023
 30
0.0
 11
156.484
 21
56.8015
 31
0.0
  0
LINE
  8
0
 62
     0
 10
156.484
 20
56.8015
 30
0.0
 11
155.684
 21
56.8015
 31
0.0
  0
LINE
  8
0
 62
     0
 10
155.684
 20
56.8015
 30
0.0
 11
155.684
 21
62.6015
 31
0.0
  0
LINE
  8
0
 62
     0
 10
155.684
 20
62.6015
 30
0.0
 11
156.484
 21
62.6015
 31
0.0
  0
LINE
  8
0
 62
     0
 10
156.484
 20
62.6015
 30
0.0
 11
156.484
 21
65.702
 31
0.0
  0
LINE
  8
0
 62
     0
 10
156.484
 20
65.702
 30
0.0
 11
155.684
 21
65.702
 31
0.0
  0
LINE
  8
0
 62
     0
 10
155.684
 20
65.702
 30
0.0
 11
155.684
 21
66.7011
 31
0.0
  0
LINE
  8
0
 62
     0
 10
155.684
 20
66.7011
 30
0.0
 11
141.683
 21
66.7011
 31
0.0
  0
LINE
  8
0
 62
     0
 10
112.157
 20
66.7011
 30
0.0
 11
112.157
 21
65.702
 31
0.0
  0
LINE
  8
0
 62
     0
 10
112.157
 20
65.702
 30
0.0
 11
111.356
 21
65.702
 31
0.0
  0
LINE
  8
0
 62
     0
 10
111.356
 20
65.702
 30
0.0
 11
111.356
 21
62.6015
 31
0.0
  0
LINE
  8
0
 62
     0
 10
111.356
 20
62.6015
 30
0.0
 11
112.157
 21
62.6015
 31
0.0
  0
LINE
  8
0
 62
     0
 10
112.157
 20
62.6015
 30
0.0
 11
112.157
 21
56.8015
 31
0.0
  0
LINE
  8
0
 62
     0
 10
112.157
 20
56.8015
 30
0.0
 11
111.356
 21
56.8015
 31
0.0
  0
LINE
  8
0
 62
     0
 10
111.356
 20
56.8015
 30
0.0
 11
111.356
 21
53.7023
 31
0.0
  0
LINE
  8
0
 62
     0
 10
111.356
 20
53.7023
 30
0.0
 11
112.157
 21
53.7023
 31
0.0
  0
LINE
  8
0
 62
     0
 10
112.157
 20
53.7023
 30
0.0
 11
112.157
 21
52.7018
 31
0.0
  0
LINE
  8
0
 62
     0
 10
112.157
 20
52.7018
 30
0.0
 11
126.157
 21
52.7018
 31
0.0
  0
LINE
  8
0
 62
     0
 10
126.157
 20
52.7018
 30
0.0
 11
126.157
 21
53.7023
 31
0.0
  0
LINE
  8
0
 62
     0
 10
126.157
 20
53.7023
 30
0.0
 11
126.956
 21
53.7023
 31
0.0
  0
LINE
  8
0
 62
     0
 10
126.956
 20
53.7023
 30
0.0
 11
126.956
 21
56.8015
 31
0.0
  0
LINE
  8
0
 62
     0
 10
126.956
 20
56.8015
 30
0.0
 11
126.157
 21
56.8015
 31
0.0
  0
LINE
  8
0
 62
     0
 10
126.157
 20
56.8015
 30
0.0
 11
126.157
 21
62.6015
 31
0.0
  0
LINE
  8
0
 62
     0
 10
126.157
 20
62.6015
 30
0.0
 11
126.956
 21
62.6015
 31
0.0
  0
LINE
  8
0
 62
     0
 10
126.956
 20
62.6015
 30
0.0
 11
126.956
 21
65.702
 31
0.0
  0
LINE
  8
0
 62
     0
 10
126.956
 20
65.702
 30
0.0
 11
126.157
 21
65.702
 31
0.0
  0
LINE
  8
0
 62
     0
 10
126.157
 20
65.702
 30
0.0
 11
126.157
 21
66.7011
 31
0.0
  0
LINE
  8
0
 62
     0
 10
126.157
 20
66.7011
 30
0.0
 11
112.157
 21
66.7011
 31
0.0
  0
LINE
  8
0
 62
     0
 10
93.1072
 20
66.7011
 30
0.0
 11
93.1072
 21
65.702
 31
0.0
  0
LINE
  8
0
 62
     0
 10
93.1072
 20
65.702
 30
0.0
 11
92.3064
 21
65.702
 31
0.0
  0
LINE
  8
0
 62
     0
 10
92.3064
 20
65.702
 30
0.0
 11
92.3064
 21
62.6015
 31
0.0
  0
LINE
  8
0
 62
     0
 10
92.3064
 20
62.6015
 30
0.0
 11
93.1072
 21
62.6015
 31
0.0
  0
LINE
  8
0
 62
     0
 10
93.1072
 20
62.6015
 30
0.0
 11
93.1072
 21
56.8015
 31
0.0
  0
LINE
  8
0
 62
     0
 10
93.1072
 20
56.8015
 30
0.0
 11
92.3064
 21
56.8015
 31
0.0
  0
LINE
  8
0
 62
     0
 10
92.3064
 20
56.8015
 30
0.0
 11
92.3064
 21
53.7023
 31
0.0
  0
LINE
  8
0
 62
     0
 10
92.3064
 20
53.7023
 30
0.0
 11
93.1072
 21
53.7023
 31
0.0
  0
LINE
  8
0
 62
     0
 10
93.1072
 20
53.7023
 30
0.0
 11
93.1072
 21
52.7018
 31
0.0
  0
LINE
  8
0
 62
     0
 10
93.1072
 20
52.7018
 30
0.0
 11
107.107
 21
52.7018
 31
0.0
  0
LINE
  8
0
 62
     0
 10
107.107
 20
52.7018
 30
0.0
 11
107.107
 21
53.7023
 31
0.0
  0
LINE
  8
0
 62
     0
 10
107.107
 20
53.7023
 30
0.0
 11
107.906
 21
53.7023
 31
0.0
  0
LINE
  8
0
 62
     0
 10
107.906
 20
53.7023
 30
0.0
 11
107.906
 21
56.8015
 31
0.0
  0
LINE
  8
0
 62
     0
 10
107.906
 20
56.8015
 30
0.0
 11
107.107
 21
56.8015
 31
0.0
  0
LINE
  8
0
 62
     0
 10
107.107
 20
56.8015
 30
0.0
 11
107.107
 21
62.6015
 31
0.0
  0
LINE
  8
0
 62
     0
 10
107.107
 20
62.6015
 30
0.0
 11
107.906
 21
62.6015
 31
0.0
  0
LINE
  8
0
 62
     0
 10
107.906
 20
62.6015
 30
0.0
 11
107.906
 21
65.702
 31
0.0
  0
LINE
  8
0
 62
     0
 10
107.906
 20
65.702
 30
0.0
 11
107.107
 21
65.702
 31
0.0
  0
LINE
  8
0
 62
     0
 10
107.107
 20
65.702
 30
0.0
 11
107.107
 21
66.7011
 31
0.0
  0
LINE
  8
0
 62
     0
 10
107.107
 20
66.7011
 30
0.0
 11
93.1072
 21
66.7011
 31
0.0
  0
LINE
  8
0
 62
     0
 10
74.0572
 20
66.7011
 30
0.0
 11
74.0572
 21
65.702
 31
0.0
  0
LINE
  8
0
 62
     0
 10
74.0572
 20
65.702
 30
0.0
 11
73.2564
 21
65.702
 31
0.0
  0
LINE
  8
0
 62
     0
 10
73.2564
 20
65.702
 30
0.0
 11
73.2564
 21
62.6015
 31
0.0
  0
LINE
  8
0
 62
     0
 10
73.2564
 20
62.6015
 30
0.0
 11
74.0572
 21
62.6015
 31
0.0
  0
LINE
  8
0
 62
     0
 10
74.0572
 20
62.6015
 30
0.0
 11
74.0572
 21
56.8015
 31
0.0
  0
LINE
  8
0
 62
     0
 10
74.0572
 20
56.8015
 30
0.0
 11
73.2564
 21
56.8015
 31
0.0
  0
LINE
  8
0
 62
     0
 10
73.2564
 20
56.8015
 30
0.0
 11
73.2564
 21
53.7023
 31
0.0
  0
LINE
  8
0
 62
     0
 10
73.2564
 20
53.7023
 30
0.0
 11
74.0572
 21
53.7023
 31
0.0
  0
LINE
  8
0
 62
     0
 10
74.0572
 20
53.7023
 30
0.0
 11
74.0572
 21
52.7018
 31
0.0
  0
LINE
  8
0
 62
     0
 10
74.0572
 20
52.7018
 30
0.0
 11
88.0565
 21
52.7018
 31
0.0
  0
LINE
  8
0
 62
     0
 10
88.0565
 20
52.7018
 30
0.0
 11
88.0565
 21
53.7023
 31
0.0
  0
LINE
  8
0
 62
     0
 10
88.0565
 20
53.7023
 30
0.0
 11
88.8559
 21
53.7023
 31
0.0
  0
LINE
  8
0
 62
     0
 10
88.8559
 20
53.7023
 30
0.0
 11
88.8559
 21
56.8015
 31
0.0
  0
LINE
  8
0
 62
     0
 10
88.8559
 20
56.8015
 30
0.0
 11
88.0565
 21
56.8015
 31
0.0
  0
LINE
  8
0
 62
     0
 10
88.0565
 20
56.8015
 30
0.0
 11
88.0565
 21
62.6015
 31
0.0
  0
LINE
  8
0
 62
     0
 10
88.0565
 20
62.6015
 30
0.0
 11
88.8559
 21
62.6015
 31
0.0
  0
LINE
  8
0
 62
     0
 10
88.8559
 20
62.6015
 30
0.0
 11
88.8559
 21
65.702
 31
0.0
  0
LINE
  8
0
 62
     0
 10
88.8559
 20
65.702
 30
0.0
 11
88.0565
 21
65.702
 31
0.0
  0
LINE
  8
0
 62
     0
 10
88.0565
 20
65.702
 30
0.0
 11
88.0565
 21
66.7011
 31
0.0
  0
LINE
  8
0
 62
     0
 10
88.0565
 20
66.7011
 30
0.0
 11
74.0572
 21
66.7011
 31
0.0
  0
LINE
  8
0
 62
     0
 10
55.0072
 20
66.7011
 30
0.0
 11
55.0072
 21
65.702
 31
0.0
  0
LINE
  8
0
 62
     0
 10
55.0072
 20
65.702
 30
0.0
 11
54.2064
 21
65.702
 31
0.0
  0
LINE
  8
0
 62
     0
 10
54.2064
 20
65.702
 30
0.0
 11
54.2064
 21
62.6015
 31
0.0
  0
LINE
  8
0
 62
     0
 10
54.2064
 20
62.6015
 30
0.0
 11
55.0072
 21
62.6015
 31
0.0
  0
LINE
  8
0
 62
     0
 10
55.0072
 20
62.6015
 30
0.0
 11
55.0072
 21
56.8015
 31
0.0
  0
LINE
  8
0
 62
     0
 10
55.0072
 20
56.8015
 30
0.0
 11
54.2064
 21
56.8015
 31
0.0
  0
LINE
  8
0
 62
     0
 10
54.2064
 20
56.8015
 30
0.0
 11
54.2064
 21
53.7023
 31
0.0
  0
LINE
  8
0
 62
     0
 10
54.2064
 20
53.7023
 30
0.0
 11
55.0072
 21
53.7023
 31
0.0
  0
LINE
  8
0
 62
     0
 10
55.0072
 20
53.7023
 30
0.0
 11
55.0072
 21
52.7018
 31
0.0
  0
LINE
  8
0
 62
     0
 10
55.0072
 20
52.7018
 30
0.0
 11
69.0065
 21
52.7018
 31
0.0
  0
LINE
  8
0
 62
     0
 10
69.0065
 20
52.7018
 30
0.0
 11
69.0065
 21
53.7023
 31
0.0
  0
LINE
  8
0
 62
     0
 10
69.0065
 20
53.7023
 30
0.0
 11
69.8059
 21
53.7023
 31
0.0
  0
LINE
  8
0
 62
     0
 10
69.8059
 20
53.7023
 30
0.0
 11
69.8059
 21
56.8015
 31
0.0
  0
LINE
  8
0
 62
     0
 10
69.8059
 20
56.8015
 30
0.0
 11
69.0065
 21
56.8015
 31
0.0
  0
LINE
  8
0
 62
     0
 10
69.0065
 20
56.8015
 30
0.0
 11
69.0065
 21
62.6015
 31
0.0
  0
LINE
  8
0
 62
     0
 10
69.0065
 20
62.6015
 30
0.0
 11
69.8059
 21
62.6015
 31
0.0
  0
LINE
  8
0
 62
     0
 10
69.8059
 20
62.6015
 30
0.0
 11
69.8059
 21
65.702
 31
0.0
  0
LINE
  8
0
 62
     0
 10
69.8059
 20
65.702
 30
0.0
 11
69.0065
 21
65.702
 31
0.0
  0
LINE
  8
0
 62
     0
 10
69.0065
 20
65.702
 30
0.0
 11
69.0065
 21
66.7011
 31
0.0
  0
LINE
  8
0
 62
     0
 10
69.0065
 20
66.7011
 30
0.0
 11
55.0072
 21
66.7011
 31
0.0
  0
LINE
  8
0
 62
     0
 10
35.9572
 20
66.7011
 30
0.0
 11
35.9572
 21
65.702
 31
0.0
  0
LINE
  8
0
 62
     0
 10
35.9572
 20
65.702
 30
0.0
 11
35.1565
 21
65.702
 31
0.0
  0
LINE
  8
0
 62
     0
 10
35.1565
 20
65.702
 30
0.0
 11
35.1565
 21
62.6015
 31
0.0
  0
LINE
  8
0
 62
     0
 10
35.1565
 20
62.6015
 30
0.0
 11
35.9572
 21
62.6015
 31
0.0
  0
LINE
  8
0
 62
     0
 10
35.9572
 20
62.6015
 30
0.0
 11
35.9572
 21
56.8015
 31
0.0
  0
LINE
  8
0
 62
     0
 10
35.9572
 20
56.8015
 30
0.0
 11
35.1565
 21
56.8015
 31
0.0
  0
LINE
  8
0
 62
     0
 10
35.1565
 20
56.8015
 30
0.0
 11
35.1565
 21
53.7023
 31
0.0
  0
LINE
  8
0
 62
     0
 10
35.1565
 20
53.7023
 30
0.0
 11
35.9572
 21
53.7023
 31
0.0
  0
LINE
  8
0
 62
     0
 10
35.9572
 20
53.7023
 30
0.0
 11
35.9572
 21
52.7018
 31
0.0
  0
LINE
  8
0
 62
     0
 10
35.9572
 20
52.7018
 30
0.0
 11
49.9565
 21
52.7018
 31
0.0
  0
LINE
  8
0
 62
     0
 10
49.9565
 20
52.7018
 30
0.0
 11
49.9565
 21
53.7023
 31
0.0
  0
LINE
  8
0
 62
     0
 10
49.9565
 20
53.7023
 30
0.0
 11
50.7559
 21
53.7023
 31
0.0
  0
LINE
  8
0
 62
     0
 10
50.7559
 20
53.7023
 30
0.0
 11
50.7559
 21
56.8015
 31
0.0
  0
LINE
  8
0
 62
     0
 10
50.7559
 20
56.8015
 30
0.0
 11
49.9565
 21
56.8015
 31
0.0
  0
LINE
  8
0
 62
     0
 10
49.9565
 20
56.8015
 30
0.0
 11
49.9565
 21
62.6015
 31
0.0
  0
LINE
  8
0
 62
     0
 10
49.9565
 20
62.6015
 30
0.0
 11
50.7559
 21
62.6015
 31
0.0
  0
LINE
  8
0
 62
     0
 10
50.7559
 20
62.6015
 30
0.0
 11
50.7559
 21
65.702
 31
0.0
  0
LINE
  8
0
 62
     0
 10
50.7559
 20
65.702
 30
0.0
 11
49.9565
 21
65.702
 31
0.0
  0
LINE
  8
0
 62
     0
 10
49.9565
 20
65.702
 30
0.0
 11
49.9565
 21
66.7011
 31
0.0
  0
LINE
  8
0
 62
     0
 10
49.9565
 20
66.7011
 30
0.0
 11
35.9572
 21
66.7011
 31
0.0
  0
LINE
  8
0
 62
     0
 10
107.395
 20
85.7511
 30
0.0
 11
107.395
 21
84.752
 31
0.0
  0
LINE
  8
0
 62
     0
 10
107.395
 20
84.752
 30
0.0
 11
106.594
 21
84.752
 31
0.0
  0
LINE
  8
0
 62
     0
 10
106.594
 20
84.752
 30
0.0
 11
106.594
 21
81.6515
 31
0.0
  0
LINE
  8
0
 62
     0
 10
106.594
 20
81.6515
 30
0.0
 11
107.395
 21
81.6515
 31
0.0
  0
LINE
  8
0
 62
     0
 10
107.395
 20
81.6515
 30
0.0
 11
107.395
 21
75.8515
 31
0.0
  0
LINE
  8
0
 62
     0
 10
107.395
 20
75.8515
 30
0.0
 11
106.594
 21
75.8515
 31
0.0
  0
LINE
  8
0
 62
     0
 10
106.594
 20
75.8515
 30
0.0
 11
106.594
 21
72.7523
 31
0.0
  0
LINE
  8
0
 62
     0
 10
106.594
 20
72.7523
 30
0.0
 11
107.395
 21
72.7523
 31
0.0
  0
LINE
  8
0
 62
     0
 10
107.395
 20
72.7523
 30
0.0
 11
107.395
 21
71.7518
 31
0.0
  0
LINE
  8
0
 62
     0
 10
107.395
 20
71.7518
 30
0.0
 11
121.394
 21
71.7518
 31
0.0
  0
LINE
  8
0
 62
     0
 10
121.394
 20
71.7518
 30
0.0
 11
121.394
 21
72.7523
 31
0.0
  0
LINE
  8
0
 62
     0
 10
121.394
 20
72.7523
 30
0.0
 11
122.195
 21
72.7523
 31
0.0
  0
LINE
  8
0
 62
     0
 10
122.195
 20
72.7523
 30
0.0
 11
122.195
 21
75.8515
 31
0.0
  0
LINE
  8
0
 62
     0
 10
122.195
 20
75.8515
 30
0.0
 11
121.394
 21
75.8515
 31
0.0
  0
LINE
  8
0
 62
     0
 10
121.394
 20
75.8515
 30
0.0
 11
121.394
 21
81.6515
 31
0.0
  0
LINE
  8
0
 62
     0
 10
121.394
 20
81.6515
 30
0.0
 11
122.195
 21
81.6515
 31
0.0
  0
LINE
  8
0
 62
     0
 10
122.195
 20
81.6515
 30
0.0
 11
122.195
 21
84.752
 31
0.0
  0
LINE
  8
0
 62
     0
 10
122.195
 20
84.752
 30
0.0
 11
121.394
 21
84.752
 31
0.0
  0
LINE
  8
0
 62
     0
 10
121.394
 20
84.752
 30
0.0
 11
121.394
 21
85.7511
 31
0.0
  0
LINE
  8
0
 62
     0
 10
121.394
 20
85.7511
 30
0.0
 11
107.395
 21
85.7511
 31
0.0
  0
LINE
  8
0
 62
     0
 10
88.3447
 20
85.7511
 30
0.0
 11
88.3447
 21
84.752
 31
0.0
  0
LINE
  8
0
 62
     0
 10
88.3447
 20
84.752
 30
0.0
 11
87.5439
 21
84.752
 31
0.0
  0
LINE
  8
0
 62
     0
 10
87.5439
 20
84.752
 30
0.0
 11
87.5439
 21
81.6515
 31
0.0
  0
LINE
  8
0
 62
     0
 10
87.5439
 20
81.6515
 30
0.0
 11
88.3447
 21
81.6515
 31
0.0
  0
LINE
  8
0
 62
     0
 10
88.3447
 20
81.6515
 30
0.0
 11
88.3447
 21
75.8515
 31
0.0
  0
LINE
  8
0
 62
     0
 10
88.3447
 20
75.8515
 30
0.0
 11
87.5439
 21
75.8515
 31
0.0
  0
LINE
  8
0
 62
     0
 10
87.5439
 20
75.8515
 30
0.0
 11
87.5439
 21
72.7523
 31
0.0
  0
LINE
  8
0
 62
     0
 10
87.5439
 20
72.7523
 30
0.0
 11
88.3447
 21
72.7523
 31
0.0
  0
LINE
  8
0
 62
     0
 10
88.3447
 20
72.7523
 30
0.0
 11
88.3447
 21
71.7518
 31
0.0
  0
LINE
  8
0
 62
     0
 10
88.3447
 20
71.7518
 30
0.0
 11
102.344
 21
71.7518
 31
0.0
  0
LINE
  8
0
 62
     0
 10
102.344
 20
71.7518
 30
0.0
 11
102.344
 21
72.7523
 31
0.0
  0
LINE
  8
0
 62
     0
 10
102.344
 20
72.7523
 30
0.0
 11
103.145
 21
72.7523
 31
0.0
  0
LINE
  8
0
 62
     0
 10
103.145
 20
72.7523
 30
0.0
 11
103.145
 21
75.8515
 31
0.0
  0
LINE
  8
0
 62
     0
 10
103.145
 20
75.8515
 30
0.0
 11
102.344
 21
75.8515
 31
0.0
  0
LINE
  8
0
 62
     0
 10
102.344
 20
75.8515
 30
0.0
 11
102.344
 21
81.6515
 31
0.0
  0
LINE
  8
0
 62
     0
 10
102.344
 20
81.6515
 30
0.0
 11
103.145
 21
81.6515
 31
0.0
  0
LINE
  8
0
 62
     0
 10
103.145
 20
81.6515
 30
0.0
 11
103.145
 21
84.752
 31
0.0
  0
LINE
  8
0
 62
     0
 10
103.145
 20
84.752
 30
0.0
 11
102.344
 21
84.752
 31
0.0
  0
LINE
  8
0
 62
     0
 10
102.344
 20
84.752
 30
0.0
 11
102.344
 21
85.7511
 31
0.0
  0
LINE
  8
0
 62
     0
 10
102.344
 20
85.7511
 30
0.0
 11
88.3447
 21
85.7511
 31
0.0
  0
LINE
  8
0
 62
     0
 10
69.2947
 20
85.7511
 30
0.0
 11
69.2947
 21
84.752
 31
0.0
  0
LINE
  8
0
 62
     0
 10
69.2947
 20
84.752
 30
0.0
 11
68.4939
 21
84.752
 31
0.0
  0
LINE
  8
0
 62
     0
 10
68.4939
 20
84.752
 30
0.0
 11
68.4939
 21
81.6515
 31
0.0
  0
LINE
  8
0
 62
     0
 10
68.4939
 20
81.6515
 30
0.0
 11
69.2947
 21
81.6515
 31
0.0
  0
LINE
  8
0
 62
     0
 10
69.2947
 20
81.6515
 30
0.0
 11
69.2947
 21
75.8515
 31
0.0
  0
LINE
  8
0
 62
     0
 10
69.2947
 20
75.8515
 30
0.0
 11
68.4939
 21
75.8515
 31
0.0
  0
LINE
  8
0
 62
     0
 10
68.4939
 20
75.8515
 30
0.0
 11
68.4939
 21
72.7523
 31
0.0
  0
LINE
  8
0
 62
     0
 10
68.4939
 20
72.7523
 30
0.0
 11
69.2947
 21
72.7523
 31
0.0
  0
LINE
  8
0
 62
     0
 10
69.2947
 20
72.7523
 30
0.0
 11
69.2947
 21
71.7518
 31
0.0
  0
LINE
  8
0
 62
     0
 10
69.2947
 20
71.7518
 30
0.0
 11
83.294
 21
71.7518
 31
0.0
  0
LINE
  8
0
 62
     0
 10
83.294
 20
71.7518
 30
0.0
 11
83.294
 21
72.7523
 31
0.0
  0
LINE
  8
0
 62
     0
 10
83.294
 20
72.7523
 30
0.0
 11
84.0948
 21
72.7523
 31
0.0
  0
LINE
  8
0
 62
     0
 10
84.0948
 20
72.7523
 30
0.0
 11
84.0948
 21
75.8515
 31
0.0
  0
LINE
  8
0
 62
     0
 10
84.0948
 20
75.8515
 30
0.0
 11
83.294
 21
75.8515
 31
0.0
  0
LINE
  8
0
 62
     0
 10
83.294
 20
75.8515
 30
0.0
 11
83.294
 21
81.6515
 31
0.0
  0
LINE
  8
0
 62
     0
 10
83.294
 20
81.6515
 30
0.0
 11
84.0948
 21
81.6515
 31
0.0
  0
LINE
  8
0
 62
     0
 10
84.0948
 20
81.6515
 30
0.0
 11
84.0948
 21
84.752
 31
0.0
  0
LINE
  8
0
 62
     0
 10
84.0948
 20
84.752
 30
0.0
 11
83.294
 21
84.752
 31
0.0
  0
LINE
  8
0
 62
     0
 10
83.294
 20
84.752
 30
0.0
 11
83.294
 21
85.7511
 31
0.0
  0
LINE
  8
0
 62
     0
 10
83.294
 20
85.7511
 30
0.0
 11
69.2947
 21
85.7511
 31
0.0
  0
LINE
  8
0
 62
     0
 10
50.2447
 20
85.7511
 30
0.0
 11
50.2447
 21
84.752
 31
0.0
  0
LINE
  8
0
 62
     0
 10
50.2447
 20
84.752
 30
0.0
 11
49.4439
 21
84.752
 31
0.0
  0
LINE
  8
0
 62
     0
 10
49.4439
 20
84.752
 30
0.0
 11
49.4439
 21
81.6515
 31
0.0
  0
LINE
  8
0
 62
     0
 10
49.4439
 20
81.6515
 30
0.0
 11
50.2447
 21
81.6515
 31
0.0
  0
LINE
  8
0
 62
     0
 10
50.2447
 20
81.6515
 30
0.0
 11
50.2447
 21
75.8515
 31
0.0
  0
LINE
  8
0
 62
     0
 10
50.2447
 20
75.8515
 30
0.0
 11
49.4439
 21
75.8515
 31
0.0
  0
LINE
  8
0
 62
     0
 10
49.4439
 20
75.8515
 30
0.0
 11
49.4439
 21
72.7523
 31
0.0
  0
LINE
  8
0
 62
     0
 10
49.4439
 20
72.7523
 30
0.0
 11
50.2447
 21
72.7523
 31
0.0
  0
LINE
  8
0
 62
     0
 10
50.2447
 20
72.7523
 30
0.0
 11
50.2447
 21
71.7518
 31
0.0
  0
LINE
  8
0
 62
     0
 10
50.2447
 20
71.7518
 30
0.0
 11
64.244
 21
71.7518
 31
0.0
  0
LINE
  8
0
 62
     0
 10
64.244
 20
71.7518
 30
0.0
 11
64.244
 21
72.7523
 31
0.0
  0
LINE
  8
0
 62
     0
 10
64.244
 20
72.7523
 30
0.0
 11
65.0448
 21
72.7523
 31
0.0
  0
LINE
  8
0
 62
     0
 10
65.0448
 20
72.7523
 30
0.0
 11
65.0448
 21
75.8515
 31
0.0
  0
LINE
  8
0
 62
     0
 10
65.0448
 20
75.8515
 30
0.0
 11
64.244
 21
75.8515
 31
0.0
  0
LINE
  8
0
 62
     0
 10
64.244
 20
75.8515
 30
0.0
 11
64.244
 21
81.6515
 31
0.0
  0
LINE
  8
0
 62
     0
 10
64.244
 20
81.6515
 30
0.0
 11
65.0448
 21
81.6515
 31
0.0
  0
LINE
  8
0
 62
     0
 10
65.0448
 20
81.6515
 30
0.0
 11
65.0448
 21
84.752
 31
0.0
  0
LINE
  8
0
 62
     0
 10
65.0448
 20
84.752
 30
0.0
 11
64.244
 21
84.752
 31
0.0
  0
LINE
  8
0
 62
     0
 10
64.244
 20
84.752
 30
0.0
 11
64.244
 21
85.7511
 31
0.0
  0
LINE
  8
0
 62
     0
 10
64.244
 20
85.7511
 30
0.0
 11
50.2447
 21
85.7511
 31
0.0
  0
LINE
  8
0
 62
     0
 10
31.1947
 20
85.7511
 30
0.0
 11
31.1947
 21
84.752
 31
0.0
  0
LINE
  8
0
 62
     0
 10
31.1947
 20
84.752
 30
0.0
 11
30.394
 21
84.752
 31
0.0
  0
LINE
  8
0
 62
     0
 10
30.394
 20
84.752
 30
0.0
 11
30.394
 21
81.6515
 31
0.0
  0
LINE
  8
0
 62
     0
 10
30.394
 20
81.6515
 30
0.0
 11
31.1947
 21
81.6515
 31
0.0
  0
LINE
  8
0
 62
     0
 10
31.1947
 20
81.6515
 30
0.0
 11
31.1947
 21
75.8515
 31
0.0
  0
LINE
  8
0
 62
     0
 10
31.1947
 20
75.8515
 30
0.0
 11
30.394
 21
75.8515
 31
0.0
  0
LINE
  8
0
 62
     0
 10
30.394
 20
75.8515
 30
0.0
 11
30.394
 21
72.7523
 31
0.0
  0
LINE
  8
0
 62
     0
 10
30.394
 20
72.7523
 30
0.0
 11
31.1947
 21
72.7523
 31
0.0
  0
LINE
  8
0
 62
     0
 10
31.1947
 20
72.7523
 30
0.0
 11
31.1947
 21
71.7518
 31
0.0
  0
LINE
  8
0
 62
     0
 10
31.1947
 20
71.7518
 30
0.0
 11
45.194
 21
71.7518
 31
0.0
  0
LINE
  8
0
 62
     0
 10
45.194
 20
71.7518
 30
0.0
 11
45.194
 21
72.7523
 31
0.0
  0
LINE
  8
0
 62
     0
 10
45.194
 20
72.7523
 30
0.0
 11
45.9948
 21
72.7523
 31
0.0
  0
LINE
  8
0
 62
     0
 10
45.9948
 20
72.7523
 30
0.0
 11
45.9948
 21
75.8515
 31
0.0
  0
LINE
  8
0
 62
     0
 10
45.9948
 20
75.8515
 30
0.0
 11
45.194
 21
75.8515
 31
0.0
  0
LINE
  8
0
 62
     0
 10
45.194
 20
75.8515
 30
0.0
 11
45.194
 21
81.6515
 31
0.0
  0
LINE
  8
0
 62
     0
 10
45.194
 20
81.6515
 30
0.0
 11
45.9948
 21
81.6515
 31
0.0
  0
LINE
  8
0
 62
     0
 10
45.9948
 20
81.6515
 30
0.0
 11
45.9948
 21
84.752
 31
0.0
  0
LINE
  8
0
 62
     0
 10
45.9948
 20
84.752
 30
0.0
 11
45.194
 21
84.752
 31
0.0
  0
LINE
  8
0
 62
     0
 10
45.194
 20
84.752
 30
0.0
 11
45.194
 21
85.7511
 31
0.0
  0
LINE
  8
0
 62
     0
 10
45.194
 20
85.7511
 30
0.0
 11
31.1947
 21
85.7511
 31
0.0
  0
LINE
  8
0
 62
     0
 10
116.918
 20
104.801
 30
0.0
 11
116.918
 21
103.802
 31
0.0
  0
LINE
  8
0
 62
     0
 10
116.918
 20
103.802
 30
0.0
 11
116.119
 21
103.802
 31
0.0
  0
LINE
  8
0
 62
     0
 10
116.119
 20
103.802
 30
0.0
 11
116.119
 21
100.701
 31
0.0
  0
LINE
  8
0
 62
     0
 10
116.119
 20
100.701
 30
0.0
 11
116.918
 21
100.701
 31
0.0
  0
LINE
  8
0
 62
     0
 10
116.918
 20
100.701
 30
0.0
 11
116.918
 21
94.9015
 31
0.0
  0
LINE
  8
0
 62
     0
 10
116.918
 20
94.9015
 30
0.0
 11
116.119
 21
94.9015
 31
0.0
  0
LINE
  8
0
 62
     0
 10
116.119
 20
94.9015
 30
0.0
 11
116.119
 21
91.8023
 31
0.0
  0
LINE
  8
0
 62
     0
 10
116.119
 20
91.8023
 30
0.0
 11
116.918
 21
91.8023
 31
0.0
  0
LINE
  8
0
 62
     0
 10
116.918
 20
91.8023
 30
0.0
 11
116.918
 21
90.8018
 31
0.0
  0
LINE
  8
0
 62
     0
 10
116.918
 20
90.8018
 30
0.0
 11
130.919
 21
90.8018
 31
0.0
  0
LINE
  8
0
 62
     0
 10
130.919
 20
90.8018
 30
0.0
 11
130.919
 21
91.8023
 31
0.0
  0
LINE
  8
0
 62
     0
 10
130.919
 20
91.8023
 30
0.0
 11
131.72
 21
91.8023
 31
0.0
  0
LINE
  8
0
 62
     0
 10
131.72
 20
91.8023
 30
0.0
 11
131.72
 21
94.9015
 31
0.0
  0
LINE
  8
0
 62
     0
 10
131.72
 20
94.9015
 30
0.0
 11
130.919
 21
94.9015
 31
0.0
  0
LINE
  8
0
 62
     0
 10
130.919
 20
94.9015
 30
0.0
 11
130.919
 21
100.701
 31
0.0
  0
LINE
  8
0
 62
     0
 10
130.919
 20
100.701
 30
0.0
 11
131.72
 21
100.701
 31
0.0
  0
LINE
  8
0
 62
     0
 10
131.72
 20
100.701
 30
0.0
 11
131.72
 21
103.802
 31
0.0
  0
LINE
  8
0
 62
     0
 10
131.72
 20
103.802
 30
0.0
 11
130.919
 21
103.802
 31
0.0
  0
LINE
  8
0
 62
     0
 10
130.919
 20
103.802
 30
0.0
 11
130.919
 21
104.801
 31
0.0
  0
LINE
  8
0
 62
     0
 10
130.919
 20
104.801
 30
0.0
 11
116.918
 21
104.801
 31
0.0
  0
LINE
  8
0
 62
     0
 10
97.8683
 20
104.801
 30
0.0
 11
97.8683
 21
103.802
 31
0.0
  0
LINE
  8
0
 62
     0
 10
97.8683
 20
103.802
 30
0.0
 11
97.0689
 21
103.802
 31
0.0
  0
LINE
  8
0
 62
     0
 10
97.0689
 20
103.802
 30
0.0
 11
97.0689
 21
100.701
 31
0.0
  0
LINE
  8
0
 62
     0
 10
97.0689
 20
100.701
 30
0.0
 11
97.8683
 21
100.701
 31
0.0
  0
LINE
  8
0
 62
     0
 10
97.8683
 20
100.701
 30
0.0
 11
97.8683
 21
94.9015
 31
0.0
  0
LINE
  8
0
 62
     0
 10
97.8683
 20
94.9015
 30
0.0
 11
97.0689
 21
94.9015
 31
0.0
  0
LINE
  8
0
 62
     0
 10
97.0689
 20
94.9015
 30
0.0
 11
97.0689
 21
91.8023
 31
0.0
  0
LINE
  8
0
 62
     0
 10
97.0689
 20
91.8023
 30
0.0
 11
97.8683
 21
91.8023
 31
0.0
  0
LINE
  8
0
 62
     0
 10
97.8683
 20
91.8023
 30
0.0
 11
97.8683
 21
90.8018
 31
0.0
  0
LINE
  8
0
 62
     0
 10
97.8683
 20
90.8018
 30
0.0
 11
111.869
 21
90.8018
 31
0.0
  0
LINE
  8
0
 62
     0
 10
111.869
 20
90.8018
 30
0.0
 11
111.869
 21
91.8023
 31
0.0
  0
LINE
  8
0
 62
     0
 10
111.869
 20
91.8023
 30
0.0
 11
112.668
 21
91.8023
 31
0.0
  0
LINE
  8
0
 62
     0
 10
112.668
 20
91.8023
 30
0.0
 11
112.668
 21
94.9015
 31
0.0
  0
LINE
  8
0
 62
     0
 10
112.668
 20
94.9015
 30
0.0
 11
111.869
 21
94.9015
 31
0.0
  0
LINE
  8
0
 62
     0
 10
111.869
 20
94.9015
 30
0.0
 11
111.869
 21
100.701
 31
0.0
  0
LINE
  8
0
 62
     0
 10
111.869
 20
100.701
 30
0.0
 11
112.668
 21
100.701
 31
0.0
  0
LINE
  8
0
 62
     0
 10
112.668
 20
100.701
 30
0.0
 11
112.668
 21
103.802
 31
0.0
  0
LINE
  8
0
 62
     0
 10
112.668
 20
103.802
 30
0.0
 11
111.869
 21
103.802
 31
0.0
  0
LINE
  8
0
 62
     0
 10
111.869
 20
103.802
 30
0.0
 11
111.869
 21
104.801
 31
0.0
  0
LINE
  8
0
 62
     0
 10
111.869
 20
104.801
 30
0.0
 11
97.8683
 21
104.801
 31
0.0
  0
LINE
  8
0
 62
     0
 10
78.8197
 20
104.801
 30
0.0
 11
78.8197
 21
103.802
 31
0.0
  0
LINE
  8
0
 62
     0
 10
78.8197
 20
103.802
 30
0.0
 11
78.0189
 21
103.802
 31
0.0
  0
LINE
  8
0
 62
     0
 10
78.0189
 20
103.802
 30
0.0
 11
78.0189
 21
100.701
 31
0.0
  0
LINE
  8
0
 62
     0
 10
78.0189
 20
100.701
 30
0.0
 11
78.8197
 21
100.701
 31
0.0
  0
LINE
  8
0
 62
     0
 10
78.8197
 20
100.701
 30
0.0
 11
78.8197
 21
94.9015
 31
0.0
  0
LINE
  8
0
 62
     0
 10
78.8197
 20
94.9015
 30
0.0
 11
78.0189
 21
94.9015
 31
0.0
  0
LINE
  8
0
 62
     0
 10
78.0189
 20
94.9015
 30
0.0
 11
78.0189
 21
91.8023
 31
0.0
  0
LINE
  8
0
 62
     0
 10
78.0189
 20
91.8023
 30
0.0
 11
78.8197
 21
91.8023
 31
0.0
  0
LINE
  8
0
 62
     0
 10
78.8197
 20
91.8023
 30
0.0
 11
78.8197
 21
90.8018
 31
0.0
  0
LINE
  8
0
 62
     0
 10
78.8197
 20
90.8018
 30
0.0
 11
92.819
 21
90.8018
 31
0.0
  0
LINE
  8
0
 62
     0
 10
92.819
 20
90.8018
 30
0.0
 11
92.819
 21
91.8023
 31
0.0
  0
LINE
  8
0
 62
     0
 10
92.819
 20
91.8023
 30
0.0
 11
93.6184
 21
91.8023
 31
0.0
  0
LINE
  8
0
 62
     0
 10
93.6184
 20
91.8023
 30
0.0
 11
93.6184
 21
94.9015
 31
0.0
  0
LINE
  8
0
 62
     0
 10
93.6184
 20
94.9015
 30
0.0
 11
92.819
 21
94.9015
 31
0.0
  0
LINE
  8
0
 62
     0
 10
92.819
 20
94.9015
 30
0.0
 11
92.819
 21
100.701
 31
0.0
  0
LINE
  8
0
 62
     0
 10
92.819
 20
100.701
 30
0.0
 11
93.6184
 21
100.701
 31
0.0
  0
LINE
  8
0
 62
     0
 10
93.6184
 20
100.701
 30
0.0
 11
93.6184
 21
103.802
 31
0.0
  0
LINE
  8
0
 62
     0
 10
93.6184
 20
103.802
 30
0.0
 11
92.819
 21
103.802
 31
0.0
  0
LINE
  8
0
 62
     0
 10
92.819
 20
103.802
 30
0.0
 11
92.819
 21
104.801
 31
0.0
  0
LINE
  8
0
 62
     0
 10
92.819
 20
104.801
 30
0.0
 11
78.8197
 21
104.801
 31
0.0
  0
LINE
  8
0
 62
     0
 10
59.7697
 20
104.801
 30
0.0
 11
59.7697
 21
103.802
 31
0.0
  0
LINE
  8
0
 62
     0
 10
59.7697
 20
103.802
 30
0.0
 11
58.9689
 21
103.802
 31
0.0
  0
LINE
  8
0
 62
     0
 10
58.9689
 20
103.802
 30
0.0
 11
58.9689
 21
100.701
 31
0.0
  0
LINE
  8
0
 62
     0
 10
58.9689
 20
100.701
 30
0.0
 11
59.7697
 21
100.701
 31
0.0
  0
LINE
  8
0
 62
     0
 10
59.7697
 20
100.701
 30
0.0
 11
59.7697
 21
94.9015
 31
0.0
  0
LINE
  8
0
 62
     0
 10
59.7697
 20
94.9015
 30
0.0
 11
58.9689
 21
94.9015
 31
0.0
  0
LINE
  8
0
 62
     0
 10
58.9689
 20
94.9015
 30
0.0
 11
58.9689
 21
91.8023
 31
0.0
  0
LINE
  8
0
 62
     0
 10
58.9689
 20
91.8023
 30
0.0
 11
59.7697
 21
91.8023
 31
0.0
  0
LINE
  8
0
 62
     0
 10
59.7697
 20
91.8023
 30
0.0
 11
59.7697
 21
90.8018
 31
0.0
  0
LINE
  8
0
 62
     0
 10
59.7697
 20
90.8018
 30
0.0
 11
73.769
 21
90.8018
 31
0.0
  0
LINE
  8
0
 62
     0
 10
73.769
 20
90.8018
 30
0.0
 11
73.769
 21
91.8023
 31
0.0
  0
LINE
  8
0
 62
     0
 10
73.769
 20
91.8023
 30
0.0
 11
74.5698
 21
91.8023
 31
0.0
  0
LINE
  8
0
 62
     0
 10
74.5698
 20
91.8023
 30
0.0
 11
74.5698
 21
94.9015
 31
0.0
  0
LINE
  8
0
 62
     0
 10
74.5698
 20
94.9015
 30
0.0
 11
73.769
 21
94.9015
 31
0.0
  0
LINE
  8
0
 62
     0
 10
73.769
 20
94.9015
 30
0.0
 11
73.769
 21
100.701
 31
0.0
  0
LINE
  8
0
 62
     0
 10
73.769
 20
100.701
 30
0.0
 11
74.5698
 21
100.701
 31
0.0
  0
LINE
  8
0
 62
     0
 10
74.5698
 20
100.701
 30
0.0
 11
74.5698
 21
103.802
 31
0.0
  0
LINE
  8
0
 62
     0
 10
74.5698
 20
103.802
 30
0.0
 11
73.769
 21
103.802
 31
0.0
  0
LINE
  8
0
 62
     0
 10
73.769
 20
103.802
 30
0.0
 11
73.769
 21
104.801
 31
0.0
  0
LINE
  8
0
 62
     0
 10
73.769
 20
104.801
 30
0.0
 11
59.7697
 21
104.801
 31
0.0
  0
LINE
  8
0
 62
     0
 10
40.7197
 20
104.801
 30
0.0
 11
40.7197
 21
103.802
 31
0.0
  0
LINE
  8
0
 62
     0
 10
40.7197
 20
103.802
 30
0.0
 11
39.9189
 21
103.802
 31
0.0
  0
LINE
  8
0
 62
     0
 10
39.9189
 20
103.802
 30
0.0
 11
39.9189
 21
100.701
 31
0.0
  0
LINE
  8
0
 62
     0
 10
39.9189
 20
100.701
 30
0.0
 11
40.7197
 21
100.701
 31
0.0
  0
LINE
  8
0
 62
     0
 10
40.7197
 20
100.701
 30
0.0
 11
40.7197
 21
94.9015
 31
0.0
  0
LINE
  8
0
 62
     0
 10
40.7197
 20
94.9015
 30
0.0
 11
39.9189
 21
94.9015
 31
0.0
  0
LINE
  8
0
 62
     0
 10
39.9189
 20
94.9015
 30
0.0
 11
39.9189
 21
91.8023
 31
0.0
  0
LINE
  8
0
 62
     0
 10
39.9189
 20
91.8023
 30
0.0
 11
40.7197
 21
91.8023
 31
0.0
  0
LINE
  8
0
 62
     0
 10
40.7197
 20
91.8023
 30
0.0
 11
40.7197
 21
90.8018
 31
0.0
  0
LINE
  8
0
 62
     0
 10
40.7197
 20
90.8018
 30
0.0
 11
54.719
 21
90.8018
 31
0.0
  0
LINE
  8
0
 62
     0
 10
54.719
 20
90.8018
 30
0.0
 11
54.719
 21
91.8023
 31
0.0
  0
LINE
  8
0
 62
     0
 10
54.719
 20
91.8023
 30
0.0
 11
55.5198
 21
91.8023
 31
0.0
  0
LINE
  8
0
 62
     0
 10
55.5198
 20
91.8023
 30
0.0
 11
55.5198
 21
94.9015
 31
0.0
  0
LINE
  8
0
 62
     0
 10
55.5198
 20
94.9015
 30
0.0
 11
54.719
 21
94.9015
 31
0.0
  0
LINE
  8
0
 62
     0
 10
54.719
 20
94.9015
 30
0.0
 11
54.719
 21
100.701
 31
0.0
  0
LINE
  8
0
 62
     0
 10
54.719
 20
100.701
 30
0.0
 11
55.5198
 21
100.701
 31
0.0
  0
LINE
  8
0
 62
     0
 10
55.5198
 20
100.701
 30
0.0
 11
55.5198
 21
103.802
 31
0.0
  0
LINE
  8
0
 62
     0
 10
55.5198
 20
103.802
 30
0.0
 11
54.719
 21
103.802
 31
0.0
  0
LINE
  8
0
 62
     0
 10
54.719
 20
103.802
 30
0.0
 11
54.719
 21
104.801
 31
0.0
  0
LINE
  8
0
 62
     0
 10
54.719
 20
104.801
 30
0.0
 11
40.7197
 21
104.801
 31
0.0
  0
LINE
  8
0
 62
     0
 10
21.6697
 20
104.801
 30
0.0
 11
21.6697
 21
103.802
 31
0.0
  0
LINE
  8
0
 62
     0
 10
21.6697
 20
103.802
 30
0.0
 11
20.869
 21
103.802
 31
0.0
  0
LINE
  8
0
 62
     0
 10
20.869
 20
103.802
 30
0.0
 11
20.869
 21
100.701
 31
0.0
  0
LINE
  8
0
 62
     0
 10
20.869
 20
100.701
 30
0.0
 11
21.6697
 21
100.701
 31
0.0
  0
LINE
  8
0
 62
     0
 10
21.6697
 20
100.701
 30
0.0
 11
21.6697
 21
94.9015
 31
0.0
  0
LINE
  8
0
 62
     0
 10
21.6697
 20
94.9015
 30
0.0
 11
20.869
 21
94.9015
 31
0.0
  0
LINE
  8
0
 62
     0
 10
20.869
 20
94.9015
 30
0.0
 11
20.869
 21
91.8023
 31
0.0
  0
LINE
  8
0
 62
     0
 10
20.869
 20
91.8023
 30
0.0
 11
21.6697
 21
91.8023
 31
0.0
  0
LINE
  8
0
 62
     0
 10
21.6697
 20
91.8023
 30
0.0
 11
21.6697
 21
90.8018
 31
0.0
  0
LINE
  8
0
 62
     0
 10
21.6697
 20
90.8018
 30
0.0
 11
35.669
 21
90.8018
 31
0.0
  0
LINE
  8
0
 62
     0
 10
35.669
 20
90.8018
 30
0.0
 11
35.669
 21
91.8023
 31
0.0
  0
LINE
  8
0
 62
     0
 10
35.669
 20
91.8023
 30
0.0
 11
36.4698
 21
91.8023
 31
0.0
  0
LINE
  8
0
 62
     0
 10
36.4698
 20
91.8023
 30
0.0
 11
36.4698
 21
94.9015
 31
0.0
  0
LINE
  8
0
 62
     0
 10
36.4698
 20
94.9015
 30
0.0
 11
35.669
 21
94.9015
 31
0.0
  0
LINE
  8
0
 62
     0
 10
35.669
 20
94.9015
 30
0.0
 11
35.669
 21
100.701
 31
0.0
  0
LINE
  8
0
 62
     0
 10
35.669
 20
100.701
 30
0.0
 11
36.4698
 21
100.701
 31
0.0
  0
LINE
  8
0
 62
     0
 10
36.4698
 20
100.701
 30
0.0
 11
36.4698
 21
103.802
 31
0.0
  0
LINE
  8
0
 62
     0
 10
36.4698
 20
103.802
 30
0.0
 11
35.669
 21
103.802
 31
0.0
  0
LINE
  8
0
 62
     0
 10
35.669
 20
103.802
 30
0.0
 11
35.669
 21
104.801
 31
0.0
  0
LINE
  8
0
 62
     0
 10
35.669
 20
104.801
 30
0.0
 11
21.6697
 21
104.801
 31
0.0
  0
LINE
  8
0
 62
     0
 10
2.61965
 20
104.801
 30
0.0
 11
2.61965
 21
103.802
 31
0.0
  0
LINE
  8
0
 62
     0
 10
2.61965
 20
103.802
 30
0.0
 11
1.81901
 21
103.802
 31
0.0
  0
LINE
  8
0
 62
     0
 10
1.81901
 20
103.802
 30
0.0
 11
1.81901
 21
100.701
 31
0.0
  0
LINE
  8
0
 62
     0
 10
1.81901
 20
100.701
 30
0.0
 11
2.61965
 21
100.701
 31
0.0
  0
LINE
  8
0
 62
     0
 10
2.61965
 20
100.701
 30
0.0
 11
2.61965
 21
94.9015
 31
0.0
  0
LINE
  8
0
 62
     0
 10
2.61965
 20
94.9015
 30
0.0
 11
1.81901
 21
94.9015
 31
0.0
  0
LINE
  8
0
 62
     0
 10
1.81901
 20
94.9015
 30
0.0
 11
1.81901
 21
91.8023
 31
0.0
  0
LINE
  8
0
 62
     0
 10
1.81901
 20
91.8023
 30
0.0
 11
2.61965
 21
91.8023
 31
0.0
  0
LINE
  8
0
 62
     0
 10
2.61965
 20
91.8023
 30
0.0
 11
2.61965
 21
90.8018
 31
0.0
  0
LINE
  8
0
 62
     0
 10
2.61965
 20
90.8018
 30
0.0
 11
16.6192
 21
90.8018
 31
0.0
  0
LINE
  8
0
 62
     0
 10
16.6192
 20
90.8018
 30
0.0
 11
16.6192
 21
91.8023
 31
0.0
  0
LINE
  8
0
 62
     0
 10
16.6192
 20
91.8023
 30
0.0
 11
17.4198
 21
91.8023
 31
0.0
  0
LINE
  8
0
 62
     0
 10
17.4198
 20
91.8023
 30
0.0
 11
17.4198
 21
94.9015
 31
0.0
  0
LINE
  8
0
 62
     0
 10
17.4198
 20
94.9015
 30
0.0
 11
16.6192
 21
94.9015
 31
0.0
  0
LINE
  8
0
 62
     0
 10
16.6192
 20
94.9015
 30
0.0
 11
16.6192
 21
100.701
 31
0.0
  0
LINE
  8
0
 62
     0
 10
16.6192
 20
100.701
 30
0.0
 11
17.4198
 21
100.701
 31
0.0
  0
LINE
  8
0
 62
     0
 10
17.4198
 20
100.701
 30
0.0
 11
17.4198
 21
103.802
 31
0.0
  0
LINE
  8
0
 62
     0
 10
17.4198
 20
103.802
 30
0.0
 11
16.6192
 21
103.802
 31
0.0
  0
LINE
  8
0
 62
     0
 10
16.6192
 20
103.802
 30
0.0
 11
16.6192
 21
104.801
 31
0.0
  0
LINE
  8
0
 62
     0
 10
16.6192
 20
104.801
 30
0.0
 11
2.61965
 21
104.801
 31
0.0
  0
LINE
  8
0
 62
     0
 10
126.445
 20
128.614
 30
0.0
 11
126.445
 21
127.613
 31
0.0
  0
LINE
  8
0
 62
     0
 10
126.445
 20
127.613
 30
0.0
 11
125.644
 21
127.613
 31
0.0
  0
LINE
  8
0
 62
     0
 10
125.644
 20
127.613
 30
0.0
 11
125.644
 21
124.514
 31
0.0
  0
LINE
  8
0
 62
     0
 10
125.644
 20
124.514
 30
0.0
 11
126.445
 21
124.514
 31
0.0
  0
LINE
  8
0
 62
     0
 10
126.445
 20
124.514
 30
0.0
 11
126.445
 21
118.714
 31
0.0
  0
LINE
  8
0
 62
     0
 10
126.445
 20
118.714
 30
0.0
 11
125.644
 21
118.714
 31
0.0
  0
LINE
  8
0
 62
     0
 10
125.644
 20
118.714
 30
0.0
 11
125.644
 21
115.613
 31
0.0
  0
LINE
  8
0
 62
     0
 10
125.644
 20
115.613
 30
0.0
 11
126.445
 21
115.613
 31
0.0
  0
LINE
  8
0
 62
     0
 10
126.445
 20
115.613
 30
0.0
 11
126.445
 21
114.614
 31
0.0
  0
LINE
  8
0
 62
     0
 10
126.445
 20
114.614
 30
0.0
 11
140.444
 21
114.614
 31
0.0
  0
LINE
  8
0
 62
     0
 10
140.444
 20
114.614
 30
0.0
 11
140.444
 21
115.613
 31
0.0
  0
LINE
  8
0
 62
     0
 10
140.444
 20
115.613
 30
0.0
 11
141.245
 21
115.613
 31
0.0
  0
LINE
  8
0
 62
     0
 10
141.245
 20
115.613
 30
0.0
 11
141.245
 21
118.714
 31
0.0
  0
LINE
  8
0
 62
     0
 10
141.245
 20
118.714
 30
0.0
 11
140.444
 21
118.714
 31
0.0
  0
LINE
  8
0
 62
     0
 10
140.444
 20
118.714
 30
0.0
 11
140.444
 21
124.514
 31
0.0
  0
LINE
  8
0
 62
     0
 10
140.444
 20
124.514
 30
0.0
 11
141.245
 21
124.514
 31
0.0
  0
LINE
  8
0
 62
     0
 10
141.245
 20
124.514
 30
0.0
 11
141.245
 21
127.613
 31
0.0
  0
LINE
  8
0
 62
     0
 10
141.245
 20
127.613
 30
0.0
 11
140.444
 21
127.613
 31
0.0
  0
LINE
  8
0
 62
     0
 10
140.444
 20
127.613
 30
0.0
 11
140.444
 21
128.614
 31
0.0
  0
LINE
  8
0
 62
     0
 10
140.444
 20
128.614
 30
0.0
 11
126.445
 21
128.614
 31
0.0
  0
LINE
  8
0
 62
     0
 10
83.5822
 20
128.614
 30
0.0
 11
83.5822
 21
127.613
 31
0.0
  0
LINE
  8
0
 62
     0
 10
83.5822
 20
127.613
 30
0.0
 11
82.7814
 21
127.613
 31
0.0
  0
LINE
  8
0
 62
     0
 10
82.7814
 20
127.613
 30
0.0
 11
82.7814
 21
124.514
 31
0.0
  0
LINE
  8
0
 62
     0
 10
82.7814
 20
124.514
 30
0.0
 11
83.5822
 21
124.514
 31
0.0
  0
LINE
  8
0
 62
     0
 10
83.5822
 20
124.514
 30
0.0
 11
83.5822
 21
118.714
 31
0.0
  0
LINE
  8
0
 62
     0
 10
83.5822
 20
118.714
 30
0.0
 11
82.7814
 21
118.714
 31
0.0
  0
LINE
  8
0
 62
     0
 10
82.7814
 20
118.714
 30
0.0
 11
82.7814
 21
115.613
 31
0.0
  0
LINE
  8
0
 62
     0
 10
82.7814
 20
115.613
 30
0.0
 11
83.5822
 21
115.613
 31
0.0
  0
LINE
  8
0
 62
     0
 10
83.5822
 20
115.613
 30
0.0
 11
83.5822
 21
114.614
 31
0.0
  0
LINE
  8
0
 62
     0
 10
83.5822
 20
114.614
 30
0.0
 11
97.5815
 21
114.614
 31
0.0
  0
LINE
  8
0
 62
     0
 10
97.5815
 20
114.614
 30
0.0
 11
97.5815
 21
115.613
 31
0.0
  0
LINE
  8
0
 62
     0
 10
97.5815
 20
115.613
 30
0.0
 11
98.3809
 21
115.613
 31
0.0
  0
LINE
  8
0
 62
     0
 10
98.3809
 20
115.613
 30
0.0
 11
98.3809
 21
118.714
 31
0.0
  0
LINE
  8
0
 62
     0
 10
98.3809
 20
118.714
 30
0.0
 11
97.5815
 21
118.714
 31
0.0
  0
LINE
  8
0
 62
     0
 10
97.5815
 20
118.714
 30
0.0
 11
97.5815
 21
124.514
 31
0.0
  0
LINE
  8
0
 62
     0
 10
97.5815
 20
124.514
 30
0.0
 11
98.3809
 21
124.514
 31
0.0
  0
LINE
  8
0
 62
     0
 10
98.3809
 20
124.514
 30
0.0
 11
98.3809
 21
127.613
 31
0.0
  0
LINE
  8
0
 62
     0
 10
98.3809
 20
127.613
 30
0.0
 11
97.5815
 21
127.613
 31
0.0
  0
LINE
  8
0
 62
     0
 10
97.5815
 20
127.613
 30
0.0
 11
97.5815
 21
128.614
 31
0.0
  0
LINE
  8
0
 62
     0
 10
97.5815
 20
128.614
 30
0.0
 11
83.5822
 21
128.614
 31
0.0
  0
LINE
  8
0
 62
     0
 10
64.5322
 20
128.614
 30
0.0
 11
64.5322
 21
127.613
 31
0.0
  0
LINE
  8
0
 62
     0
 10
64.5322
 20
127.613
 30
0.0
 11
63.7314
 21
127.613
 31
0.0
  0
LINE
  8
0
 62
     0
 10
63.7314
 20
127.613
 30
0.0
 11
63.7314
 21
124.514
 31
0.0
  0
LINE
  8
0
 62
     0
 10
63.7314
 20
124.514
 30
0.0
 11
64.5322
 21
124.514
 31
0.0
  0
LINE
  8
0
 62
     0
 10
64.5322
 20
124.514
 30
0.0
 11
64.5322
 21
118.714
 31
0.0
  0
LINE
  8
0
 62
     0
 10
64.5322
 20
118.714
 30
0.0
 11
63.7314
 21
118.714
 31
0.0
  0
LINE
  8
0
 62
     0
 10
63.7314
 20
118.714
 30
0.0
 11
63.7314
 21
115.613
 31
0.0
  0
LINE
  8
0
 62
     0
 10
63.7314
 20
115.613
 30
0.0
 11
64.5322
 21
115.613
 31
0.0
  0
LINE
  8
0
 62
     0
 10
64.5322
 20
115.613
 30
0.0
 11
64.5322
 21
114.614
 31
0.0
  0
LINE
  8
0
 62
     0
 10
64.5322
 20
114.614
 30
0.0
 11
78.5315
 21
114.614
 31
0.0
  0
LINE
  8
0
 62
     0
 10
78.5315
 20
114.614
 30
0.0
 11
78.5315
 21
115.613
 31
0.0
  0
LINE
  8
0
 62
     0
 10
78.5315
 20
115.613
 30
0.0
 11
79.3309
 21
115.613
 31
0.0
  0
LINE
  8
0
 62
     0
 10
79.3309
 20
115.613
 30
0.0
 11
79.3309
 21
118.714
 31
0.0
  0
LINE
  8
0
 62
     0
 10
79.3309
 20
118.714
 30
0.0
 11
78.5315
 21
118.714
 31
0.0
  0
LINE
  8
0
 62
     0
 10
78.5315
 20
118.714
 30
0.0
 11
78.5315
 21
124.514
 31
0.0
  0
LINE
  8
0
 62
     0
 10
78.5315
 20
124.514
 30
0.0
 11
79.3309
 21
124.514
 31
0.0
  0
LINE
  8
0
 62
     0
 10
79.3309
 20
124.514
 30
0.0
 11
79.3309
 21
127.613
 31
0.0
  0
LINE
  8
0
 62
     0
 10
79.3309
 20
127.613
 30
0.0
 11
78.5315
 21
127.613
 31
0.0
  0
LINE
  8
0
 62
     0
 10
78.5315
 20
127.613
 30
0.0
 11
78.5315
 21
128.614
 31
0.0
  0
LINE
  8
0
 62
     0
 10
78.5315
 20
128.614
 30
0.0
 11
64.5322
 21
128.614
 31
0.0
  0
LINE
  8
0
 62
     0
 10
45.4822
 20
128.614
 30
0.0
 11
45.4822
 21
127.613
 31
0.0
  0
LINE
  8
0
 62
     0
 10
45.4822
 20
127.613
 30
0.0
 11
44.6814
 21
127.613
 31
0.0
  0
LINE
  8
0
 62
     0
 10
44.6814
 20
127.613
 30
0.0
 11
44.6814
 21
124.514
 31
0.0
  0
LINE
  8
0
 62
     0
 10
44.6814
 20
124.514
 30
0.0
 11
45.4822
 21
124.514
 31
0.0
  0
LINE
  8
0
 62
     0
 10
45.4822
 20
124.514
 30
0.0
 11
45.4822
 21
118.714
 31
0.0
  0
LINE
  8
0
 62
     0
 10
45.4822
 20
118.714
 30
0.0
 11
44.6814
 21
118.714
 31
0.0
  0
LINE
  8
0
 62
     0
 10
44.6814
 20
118.714
 30
0.0
 11
44.6814
 21
115.613
 31
0.0
  0
LINE
  8
0
 62
     0
 10
44.6814
 20
115.613
 30
0.0
 11
45.4822
 21
115.613
 31
0.0
  0
LINE
  8
0
 62
     0
 10
45.4822
 20
115.613
 30
0.0
 11
45.4822
 21
114.614
 31
0.0
  0
LINE
  8
0
 62
     0
 10
45.4822
 20
114.614
 30
0.0
 11
59.4815
 21
114.614
 31
0.0
  0
LINE
  8
0
 62
     0
 10
59.4815
 20
114.614
 30
0.0
 11
59.4815
 21
115.613
 31
0.0
  0
LINE
  8
0
 62
     0
 10
59.4815
 20
115.613
 30
0.0
 11
60.2809
 21
115.613
 31
0.0
  0
LINE
  8
0
 62
     0
 10
60.2809
 20
115.613
 30
0.0
 11
60.2809
 21
118.714
 31
0.0
  0
LINE
  8
0
 62
     0
 10
60.2809
 20
118.714
 30
0.0
 11
59.4815
 21
118.714
 31
0.0
  0
LINE
  8
0
 62
     0
 10
59.4815
 20
118.714
 30
0.0
 11
59.4815
 21
124.514
 31
0.0
  0
LINE
  8
0
 62
     0
 10
59.4815
 20
124.514
 30
0.0
 11
60.2809
 21
124.514
 31
0.0
  0
LINE
  8
0
 62
     0
 10
60.2809
 20
124.514
 30
0.0
 11
60.2809
 21
127.613
 31
0.0
  0
LINE
  8
0
 62
     0
 10
60.2809
 20
127.613
 30
0.0
 11
59.4815
 21
127.613
 31
0.0
  0
LINE
  8
0
 62
     0
 10
59.4815
 20
127.613
 30
0.0
 11
59.4815
 21
128.614
 31
0.0
  0
LINE
  8
0
 62
     0
 10
59.4815
 20
128.614
 30
0.0
 11
45.4822
 21
128.614
 31
0.0
  0
LINE
  8
0
 62
     0
 10
19.7638
 20
128.614
 30
0.0
 11
19.7638
 21
127.613
 31
0.0
  0
LINE
  8
0
 62
     0
 10
19.7638
 20
127.613
 30
0.0
 11
18.9646
 21
127.613
 31
0.0
  0
LINE
  8
0
 62
     0
 10
18.9646
 20
127.613
 30
0.0
 11
18.9646
 21
124.514
 31
0.0
  0
LINE
  8
0
 62
     0
 10
18.9646
 20
124.514
 30
0.0
 11
19.7638
 21
124.514
 31
0.0
  0
LINE
  8
0
 62
     0
 10
19.7638
 20
124.514
 30
0.0
 11
19.7638
 21
118.714
 31
0.0
  0
LINE
  8
0
 62
     0
 10
19.7638
 20
118.714
 30
0.0
 11
18.9646
 21
118.714
 31
0.0
  0
LINE
  8
0
 62
     0
 10
18.9646
 20
118.714
 30
0.0
 11
18.9646
 21
115.613
 31
0.0
  0
LINE
  8
0
 62
     0
 10
18.9646
 20
115.613
 30
0.0
 11
19.7638
 21
115.613
 31
0.0
  0
LINE
  8
0
 62
     0
 10
19.7638
 20
115.613
 30
0.0
 11
19.7638
 21
114.614
 31
0.0
  0
LINE
  8
0
 62
     0
 10
19.7638
 20
114.614
 30
0.0
 11
33.7647
 21
114.614
 31
0.0
  0
LINE
  8
0
 62
     0
 10
33.7647
 20
114.614
 30
0.0
 11
33.7647
 21
115.613
 31
0.0
  0
LINE
  8
0
 62
     0
 10
33.7647
 20
115.613
 30
0.0
 11
34.564
 21
115.613
 31
0.0
  0
LINE
  8
0
 62
     0
 10
34.564
 20
115.613
 30
0.0
 11
34.564
 21
118.714
 31
0.0
  0
LINE
  8
0
 62
     0
 10
34.564
 20
118.714
 30
0.0
 11
33.7647
 21
118.714
 31
0.0
  0
LINE
  8
0
 62
     0
 10
33.7647
 20
118.714
 30
0.0
 11
33.7647
 21
124.514
 31
0.0
  0
LINE
  8
0
 62
     0
 10
33.7647
 20
124.514
 30
0.0
 11
34.564
 21
124.514
 31
0.0
  0
LINE
  8
0
 62
     0
 10
34.564
 20
124.514
 30
0.0
 11
34.564
 21
127.613
 31
0.0
  0
LINE
  8
0
 62
     0
 10
34.564
 20
127.613
 30
0.0
 11
33.7647
 21
127.613
 31
0.0
  0
LINE
  8
0
 62
     0
 10
33.7647
 20
127.613
 30
0.0
 11
33.7647
 21
128.614
 31
0.0
  0
LINE
  8
0
 62
     0
 10
33.7647
 20
128.614
 30
0.0
 11
19.7638
 21
128.614
 31
0.0
  0
ENDSEC
  0
EOF
