  0
SECTION
  2
HEADER
  9
$ACADVER
  1
AC1009
  9
$EXTMIN
 10
0.0
 20
0.0
 30
0.0
  9
$EXTMAX
 10
1000.0
 20
1000.0
 30
0.0
  9
$FILLMODE
 70
 0
  9
$SPLFRAME
 70
 1
  0
ENDSEC
  0
SECTION
  2
TABLES
  0
TABLE
  2
LAYER
 70
1
  0
LAYER
  2
0
 70
     0
 62
     7
  6
CONTINUOUS
  0
ENDTAB
  0
ENDSEC
  0
SECTION
  2
ENTITIES
  0
LINE
  8
0
 62
     0
 10
0.0950846
 20
129.021
 30
0.0
 11
200.12
 21
129.021
 31
0.0
  0
LINE
  8
0
 62
     0
 10
200.12
 20
129.021
 30
0.0
 11
200.12
 21
0.434082
 31
0.0
  0
LINE
  8
0
 62
     0
 10
200.12
 20
0.434082
 30
0.0
 11
0.0950846
 21
0.434082
 31
0.0
  0
LINE
  8
0
 62
     0
 10
0.0950846
 20
0.434082
 30
0.0
 11
0.0950846
 21
129.021
 31
0.0
  0
LINE
  8
0
 62
     0
 10
183.595
 20
16.9595
 30
0.0
 11
183.595
 21
15.9604
 31
0.0
  0
LINE
  8
0
 62
     0
 10
183.595
 20
15.9604
 30
0.0
 11
182.794
 21
15.9604
 31
0.0
  0
LINE
  8
0
 62
     0
 10
182.794
 20
15.9604
 30
0.0
 11
182.794
 21
12.8598
 31
0.0
  0
LINE
  8
0
 62
     0
 10
182.794
 20
12.8598
 30
0.0
 11
183.595
 21
12.8598
 31
0.0
  0
LINE
  8
0
 62
     0
 10
183.595
 20
12.8598
 30
0.0
 11
183.595
 21
7.05968
 31
0.0
  0
LINE
  8
0
 62
     0
 10
183.595
 20
7.05968
 30
0.0
 11
182.794
 21
7.05968
 31
0.0
  0
LINE
  8
0
 62
     0
 10
182.794
 20
7.05968
 30
0.0
 11
182.794
 21
3.96049
 31
0.0
  0
LINE
  8
0
 62
     0
 10
182.794
 20
3.96049
 30
0.0
 11
183.595
 21
3.96049
 31
0.0
  0
LINE
  8
0
 62
     0
 10
183.595
 20
3.96049
 30
0.0
 11
183.595
 21
2.96003
 31
0.0
  0
LINE
  8
0
 62
     0
 10
183.595
 20
2.96003
 30
0.0
 11
197.594
 21
2.96003
 31
0.0
  0
LINE
  8
0
 62
     0
 10
197.594
 20
2.96003
 30
0.0
 11
197.594
 21
3.96049
 31
0.0
  0
LINE
  8
0
 62
     0
 10
197.594
 20
3.96049
 30
0.0
 11
198.395
 21
3.96049
 31
0.0
  0
LINE
  8
0
 62
     0
 10
198.395
 20
3.96049
 30
0.0
 11
198.395
 21
7.05968
 31
0.0
  0
LINE
  8
0
 62
     0
 10
198.395
 20
7.05968
 30
0.0
 11
197.594
 21
7.05968
 31
0.0
  0
LINE
  8
0
 62
     0
 10
197.594
 20
7.05968
 30
0.0
 11
197.594
 21
12.8598
 31
0.0
  0
LINE
  8
0
 62
     0
 10
197.594
 20
12.8598
 30
0.0
 11
198.395
 21
12.8598
 31
0.0
  0
LINE
  8
0
 62
     0
 10
198.395
 20
12.8598
 30
0.0
 11
198.395
 21
15.9604
 31
0.0
  0
LINE
  8
0
 62
     0
 10
198.395
 20
15.9604
 30
0.0
 11
197.594
 21
15.9604
 31
0.0
  0
LINE
  8
0
 62
     0
 10
197.594
 20
15.9604
 30
0.0
 11
197.594
 21
16.9595
 31
0.0
  0
LINE
  8
0
 62
     0
 10
197.594
 20
16.9595
 30
0.0
 11
183.595
 21
16.9595
 31
0.0
  0
LINE
  8
0
 62
     0
 10
164.545
 20
16.9595
 30
0.0
 11
164.545
 21
15.9604
 31
0.0
  0
LINE
  8
0
 62
     0
 10
164.545
 20
15.9604
 30
0.0
 11
163.744
 21
15.9604
 31
0.0
  0
LINE
  8
0
 62
     0
 10
163.744
 20
15.9604
 30
0.0
 11
163.744
 21
12.8598
 31
0.0
  0
LINE
  8
0
 62
     0
 10
163.744
 20
12.8598
 30
0.0
 11
164.545
 21
12.8598
 31
0.0
  0
LINE
  8
0
 62
     0
 10
164.545
 20
12.8598
 30
0.0
 11
164.545
 21
7.05968
 31
0.0
  0
LINE
  8
0
 62
     0
 10
164.545
 20
7.05968
 30
0.0
 11
163.744
 21
7.05968
 31
0.0
  0
LINE
  8
0
 62
     0
 10
163.744
 20
7.05968
 30
0.0
 11
163.744
 21
3.96049
 31
0.0
  0
LINE
  8
0
 62
     0
 10
163.744
 20
3.96049
 30
0.0
 11
164.545
 21
3.96049
 31
0.0
  0
LINE
  8
0
 62
     0
 10
164.545
 20
3.96049
 30
0.0
 11
164.545
 21
2.96003
 31
0.0
  0
LINE
  8
0
 62
     0
 10
164.545
 20
2.96003
 30
0.0
 11
178.544
 21
2.96003
 31
0.0
  0
LINE
  8
0
 62
     0
 10
178.544
 20
2.96003
 30
0.0
 11
178.544
 21
3.96049
 31
0.0
  0
LINE
  8
0
 62
     0
 10
178.544
 20
3.96049
 30
0.0
 11
179.345
 21
3.96049
 31
0.0
  0
LINE
  8
0
 62
     0
 10
179.345
 20
3.96049
 30
0.0
 11
179.345
 21
7.05968
 31
0.0
  0
LINE
  8
0
 62
     0
 10
179.345
 20
7.05968
 30
0.0
 11
178.544
 21
7.05968
 31
0.0
  0
LINE
  8
0
 62
     0
 10
178.544
 20
7.05968
 30
0.0
 11
178.544
 21
12.8598
 31
0.0
  0
LINE
  8
0
 62
     0
 10
178.544
 20
12.8598
 30
0.0
 11
179.345
 21
12.8598
 31
0.0
  0
LINE
  8
0
 62
     0
 10
179.345
 20
12.8598
 30
0.0
 11
179.345
 21
15.9604
 31
0.0
  0
LINE
  8
0
 62
     0
 10
179.345
 20
15.9604
 30
0.0
 11
178.544
 21
15.9604
 31
0.0
  0
LINE
  8
0
 62
     0
 10
178.544
 20
15.9604
 30
0.0
 11
178.544
 21
16.9595
 31
0.0
  0
LINE
  8
0
 62
     0
 10
178.544
 20
16.9595
 30
0.0
 11
164.545
 21
16.9595
 31
0.0
  0
LINE
  8
0
 62
     0
 10
145.495
 20
16.9595
 30
0.0
 11
145.495
 21
15.9604
 31
0.0
  0
LINE
  8
0
 62
     0
 10
145.495
 20
15.9604
 30
0.0
 11
144.694
 21
15.9604
 31
0.0
  0
LINE
  8
0
 62
     0
 10
144.694
 20
15.9604
 30
0.0
 11
144.694
 21
12.8598
 31
0.0
  0
LINE
  8
0
 62
     0
 10
144.694
 20
12.8598
 30
0.0
 11
145.495
 21
12.8598
 31
0.0
  0
LINE
  8
0
 62
     0
 10
145.495
 20
12.8598
 30
0.0
 11
145.495
 21
7.05968
 31
0.0
  0
LINE
  8
0
 62
     0
 10
145.495
 20
7.05968
 30
0.0
 11
144.694
 21
7.05968
 31
0.0
  0
LINE
  8
0
 62
     0
 10
144.694
 20
7.05968
 30
0.0
 11
144.694
 21
3.96049
 31
0.0
  0
LINE
  8
0
 62
     0
 10
144.694
 20
3.96049
 30
0.0
 11
145.495
 21
3.96049
 31
0.0
  0
LINE
  8
0
 62
     0
 10
145.495
 20
3.96049
 30
0.0
 11
145.495
 21
2.96003
 31
0.0
  0
LINE
  8
0
 62
     0
 10
145.495
 20
2.96003
 30
0.0
 11
159.494
 21
2.96003
 31
0.0
  0
LINE
  8
0
 62
     0
 10
159.494
 20
2.96003
 30
0.0
 11
159.494
 21
3.96049
 31
0.0
  0
LINE
  8
0
 62
     0
 10
159.494
 20
3.96049
 30
0.0
 11
160.295
 21
3.96049
 31
0.0
  0
LINE
  8
0
 62
     0
 10
160.295
 20
3.96049
 30
0.0
 11
160.295
 21
7.05968
 31
0.0
  0
LINE
  8
0
 62
     0
 10
160.295
 20
7.05968
 30
0.0
 11
159.494
 21
7.05968
 31
0.0
  0
LINE
  8
0
 62
     0
 10
159.494
 20
7.05968
 30
0.0
 11
159.494
 21
12.8598
 31
0.0
  0
LINE
  8
0
 62
     0
 10
159.494
 20
12.8598
 30
0.0
 11
160.295
 21
12.8598
 31
0.0
  0
LINE
  8
0
 62
     0
 10
160.295
 20
12.8598
 30
0.0
 11
160.295
 21
15.9604
 31
0.0
  0
LINE
  8
0
 62
     0
 10
160.295
 20
15.9604
 30
0.0
 11
159.494
 21
15.9604
 31
0.0
  0
LINE
  8
0
 62
     0
 10
159.494
 20
15.9604
 30
0.0
 11
159.494
 21
16.9595
 31
0.0
  0
LINE
  8
0
 62
     0
 10
159.494
 20
16.9595
 30
0.0
 11
145.495
 21
16.9595
 31
0.0
  0
LINE
  8
0
 62
     0
 10
114.537
 20
21.722
 30
0.0
 11
114.537
 21
20.7216
 31
0.0
  0
LINE
  8
0
 62
     0
 10
114.537
 20
20.7216
 30
0.0
 11
113.738
 21
20.7216
 31
0.0
  0
LINE
  8
0
 62
     0
 10
113.738
 20
20.7216
 30
0.0
 11
113.738
 21
17.6223
 31
0.0
  0
LINE
  8
0
 62
     0
 10
113.738
 20
17.6223
 30
0.0
 11
114.537
 21
17.6223
 31
0.0
  0
LINE
  8
0
 62
     0
 10
114.537
 20
17.6223
 30
0.0
 11
114.537
 21
17.0215
 31
0.0
  0
LINE
  8
0
 62
     0
 10
114.537
 20
17.0215
 30
0.0
 11
113.013
 21
17.0215
 31
0.0
  0
LINE
  8
0
 62
     0
 10
113.013
 20
17.0215
 30
0.0
 11
113.013
 21
20.2517
 31
0.0
  0
LINE
  8
0
 62
     0
 10
113.013
 20
20.2517
 30
0.0
 11
111.288
 21
20.2517
 31
0.0
  0
LINE
  8
0
 62
     0
 10
111.288
 20
20.2517
 30
0.0
 11
111.288
 21
21.1722
 31
0.0
  0
LINE
  8
0
 62
     0
 10
111.288
 20
21.1722
 30
0.0
 11
107.987
 21
21.1722
 31
0.0
  0
LINE
  8
0
 62
     0
 10
107.987
 20
21.1722
 30
0.0
 11
107.987
 21
20.2517
 31
0.0
  0
LINE
  8
0
 62
     0
 10
107.987
 20
20.2517
 30
0.0
 11
106.262
 21
20.2517
 31
0.0
  0
LINE
  8
0
 62
     0
 10
106.262
 20
20.2517
 30
0.0
 11
106.262
 21
17.0215
 31
0.0
  0
LINE
  8
0
 62
     0
 10
106.262
 20
17.0215
 30
0.0
 11
105.438
 21
17.0215
 31
0.0
  0
LINE
  8
0
 62
     0
 10
105.438
 20
17.0215
 30
0.0
 11
105.438
 21
14.2227
 31
0.0
  0
LINE
  8
0
 62
     0
 10
105.438
 20
14.2227
 30
0.0
 11
106.262
 21
14.2227
 31
0.0
  0
LINE
  8
0
 62
     0
 10
106.262
 20
14.2227
 30
0.0
 11
106.262
 21
7.95267
 31
0.0
  0
LINE
  8
0
 62
     0
 10
106.262
 20
7.95267
 30
0.0
 11
107.987
 21
7.95267
 31
0.0
  0
LINE
  8
0
 62
     0
 10
107.987
 20
7.95267
 30
0.0
 11
107.987
 21
6.97286
 31
0.0
  0
LINE
  8
0
 62
     0
 10
107.987
 20
6.97286
 30
0.0
 11
111.288
 21
6.97286
 31
0.0
  0
LINE
  8
0
 62
     0
 10
111.288
 20
6.97286
 30
0.0
 11
111.288
 21
7.95267
 31
0.0
  0
LINE
  8
0
 62
     0
 10
111.288
 20
7.95267
 30
0.0
 11
113.013
 21
7.95267
 31
0.0
  0
LINE
  8
0
 62
     0
 10
113.013
 20
7.95267
 30
0.0
 11
113.013
 21
12.4216
 31
0.0
  0
LINE
  8
0
 62
     0
 10
113.013
 20
12.4216
 30
0.0
 11
114.537
 21
12.4216
 31
0.0
  0
LINE
  8
0
 62
     0
 10
114.537
 20
12.4216
 30
0.0
 11
114.537
 21
11.8222
 31
0.0
  0
LINE
  8
0
 62
     0
 10
114.537
 20
11.8222
 30
0.0
 11
113.738
 21
11.8222
 31
0.0
  0
LINE
  8
0
 62
     0
 10
113.738
 20
11.8222
 30
0.0
 11
113.738
 21
8.72162
 31
0.0
  0
LINE
  8
0
 62
     0
 10
113.738
 20
8.72162
 30
0.0
 11
114.537
 21
8.72162
 31
0.0
  0
LINE
  8
0
 62
     0
 10
114.537
 20
8.72162
 30
0.0
 11
114.537
 21
7.72252
 31
0.0
  0
LINE
  8
0
 62
     0
 10
114.537
 20
7.72252
 30
0.0
 11
128.538
 21
7.72252
 31
0.0
  0
LINE
  8
0
 62
     0
 10
128.538
 20
7.72252
 30
0.0
 11
128.538
 21
8.72162
 31
0.0
  0
LINE
  8
0
 62
     0
 10
128.538
 20
8.72162
 30
0.0
 11
129.337
 21
8.72162
 31
0.0
  0
LINE
  8
0
 62
     0
 10
129.337
 20
8.72162
 30
0.0
 11
129.337
 21
11.8222
 31
0.0
  0
LINE
  8
0
 62
     0
 10
129.337
 20
11.8222
 30
0.0
 11
128.538
 21
11.8222
 31
0.0
  0
LINE
  8
0
 62
     0
 10
128.538
 20
11.8222
 30
0.0
 11
128.538
 21
12.4216
 31
0.0
  0
LINE
  8
0
 62
     0
 10
128.538
 20
12.4216
 30
0.0
 11
130.062
 21
12.4216
 31
0.0
  0
LINE
  8
0
 62
     0
 10
130.062
 20
12.4216
 30
0.0
 11
130.062
 21
7.95267
 31
0.0
  0
LINE
  8
0
 62
     0
 10
130.062
 20
7.95267
 30
0.0
 11
131.787
 21
7.95267
 31
0.0
  0
LINE
  8
0
 62
     0
 10
131.787
 20
7.95267
 30
0.0
 11
131.787
 21
6.97286
 31
0.0
  0
LINE
  8
0
 62
     0
 10
131.787
 20
6.97286
 30
0.0
 11
135.088
 21
6.97286
 31
0.0
  0
LINE
  8
0
 62
     0
 10
135.088
 20
6.97286
 30
0.0
 11
135.088
 21
7.95267
 31
0.0
  0
LINE
  8
0
 62
     0
 10
135.088
 20
7.95267
 30
0.0
 11
136.813
 21
7.95267
 31
0.0
  0
LINE
  8
0
 62
     0
 10
136.813
 20
7.95267
 30
0.0
 11
136.813
 21
14.2227
 31
0.0
  0
LINE
  8
0
 62
     0
 10
136.813
 20
14.2227
 30
0.0
 11
137.637
 21
14.2227
 31
0.0
  0
LINE
  8
0
 62
     0
 10
137.637
 20
14.2227
 30
0.0
 11
137.637
 21
17.0215
 31
0.0
  0
LINE
  8
0
 62
     0
 10
137.637
 20
17.0215
 30
0.0
 11
136.813
 21
17.0215
 31
0.0
  0
LINE
  8
0
 62
     0
 10
136.813
 20
17.0215
 30
0.0
 11
136.813
 21
20.2517
 31
0.0
  0
LINE
  8
0
 62
     0
 10
136.813
 20
20.2517
 30
0.0
 11
135.088
 21
20.2517
 31
0.0
  0
LINE
  8
0
 62
     0
 10
135.088
 20
20.2517
 30
0.0
 11
135.088
 21
21.1722
 31
0.0
  0
LINE
  8
0
 62
     0
 10
135.088
 20
21.1722
 30
0.0
 11
131.787
 21
21.1722
 31
0.0
  0
LINE
  8
0
 62
     0
 10
131.787
 20
21.1722
 30
0.0
 11
131.787
 21
20.2517
 31
0.0
  0
LINE
  8
0
 62
     0
 10
131.787
 20
20.2517
 30
0.0
 11
130.062
 21
20.2517
 31
0.0
  0
LINE
  8
0
 62
     0
 10
130.062
 20
20.2517
 30
0.0
 11
130.062
 21
17.0215
 31
0.0
  0
LINE
  8
0
 62
     0
 10
130.062
 20
17.0215
 30
0.0
 11
128.538
 21
17.0215
 31
0.0
  0
LINE
  8
0
 62
     0
 10
128.538
 20
17.0215
 30
0.0
 11
128.538
 21
17.6223
 31
0.0
  0
LINE
  8
0
 62
     0
 10
128.538
 20
17.6223
 30
0.0
 11
129.337
 21
17.6223
 31
0.0
  0
LINE
  8
0
 62
     0
 10
129.337
 20
17.6223
 30
0.0
 11
129.337
 21
20.7216
 31
0.0
  0
LINE
  8
0
 62
     0
 10
129.337
 20
20.7216
 30
0.0
 11
128.538
 21
20.7216
 31
0.0
  0
LINE
  8
0
 62
     0
 10
128.538
 20
20.7216
 30
0.0
 11
128.538
 21
21.722
 31
0.0
  0
LINE
  8
0
 62
     0
 10
128.538
 20
21.722
 30
0.0
 11
114.537
 21
21.722
 31
0.0
  0
LINE
  8
0
 62
     0
 10
62.151
 20
21.722
 30
0.0
 11
62.151
 21
20.7216
 31
0.0
  0
LINE
  8
0
 62
     0
 10
62.151
 20
20.7216
 30
0.0
 11
61.3502
 21
20.7216
 31
0.0
  0
LINE
  8
0
 62
     0
 10
61.3502
 20
20.7216
 30
0.0
 11
61.3502
 21
17.6223
 31
0.0
  0
LINE
  8
0
 62
     0
 10
61.3502
 20
17.6223
 30
0.0
 11
62.151
 21
17.6223
 31
0.0
  0
LINE
  8
0
 62
     0
 10
62.151
 20
17.6223
 30
0.0
 11
62.151
 21
11.8222
 31
0.0
  0
LINE
  8
0
 62
     0
 10
62.151
 20
11.8222
 30
0.0
 11
61.3502
 21
11.8222
 31
0.0
  0
LINE
  8
0
 62
     0
 10
61.3502
 20
11.8222
 30
0.0
 11
61.3502
 21
8.72162
 31
0.0
  0
LINE
  8
0
 62
     0
 10
61.3502
 20
8.72162
 30
0.0
 11
62.151
 21
8.72162
 31
0.0
  0
LINE
  8
0
 62
     0
 10
62.151
 20
8.72162
 30
0.0
 11
62.151
 21
7.72252
 31
0.0
  0
LINE
  8
0
 62
     0
 10
62.151
 20
7.72252
 30
0.0
 11
76.1503
 21
7.72252
 31
0.0
  0
LINE
  8
0
 62
     0
 10
76.1503
 20
7.72252
 30
0.0
 11
76.1503
 21
8.72162
 31
0.0
  0
LINE
  8
0
 62
     0
 10
76.1503
 20
8.72162
 30
0.0
 11
76.9511
 21
8.72162
 31
0.0
  0
LINE
  8
0
 62
     0
 10
76.9511
 20
8.72162
 30
0.0
 11
76.9511
 21
11.8222
 31
0.0
  0
LINE
  8
0
 62
     0
 10
76.9511
 20
11.8222
 30
0.0
 11
76.1503
 21
11.8222
 31
0.0
  0
LINE
  8
0
 62
     0
 10
76.1503
 20
11.8222
 30
0.0
 11
76.1503
 21
17.6223
 31
0.0
  0
LINE
  8
0
 62
     0
 10
76.1503
 20
17.6223
 30
0.0
 11
76.9511
 21
17.6223
 31
0.0
  0
LINE
  8
0
 62
     0
 10
76.9511
 20
17.6223
 30
0.0
 11
76.9511
 21
20.7216
 31
0.0
  0
LINE
  8
0
 62
     0
 10
76.9511
 20
20.7216
 30
0.0
 11
76.1503
 21
20.7216
 31
0.0
  0
LINE
  8
0
 62
     0
 10
76.1503
 20
20.7216
 30
0.0
 11
76.1503
 21
21.722
 31
0.0
  0
LINE
  8
0
 62
     0
 10
76.1503
 20
21.722
 30
0.0
 11
62.151
 21
21.722
 31
0.0
  0
LINE
  8
0
 62
     0
 10
35.9572
 20
21.722
 30
0.0
 11
35.9572
 21
20.7216
 31
0.0
  0
LINE
  8
0
 62
     0
 10
35.9572
 20
20.7216
 30
0.0
 11
35.1565
 21
20.7216
 31
0.0
  0
LINE
  8
0
 62
     0
 10
35.1565
 20
20.7216
 30
0.0
 11
35.1565
 21
17.6223
 31
0.0
  0
LINE
  8
0
 62
     0
 10
35.1565
 20
17.6223
 30
0.0
 11
35.9572
 21
17.6223
 31
0.0
  0
LINE
  8
0
 62
     0
 10
35.9572
 20
17.6223
 30
0.0
 11
35.9572
 21
11.8222
 31
0.0
  0
LINE
  8
0
 62
     0
 10
35.9572
 20
11.8222
 30
0.0
 11
35.1565
 21
11.8222
 31
0.0
  0
LINE
  8
0
 62
     0
 10
35.1565
 20
11.8222
 30
0.0
 11
35.1565
 21
8.72162
 31
0.0
  0
LINE
  8
0
 62
     0
 10
35.1565
 20
8.72162
 30
0.0
 11
35.9572
 21
8.72162
 31
0.0
  0
LINE
  8
0
 62
     0
 10
35.9572
 20
8.72162
 30
0.0
 11
35.9572
 21
7.72252
 31
0.0
  0
LINE
  8
0
 62
     0
 10
35.9572
 20
7.72252
 30
0.0
 11
49.9565
 21
7.72252
 31
0.0
  0
LINE
  8
0
 62
     0
 10
49.9565
 20
7.72252
 30
0.0
 11
49.9565
 21
8.72162
 31
0.0
  0
LINE
  8
0
 62
     0
 10
49.9565
 20
8.72162
 30
0.0
 11
50.7559
 21
8.72162
 31
0.0
  0
LINE
  8
0
 62
     0
 10
50.7559
 20
8.72162
 30
0.0
 11
50.7559
 21
11.8222
 31
0.0
  0
LINE
  8
0
 62
     0
 10
50.7559
 20
11.8222
 30
0.0
 11
49.9565
 21
11.8222
 31
0.0
  0
LINE
  8
0
 62
     0
 10
49.9565
 20
11.8222
 30
0.0
 11
49.9565
 21
17.6223
 31
0.0
  0
LINE
  8
0
 62
     0
 10
49.9565
 20
17.6223
 30
0.0
 11
50.7559
 21
17.6223
 31
0.0
  0
LINE
  8
0
 62
     0
 10
50.7559
 20
17.6223
 30
0.0
 11
50.7559
 21
20.7216
 31
0.0
  0
LINE
  8
0
 62
     0
 10
50.7559
 20
20.7216
 30
0.0
 11
49.9565
 21
20.7216
 31
0.0
  0
LINE
  8
0
 62
     0
 10
49.9565
 20
20.7216
 30
0.0
 11
49.9565
 21
21.722
 31
0.0
  0
LINE
  8
0
 62
     0
 10
49.9565
 20
21.722
 30
0.0
 11
35.9572
 21
21.722
 31
0.0
  0
LINE
  8
0
 62
     0
 10
12.1447
 20
26.4845
 30
0.0
 11
12.1447
 21
25.4854
 31
0.0
  0
LINE
  8
0
 62
     0
 10
12.1447
 20
25.4854
 30
0.0
 11
11.344
 21
25.4854
 31
0.0
  0
LINE
  8
0
 62
     0
 10
11.344
 20
25.4854
 30
0.0
 11
11.344
 21
22.3848
 31
0.0
  0
LINE
  8
0
 62
     0
 10
11.344
 20
22.3848
 30
0.0
 11
12.1447
 21
22.3848
 31
0.0
  0
LINE
  8
0
 62
     0
 10
12.1447
 20
22.3848
 30
0.0
 11
12.1447
 21
16.5847
 31
0.0
  0
LINE
  8
0
 62
     0
 10
12.1447
 20
16.5847
 30
0.0
 11
11.344
 21
16.5847
 31
0.0
  0
LINE
  8
0
 62
     0
 10
11.344
 20
16.5847
 30
0.0
 11
11.344
 21
13.4855
 31
0.0
  0
LINE
  8
0
 62
     0
 10
11.344
 20
13.4855
 30
0.0
 11
12.1447
 21
13.4855
 31
0.0
  0
LINE
  8
0
 62
     0
 10
12.1447
 20
13.4855
 30
0.0
 11
12.1447
 21
12.485
 31
0.0
  0
LINE
  8
0
 62
     0
 10
12.1447
 20
12.485
 30
0.0
 11
26.1441
 21
12.485
 31
0.0
  0
LINE
  8
0
 62
     0
 10
26.1441
 20
12.485
 30
0.0
 11
26.1441
 21
13.4855
 31
0.0
  0
LINE
  8
0
 62
     0
 10
26.1441
 20
13.4855
 30
0.0
 11
26.9448
 21
13.4855
 31
0.0
  0
LINE
  8
0
 62
     0
 10
26.9448
 20
13.4855
 30
0.0
 11
26.9448
 21
16.5847
 31
0.0
  0
LINE
  8
0
 62
     0
 10
26.9448
 20
16.5847
 30
0.0
 11
26.1441
 21
16.5847
 31
0.0
  0
LINE
  8
0
 62
     0
 10
26.1441
 20
16.5847
 30
0.0
 11
26.1441
 21
22.3848
 31
0.0
  0
LINE
  8
0
 62
     0
 10
26.1441
 20
22.3848
 30
0.0
 11
26.9448
 21
22.3848
 31
0.0
  0
LINE
  8
0
 62
     0
 10
26.9448
 20
22.3848
 30
0.0
 11
26.9448
 21
25.4854
 31
0.0
  0
LINE
  8
0
 62
     0
 10
26.9448
 20
25.4854
 30
0.0
 11
26.1441
 21
25.4854
 31
0.0
  0
LINE
  8
0
 62
     0
 10
26.1441
 20
25.4854
 30
0.0
 11
26.1441
 21
26.4845
 31
0.0
  0
LINE
  8
0
 62
     0
 10
26.1441
 20
26.4845
 30
0.0
 11
12.1447
 21
26.4845
 31
0.0
  0
LINE
  8
0
 62
     0
 10
164.545
 20
36.0094
 30
0.0
 11
164.545
 21
35.0104
 31
0.0
  0
LINE
  8
0
 62
     0
 10
164.545
 20
35.0104
 30
0.0
 11
163.744
 21
35.0104
 31
0.0
  0
LINE
  8
0
 62
     0
 10
163.744
 20
35.0104
 30
0.0
 11
163.744
 21
31.9098
 31
0.0
  0
LINE
  8
0
 62
     0
 10
163.744
 20
31.9098
 30
0.0
 11
164.545
 21
31.9098
 31
0.0
  0
LINE
  8
0
 62
     0
 10
164.545
 20
31.9098
 30
0.0
 11
164.545
 21
26.1097
 31
0.0
  0
LINE
  8
0
 62
     0
 10
164.545
 20
26.1097
 30
0.0
 11
163.744
 21
26.1097
 31
0.0
  0
LINE
  8
0
 62
     0
 10
163.744
 20
26.1097
 30
0.0
 11
163.744
 21
23.0105
 31
0.0
  0
LINE
  8
0
 62
     0
 10
163.744
 20
23.0105
 30
0.0
 11
164.545
 21
23.0105
 31
0.0
  0
LINE
  8
0
 62
     0
 10
164.545
 20
23.0105
 30
0.0
 11
164.545
 21
22.01
 31
0.0
  0
LINE
  8
0
 62
     0
 10
164.545
 20
22.01
 30
0.0
 11
178.544
 21
22.01
 31
0.0
  0
LINE
  8
0
 62
     0
 10
178.544
 20
22.01
 30
0.0
 11
178.544
 21
23.0105
 31
0.0
  0
LINE
  8
0
 62
     0
 10
178.544
 20
23.0105
 30
0.0
 11
179.345
 21
23.0105
 31
0.0
  0
LINE
  8
0
 62
     0
 10
179.345
 20
23.0105
 30
0.0
 11
179.345
 21
26.1097
 31
0.0
  0
LINE
  8
0
 62
     0
 10
179.345
 20
26.1097
 30
0.0
 11
178.544
 21
26.1097
 31
0.0
  0
LINE
  8
0
 62
     0
 10
178.544
 20
26.1097
 30
0.0
 11
178.544
 21
31.9098
 31
0.0
  0
LINE
  8
0
 62
     0
 10
178.544
 20
31.9098
 30
0.0
 11
179.345
 21
31.9098
 31
0.0
  0
LINE
  8
0
 62
     0
 10
179.345
 20
31.9098
 30
0.0
 11
179.345
 21
35.0104
 31
0.0
  0
LINE
  8
0
 62
     0
 10
179.345
 20
35.0104
 30
0.0
 11
178.544
 21
35.0104
 31
0.0
  0
LINE
  8
0
 62
     0
 10
178.544
 20
35.0104
 30
0.0
 11
178.544
 21
36.0094
 31
0.0
  0
LINE
  8
0
 62
     0
 10
178.544
 20
36.0094
 30
0.0
 11
164.545
 21
36.0094
 31
0.0
  0
LINE
  8
0
 62
     0
 10
12.1447
 20
45.5344
 30
0.0
 11
12.1447
 21
44.5354
 31
0.0
  0
LINE
  8
0
 62
     0
 10
12.1447
 20
44.5354
 30
0.0
 11
11.344
 21
44.5354
 31
0.0
  0
LINE
  8
0
 62
     0
 10
11.344
 20
44.5354
 30
0.0
 11
11.344
 21
41.4348
 31
0.0
  0
LINE
  8
0
 62
     0
 10
11.344
 20
41.4348
 30
0.0
 11
12.1447
 21
41.4348
 31
0.0
  0
LINE
  8
0
 62
     0
 10
12.1447
 20
41.4348
 30
0.0
 11
12.1447
 21
40.8354
 31
0.0
  0
LINE
  8
0
 62
     0
 10
12.1447
 20
40.8354
 30
0.0
 11
10.6192
 21
40.8354
 31
0.0
  0
LINE
  8
0
 62
     0
 10
10.6192
 20
40.8354
 30
0.0
 11
10.6192
 21
44.0655
 31
0.0
  0
LINE
  8
0
 62
     0
 10
10.6192
 20
44.0655
 30
0.0
 11
8.89385
 21
44.0655
 31
0.0
  0
LINE
  8
0
 62
     0
 10
8.89385
 20
44.0655
 30
0.0
 11
8.89385
 21
44.9848
 31
0.0
  0
LINE
  8
0
 62
     0
 10
8.89385
 20
44.9848
 30
0.0
 11
5.59484
 21
44.9848
 31
0.0
  0
LINE
  8
0
 62
     0
 10
5.59484
 20
44.9848
 30
0.0
 11
5.59484
 21
44.0655
 31
0.0
  0
LINE
  8
0
 62
     0
 10
5.59484
 20
44.0655
 30
0.0
 11
3.86955
 21
44.0655
 31
0.0
  0
LINE
  8
0
 62
     0
 10
3.86955
 20
44.0655
 30
0.0
 11
3.86955
 21
40.8354
 31
0.0
  0
LINE
  8
0
 62
     0
 10
3.86955
 20
40.8354
 30
0.0
 11
3.04409
 21
40.8354
 31
0.0
  0
LINE
  8
0
 62
     0
 10
3.04409
 20
40.8354
 30
0.0
 11
3.04409
 21
38.0351
 31
0.0
  0
LINE
  8
0
 62
     0
 10
3.04409
 20
38.0351
 30
0.0
 11
3.86955
 21
38.0351
 31
0.0
  0
LINE
  8
0
 62
     0
 10
3.86955
 20
38.0351
 30
0.0
 11
3.86955
 21
31.7652
 31
0.0
  0
LINE
  8
0
 62
     0
 10
3.86955
 20
31.7652
 30
0.0
 11
5.59484
 21
31.7652
 31
0.0
  0
LINE
  8
0
 62
     0
 10
5.59484
 20
31.7652
 30
0.0
 11
5.59484
 21
30.7854
 31
0.0
  0
LINE
  8
0
 62
     0
 10
5.59484
 20
30.7854
 30
0.0
 11
8.89385
 21
30.7854
 31
0.0
  0
LINE
  8
0
 62
     0
 10
8.89385
 20
30.7854
 30
0.0
 11
8.89385
 21
31.7652
 31
0.0
  0
LINE
  8
0
 62
     0
 10
8.89385
 20
31.7652
 30
0.0
 11
10.6192
 21
31.7652
 31
0.0
  0
LINE
  8
0
 62
     0
 10
10.6192
 20
31.7652
 30
0.0
 11
10.6192
 21
36.2356
 31
0.0
  0
LINE
  8
0
 62
     0
 10
10.6192
 20
36.2356
 30
0.0
 11
12.1447
 21
36.2356
 31
0.0
  0
LINE
  8
0
 62
     0
 10
12.1447
 20
36.2356
 30
0.0
 11
12.1447
 21
35.6348
 31
0.0
  0
LINE
  8
0
 62
     0
 10
12.1447
 20
35.6348
 30
0.0
 11
11.344
 21
35.6348
 31
0.0
  0
LINE
  8
0
 62
     0
 10
11.344
 20
35.6348
 30
0.0
 11
11.344
 21
32.5355
 31
0.0
  0
LINE
  8
0
 62
     0
 10
11.344
 20
32.5355
 30
0.0
 11
12.1447
 21
32.5355
 31
0.0
  0
LINE
  8
0
 62
     0
 10
12.1447
 20
32.5355
 30
0.0
 11
12.1447
 21
31.535
 31
0.0
  0
LINE
  8
0
 62
     0
 10
12.1447
 20
31.535
 30
0.0
 11
26.1441
 21
31.535
 31
0.0
  0
LINE
  8
0
 62
     0
 10
26.1441
 20
31.535
 30
0.0
 11
26.1441
 21
32.5355
 31
0.0
  0
LINE
  8
0
 62
     0
 10
26.1441
 20
32.5355
 30
0.0
 11
26.9448
 21
32.5355
 31
0.0
  0
LINE
  8
0
 62
     0
 10
26.9448
 20
32.5355
 30
0.0
 11
26.9448
 21
35.6348
 31
0.0
  0
LINE
  8
0
 62
     0
 10
26.9448
 20
35.6348
 30
0.0
 11
26.1441
 21
35.6348
 31
0.0
  0
LINE
  8
0
 62
     0
 10
26.1441
 20
35.6348
 30
0.0
 11
26.1441
 21
36.2356
 31
0.0
  0
LINE
  8
0
 62
     0
 10
26.1441
 20
36.2356
 30
0.0
 11
27.6696
 21
36.2356
 31
0.0
  0
LINE
  8
0
 62
     0
 10
27.6696
 20
36.2356
 30
0.0
 11
27.6696
 21
31.7652
 31
0.0
  0
LINE
  8
0
 62
     0
 10
27.6696
 20
31.7652
 30
0.0
 11
29.3949
 21
31.7652
 31
0.0
  0
LINE
  8
0
 62
     0
 10
29.3949
 20
31.7652
 30
0.0
 11
29.3949
 21
30.7854
 31
0.0
  0
LINE
  8
0
 62
     0
 10
29.3949
 20
30.7854
 30
0.0
 11
32.694
 21
30.7854
 31
0.0
  0
LINE
  8
0
 62
     0
 10
32.694
 20
30.7854
 30
0.0
 11
32.694
 21
31.7652
 31
0.0
  0
LINE
  8
0
 62
     0
 10
32.694
 20
31.7652
 30
0.0
 11
34.4193
 21
31.7652
 31
0.0
  0
LINE
  8
0
 62
     0
 10
34.4193
 20
31.7652
 30
0.0
 11
34.4193
 21
38.0351
 31
0.0
  0
LINE
  8
0
 62
     0
 10
34.4193
 20
38.0351
 30
0.0
 11
35.2447
 21
38.0351
 31
0.0
  0
LINE
  8
0
 62
     0
 10
35.2447
 20
38.0351
 30
0.0
 11
35.2447
 21
40.8354
 31
0.0
  0
LINE
  8
0
 62
     0
 10
35.2447
 20
40.8354
 30
0.0
 11
34.4193
 21
40.8354
 31
0.0
  0
LINE
  8
0
 62
     0
 10
34.4193
 20
40.8354
 30
0.0
 11
34.4193
 21
44.0655
 31
0.0
  0
LINE
  8
0
 62
     0
 10
34.4193
 20
44.0655
 30
0.0
 11
32.694
 21
44.0655
 31
0.0
  0
LINE
  8
0
 62
     0
 10
32.694
 20
44.0655
 30
0.0
 11
32.694
 21
44.9848
 31
0.0
  0
LINE
  8
0
 62
     0
 10
32.694
 20
44.9848
 30
0.0
 11
29.3949
 21
44.9848
 31
0.0
  0
LINE
  8
0
 62
     0
 10
29.3949
 20
44.9848
 30
0.0
 11
29.3949
 21
44.0655
 31
0.0
  0
LINE
  8
0
 62
     0
 10
29.3949
 20
44.0655
 30
0.0
 11
27.6696
 21
44.0655
 31
0.0
  0
LINE
  8
0
 62
     0
 10
27.6696
 20
44.0655
 30
0.0
 11
27.6696
 21
40.8354
 31
0.0
  0
LINE
  8
0
 62
     0
 10
27.6696
 20
40.8354
 30
0.0
 11
26.1441
 21
40.8354
 31
0.0
  0
LINE
  8
0
 62
     0
 10
26.1441
 20
40.8354
 30
0.0
 11
26.1441
 21
41.4348
 31
0.0
  0
LINE
  8
0
 62
     0
 10
26.1441
 20
41.4348
 30
0.0
 11
26.9448
 21
41.4348
 31
0.0
  0
LINE
  8
0
 62
     0
 10
26.9448
 20
41.4348
 30
0.0
 11
26.9448
 21
44.5354
 31
0.0
  0
LINE
  8
0
 62
     0
 10
26.9448
 20
44.5354
 30
0.0
 11
26.1441
 21
44.5354
 31
0.0
  0
LINE
  8
0
 62
     0
 10
26.1441
 20
44.5354
 30
0.0
 11
26.1441
 21
45.5344
 31
0.0
  0
LINE
  8
0
 62
     0
 10
26.1441
 20
45.5344
 30
0.0
 11
12.1447
 21
45.5344
 31
0.0
  0
LINE
  8
0
 62
     0
 10
121.682
 20
45.5344
 30
0.0
 11
121.682
 21
44.5354
 31
0.0
  0
LINE
  8
0
 62
     0
 10
121.682
 20
44.5354
 30
0.0
 11
120.881
 21
44.5354
 31
0.0
  0
LINE
  8
0
 62
     0
 10
120.881
 20
44.5354
 30
0.0
 11
120.881
 21
41.4348
 31
0.0
  0
LINE
  8
0
 62
     0
 10
120.881
 20
41.4348
 30
0.0
 11
121.682
 21
41.4348
 31
0.0
  0
LINE
  8
0
 62
     0
 10
121.682
 20
41.4348
 30
0.0
 11
121.682
 21
35.6348
 31
0.0
  0
LINE
  8
0
 62
     0
 10
121.682
 20
35.6348
 30
0.0
 11
120.881
 21
35.6348
 31
0.0
  0
LINE
  8
0
 62
     0
 10
120.881
 20
35.6348
 30
0.0
 11
120.881
 21
32.5355
 31
0.0
  0
LINE
  8
0
 62
     0
 10
120.881
 20
32.5355
 30
0.0
 11
121.682
 21
32.5355
 31
0.0
  0
LINE
  8
0
 62
     0
 10
121.682
 20
32.5355
 30
0.0
 11
121.682
 21
31.535
 31
0.0
  0
LINE
  8
0
 62
     0
 10
121.682
 20
31.535
 30
0.0
 11
135.682
 21
31.535
 31
0.0
  0
LINE
  8
0
 62
     0
 10
135.682
 20
31.535
 30
0.0
 11
135.682
 21
32.5355
 31
0.0
  0
LINE
  8
0
 62
     0
 10
135.682
 20
32.5355
 30
0.0
 11
136.481
 21
32.5355
 31
0.0
  0
LINE
  8
0
 62
     0
 10
136.481
 20
32.5355
 30
0.0
 11
136.481
 21
35.6348
 31
0.0
  0
LINE
  8
0
 62
     0
 10
136.481
 20
35.6348
 30
0.0
 11
135.682
 21
35.6348
 31
0.0
  0
LINE
  8
0
 62
     0
 10
135.682
 20
35.6348
 30
0.0
 11
135.682
 21
41.4348
 31
0.0
  0
LINE
  8
0
 62
     0
 10
135.682
 20
41.4348
 30
0.0
 11
136.481
 21
41.4348
 31
0.0
  0
LINE
  8
0
 62
     0
 10
136.481
 20
41.4348
 30
0.0
 11
136.481
 21
44.5354
 31
0.0
  0
LINE
  8
0
 62
     0
 10
136.481
 20
44.5354
 30
0.0
 11
135.682
 21
44.5354
 31
0.0
  0
LINE
  8
0
 62
     0
 10
135.682
 20
44.5354
 30
0.0
 11
135.682
 21
45.5344
 31
0.0
  0
LINE
  8
0
 62
     0
 10
135.682
 20
45.5344
 30
0.0
 11
121.682
 21
45.5344
 31
0.0
  0
LINE
  8
0
 62
     0
 10
102.632
 20
45.5344
 30
0.0
 11
102.632
 21
44.5354
 31
0.0
  0
LINE
  8
0
 62
     0
 10
102.632
 20
44.5354
 30
0.0
 11
101.831
 21
44.5354
 31
0.0
  0
LINE
  8
0
 62
     0
 10
101.831
 20
44.5354
 30
0.0
 11
101.831
 21
41.4348
 31
0.0
  0
LINE
  8
0
 62
     0
 10
101.831
 20
41.4348
 30
0.0
 11
102.632
 21
41.4348
 31
0.0
  0
LINE
  8
0
 62
     0
 10
102.632
 20
41.4348
 30
0.0
 11
102.632
 21
35.6348
 31
0.0
  0
LINE
  8
0
 62
     0
 10
102.632
 20
35.6348
 30
0.0
 11
101.831
 21
35.6348
 31
0.0
  0
LINE
  8
0
 62
     0
 10
101.831
 20
35.6348
 30
0.0
 11
101.831
 21
32.5355
 31
0.0
  0
LINE
  8
0
 62
     0
 10
101.831
 20
32.5355
 30
0.0
 11
102.632
 21
32.5355
 31
0.0
  0
LINE
  8
0
 62
     0
 10
102.632
 20
32.5355
 30
0.0
 11
102.632
 21
31.535
 31
0.0
  0
LINE
  8
0
 62
     0
 10
102.632
 20
31.535
 30
0.0
 11
116.632
 21
31.535
 31
0.0
  0
LINE
  8
0
 62
     0
 10
116.632
 20
31.535
 30
0.0
 11
116.632
 21
32.5355
 31
0.0
  0
LINE
  8
0
 62
     0
 10
116.632
 20
32.5355
 30
0.0
 11
117.431
 21
32.5355
 31
0.0
  0
LINE
  8
0
 62
     0
 10
117.431
 20
32.5355
 30
0.0
 11
117.431
 21
35.6348
 31
0.0
  0
LINE
  8
0
 62
     0
 10
117.431
 20
35.6348
 30
0.0
 11
116.632
 21
35.6348
 31
0.0
  0
LINE
  8
0
 62
     0
 10
116.632
 20
35.6348
 30
0.0
 11
116.632
 21
41.4348
 31
0.0
  0
LINE
  8
0
 62
     0
 10
116.632
 20
41.4348
 30
0.0
 11
117.431
 21
41.4348
 31
0.0
  0
LINE
  8
0
 62
     0
 10
117.431
 20
41.4348
 30
0.0
 11
117.431
 21
44.5354
 31
0.0
  0
LINE
  8
0
 62
     0
 10
117.431
 20
44.5354
 30
0.0
 11
116.632
 21
44.5354
 31
0.0
  0
LINE
  8
0
 62
     0
 10
116.632
 20
44.5354
 30
0.0
 11
116.632
 21
45.5344
 31
0.0
  0
LINE
  8
0
 62
     0
 10
116.632
 20
45.5344
 30
0.0
 11
102.632
 21
45.5344
 31
0.0
  0
LINE
  8
0
 62
     0
 10
83.5822
 20
45.5344
 30
0.0
 11
83.5822
 21
44.5354
 31
0.0
  0
LINE
  8
0
 62
     0
 10
83.5822
 20
44.5354
 30
0.0
 11
82.7814
 21
44.5354
 31
0.0
  0
LINE
  8
0
 62
     0
 10
82.7814
 20
44.5354
 30
0.0
 11
82.7814
 21
41.4348
 31
0.0
  0
LINE
  8
0
 62
     0
 10
82.7814
 20
41.4348
 30
0.0
 11
83.5822
 21
41.4348
 31
0.0
  0
LINE
  8
0
 62
     0
 10
83.5822
 20
41.4348
 30
0.0
 11
83.5822
 21
35.6348
 31
0.0
  0
LINE
  8
0
 62
     0
 10
83.5822
 20
35.6348
 30
0.0
 11
82.7814
 21
35.6348
 31
0.0
  0
LINE
  8
0
 62
     0
 10
82.7814
 20
35.6348
 30
0.0
 11
82.7814
 21
32.5355
 31
0.0
  0
LINE
  8
0
 62
     0
 10
82.7814
 20
32.5355
 30
0.0
 11
83.5822
 21
32.5355
 31
0.0
  0
LINE
  8
0
 62
     0
 10
83.5822
 20
32.5355
 30
0.0
 11
83.5822
 21
31.535
 31
0.0
  0
LINE
  8
0
 62
     0
 10
83.5822
 20
31.535
 30
0.0
 11
97.5815
 21
31.535
 31
0.0
  0
LINE
  8
0
 62
     0
 10
97.5815
 20
31.535
 30
0.0
 11
97.5815
 21
32.5355
 31
0.0
  0
LINE
  8
0
 62
     0
 10
97.5815
 20
32.5355
 30
0.0
 11
98.3809
 21
32.5355
 31
0.0
  0
LINE
  8
0
 62
     0
 10
98.3809
 20
32.5355
 30
0.0
 11
98.3809
 21
35.6348
 31
0.0
  0
LINE
  8
0
 62
     0
 10
98.3809
 20
35.6348
 30
0.0
 11
97.5815
 21
35.6348
 31
0.0
  0
LINE
  8
0
 62
     0
 10
97.5815
 20
35.6348
 30
0.0
 11
97.5815
 21
41.4348
 31
0.0
  0
LINE
  8
0
 62
     0
 10
97.5815
 20
41.4348
 30
0.0
 11
98.3809
 21
41.4348
 31
0.0
  0
LINE
  8
0
 62
     0
 10
98.3809
 20
41.4348
 30
0.0
 11
98.3809
 21
44.5354
 31
0.0
  0
LINE
  8
0
 62
     0
 10
98.3809
 20
44.5354
 30
0.0
 11
97.5815
 21
44.5354
 31
0.0
  0
LINE
  8
0
 62
     0
 10
97.5815
 20
44.5354
 30
0.0
 11
97.5815
 21
45.5344
 31
0.0
  0
LINE
  8
0
 62
     0
 10
97.5815
 20
45.5344
 30
0.0
 11
83.5822
 21
45.5344
 31
0.0
  0
LINE
  8
0
 62
     0
 10
64.5322
 20
45.5344
 30
0.0
 11
64.5322
 21
44.5354
 31
0.0
  0
LINE
  8
0
 62
     0
 10
64.5322
 20
44.5354
 30
0.0
 11
63.7314
 21
44.5354
 31
0.0
  0
LINE
  8
0
 62
     0
 10
63.7314
 20
44.5354
 30
0.0
 11
63.7314
 21
41.4348
 31
0.0
  0
LINE
  8
0
 62
     0
 10
63.7314
 20
41.4348
 30
0.0
 11
64.5322
 21
41.4348
 31
0.0
  0
LINE
  8
0
 62
     0
 10
64.5322
 20
41.4348
 30
0.0
 11
64.5322
 21
35.6348
 31
0.0
  0
LINE
  8
0
 62
     0
 10
64.5322
 20
35.6348
 30
0.0
 11
63.7314
 21
35.6348
 31
0.0
  0
LINE
  8
0
 62
     0
 10
63.7314
 20
35.6348
 30
0.0
 11
63.7314
 21
32.5355
 31
0.0
  0
LINE
  8
0
 62
     0
 10
63.7314
 20
32.5355
 30
0.0
 11
64.5322
 21
32.5355
 31
0.0
  0
LINE
  8
0
 62
     0
 10
64.5322
 20
32.5355
 30
0.0
 11
64.5322
 21
31.535
 31
0.0
  0
LINE
  8
0
 62
     0
 10
64.5322
 20
31.535
 30
0.0
 11
78.5315
 21
31.535
 31
0.0
  0
LINE
  8
0
 62
     0
 10
78.5315
 20
31.535
 30
0.0
 11
78.5315
 21
32.5355
 31
0.0
  0
LINE
  8
0
 62
     0
 10
78.5315
 20
32.5355
 30
0.0
 11
79.3309
 21
32.5355
 31
0.0
  0
LINE
  8
0
 62
     0
 10
79.3309
 20
32.5355
 30
0.0
 11
79.3309
 21
35.6348
 31
0.0
  0
LINE
  8
0
 62
     0
 10
79.3309
 20
35.6348
 30
0.0
 11
78.5315
 21
35.6348
 31
0.0
  0
LINE
  8
0
 62
     0
 10
78.5315
 20
35.6348
 30
0.0
 11
78.5315
 21
41.4348
 31
0.0
  0
LINE
  8
0
 62
     0
 10
78.5315
 20
41.4348
 30
0.0
 11
79.3309
 21
41.4348
 31
0.0
  0
LINE
  8
0
 62
     0
 10
79.3309
 20
41.4348
 30
0.0
 11
79.3309
 21
44.5354
 31
0.0
  0
LINE
  8
0
 62
     0
 10
79.3309
 20
44.5354
 30
0.0
 11
78.5315
 21
44.5354
 31
0.0
  0
LINE
  8
0
 62
     0
 10
78.5315
 20
44.5354
 30
0.0
 11
78.5315
 21
45.5344
 31
0.0
  0
LINE
  8
0
 62
     0
 10
78.5315
 20
45.5344
 30
0.0
 11
64.5322
 21
45.5344
 31
0.0
  0
LINE
  8
0
 62
     0
 10
45.4822
 20
45.5344
 30
0.0
 11
45.4822
 21
44.5354
 31
0.0
  0
LINE
  8
0
 62
     0
 10
45.4822
 20
44.5354
 30
0.0
 11
44.6814
 21
44.5354
 31
0.0
  0
LINE
  8
0
 62
     0
 10
44.6814
 20
44.5354
 30
0.0
 11
44.6814
 21
41.4348
 31
0.0
  0
LINE
  8
0
 62
     0
 10
44.6814
 20
41.4348
 30
0.0
 11
45.4822
 21
41.4348
 31
0.0
  0
LINE
  8
0
 62
     0
 10
45.4822
 20
41.4348
 30
0.0
 11
45.4822
 21
35.6348
 31
0.0
  0
LINE
  8
0
 62
     0
 10
45.4822
 20
35.6348
 30
0.0
 11
44.6814
 21
35.6348
 31
0.0
  0
LINE
  8
0
 62
     0
 10
44.6814
 20
35.6348
 30
0.0
 11
44.6814
 21
32.5355
 31
0.0
  0
LINE
  8
0
 62
     0
 10
44.6814
 20
32.5355
 30
0.0
 11
45.4822
 21
32.5355
 31
0.0
  0
LINE
  8
0
 62
     0
 10
45.4822
 20
32.5355
 30
0.0
 11
45.4822
 21
31.535
 31
0.0
  0
LINE
  8
0
 62
     0
 10
45.4822
 20
31.535
 30
0.0
 11
59.4815
 21
31.535
 31
0.0
  0
LINE
  8
0
 62
     0
 10
59.4815
 20
31.535
 30
0.0
 11
59.4815
 21
32.5355
 31
0.0
  0
LINE
  8
0
 62
     0
 10
59.4815
 20
32.5355
 30
0.0
 11
60.2809
 21
32.5355
 31
0.0
  0
LINE
  8
0
 62
     0
 10
60.2809
 20
32.5355
 30
0.0
 11
60.2809
 21
35.6348
 31
0.0
  0
LINE
  8
0
 62
     0
 10
60.2809
 20
35.6348
 30
0.0
 11
59.4815
 21
35.6348
 31
0.0
  0
LINE
  8
0
 62
     0
 10
59.4815
 20
35.6348
 30
0.0
 11
59.4815
 21
41.4348
 31
0.0
  0
LINE
  8
0
 62
     0
 10
59.4815
 20
41.4348
 30
0.0
 11
60.2809
 21
41.4348
 31
0.0
  0
LINE
  8
0
 62
     0
 10
60.2809
 20
41.4348
 30
0.0
 11
60.2809
 21
44.5354
 31
0.0
  0
LINE
  8
0
 62
     0
 10
60.2809
 20
44.5354
 30
0.0
 11
59.4815
 21
44.5354
 31
0.0
  0
LINE
  8
0
 62
     0
 10
59.4815
 20
44.5354
 30
0.0
 11
59.4815
 21
45.5344
 31
0.0
  0
LINE
  8
0
 62
     0
 10
59.4815
 20
45.5344
 30
0.0
 11
45.4822
 21
45.5344
 31
0.0
  0
LINE
  8
0
 62
     0
 10
162.162
 20
64.5844
 30
0.0
 11
162.162
 21
63.5854
 31
0.0
  0
LINE
  8
0
 62
     0
 10
162.162
 20
63.5854
 30
0.0
 11
161.363
 21
63.5854
 31
0.0
  0
LINE
  8
0
 62
     0
 10
161.363
 20
63.5854
 30
0.0
 11
161.363
 21
60.4848
 31
0.0
  0
LINE
  8
0
 62
     0
 10
161.363
 20
60.4848
 30
0.0
 11
162.162
 21
60.4848
 31
0.0
  0
LINE
  8
0
 62
     0
 10
162.162
 20
60.4848
 30
0.0
 11
162.162
 21
59.8854
 31
0.0
  0
LINE
  8
0
 62
     0
 10
162.162
 20
59.8854
 30
0.0
 11
160.638
 21
59.8854
 31
0.0
  0
LINE
  8
0
 62
     0
 10
160.638
 20
59.8854
 30
0.0
 11
160.638
 21
63.1155
 31
0.0
  0
LINE
  8
0
 62
     0
 10
160.638
 20
63.1155
 30
0.0
 11
158.913
 21
63.1155
 31
0.0
  0
LINE
  8
0
 62
     0
 10
158.913
 20
63.1155
 30
0.0
 11
158.913
 21
64.0348
 31
0.0
  0
LINE
  8
0
 62
     0
 10
158.913
 20
64.0348
 30
0.0
 11
155.612
 21
64.0348
 31
0.0
  0
LINE
  8
0
 62
     0
 10
155.612
 20
64.0348
 30
0.0
 11
155.612
 21
63.1155
 31
0.0
  0
LINE
  8
0
 62
     0
 10
155.612
 20
63.1155
 30
0.0
 11
153.887
 21
63.1155
 31
0.0
  0
LINE
  8
0
 62
     0
 10
153.887
 20
63.1155
 30
0.0
 11
153.887
 21
59.8854
 31
0.0
  0
LINE
  8
0
 62
     0
 10
153.887
 20
59.8854
 30
0.0
 11
153.063
 21
59.8854
 31
0.0
  0
LINE
  8
0
 62
     0
 10
153.063
 20
59.8854
 30
0.0
 11
153.063
 21
57.0851
 31
0.0
  0
LINE
  8
0
 62
     0
 10
153.063
 20
57.0851
 30
0.0
 11
153.887
 21
57.0851
 31
0.0
  0
LINE
  8
0
 62
     0
 10
153.887
 20
57.0851
 30
0.0
 11
153.887
 21
50.8152
 31
0.0
  0
LINE
  8
0
 62
     0
 10
153.887
 20
50.8152
 30
0.0
 11
155.612
 21
50.8152
 31
0.0
  0
LINE
  8
0
 62
     0
 10
155.612
 20
50.8152
 30
0.0
 11
155.612
 21
49.8355
 31
0.0
  0
LINE
  8
0
 62
     0
 10
155.612
 20
49.8355
 30
0.0
 11
158.913
 21
49.8355
 31
0.0
  0
LINE
  8
0
 62
     0
 10
158.913
 20
49.8355
 30
0.0
 11
158.913
 21
50.8152
 31
0.0
  0
LINE
  8
0
 62
     0
 10
158.913
 20
50.8152
 30
0.0
 11
160.638
 21
50.8152
 31
0.0
  0
LINE
  8
0
 62
     0
 10
160.638
 20
50.8152
 30
0.0
 11
160.638
 21
55.2856
 31
0.0
  0
LINE
  8
0
 62
     0
 10
160.638
 20
55.2856
 30
0.0
 11
162.162
 21
55.2856
 31
0.0
  0
LINE
  8
0
 62
     0
 10
162.162
 20
55.2856
 30
0.0
 11
162.162
 21
54.6848
 31
0.0
  0
LINE
  8
0
 62
     0
 10
162.162
 20
54.6848
 30
0.0
 11
161.363
 21
54.6848
 31
0.0
  0
LINE
  8
0
 62
     0
 10
161.363
 20
54.6848
 30
0.0
 11
161.363
 21
51.5856
 31
0.0
  0
LINE
  8
0
 62
     0
 10
161.363
 20
51.5856
 30
0.0
 11
162.162
 21
51.5856
 31
0.0
  0
LINE
  8
0
 62
     0
 10
162.162
 20
51.5856
 30
0.0
 11
162.162
 21
50.5852
 31
0.0
  0
LINE
  8
0
 62
     0
 10
162.162
 20
50.5852
 30
0.0
 11
176.163
 21
50.5852
 31
0.0
  0
LINE
  8
0
 62
     0
 10
176.163
 20
50.5852
 30
0.0
 11
176.163
 21
51.5856
 31
0.0
  0
LINE
  8
0
 62
     0
 10
176.163
 20
51.5856
 30
0.0
 11
176.962
 21
51.5856
 31
0.0
  0
LINE
  8
0
 62
     0
 10
176.962
 20
51.5856
 30
0.0
 11
176.962
 21
54.6848
 31
0.0
  0
LINE
  8
0
 62
     0
 10
176.962
 20
54.6848
 30
0.0
 11
176.163
 21
54.6848
 31
0.0
  0
LINE
  8
0
 62
     0
 10
176.163
 20
54.6848
 30
0.0
 11
176.163
 21
55.2856
 31
0.0
  0
LINE
  8
0
 62
     0
 10
176.163
 20
55.2856
 30
0.0
 11
177.687
 21
55.2856
 31
0.0
  0
LINE
  8
0
 62
     0
 10
177.687
 20
55.2856
 30
0.0
 11
177.687
 21
50.8152
 31
0.0
  0
LINE
  8
0
 62
     0
 10
177.687
 20
50.8152
 30
0.0
 11
179.412
 21
50.8152
 31
0.0
  0
LINE
  8
0
 62
     0
 10
179.412
 20
50.8152
 30
0.0
 11
179.412
 21
49.8355
 31
0.0
  0
LINE
  8
0
 62
     0
 10
179.412
 20
49.8355
 30
0.0
 11
182.713
 21
49.8355
 31
0.0
  0
LINE
  8
0
 62
     0
 10
182.713
 20
49.8355
 30
0.0
 11
182.713
 21
50.8152
 31
0.0
  0
LINE
  8
0
 62
     0
 10
182.713
 20
50.8152
 30
0.0
 11
184.438
 21
50.8152
 31
0.0
  0
LINE
  8
0
 62
     0
 10
184.438
 20
50.8152
 30
0.0
 11
184.438
 21
57.0851
 31
0.0
  0
LINE
  8
0
 62
     0
 10
184.438
 20
57.0851
 30
0.0
 11
185.262
 21
57.0851
 31
0.0
  0
LINE
  8
0
 62
     0
 10
185.262
 20
57.0851
 30
0.0
 11
185.262
 21
59.8854
 31
0.0
  0
LINE
  8
0
 62
     0
 10
185.262
 20
59.8854
 30
0.0
 11
184.438
 21
59.8854
 31
0.0
  0
LINE
  8
0
 62
     0
 10
184.438
 20
59.8854
 30
0.0
 11
184.438
 21
63.1155
 31
0.0
  0
LINE
  8
0
 62
     0
 10
184.438
 20
63.1155
 30
0.0
 11
182.713
 21
63.1155
 31
0.0
  0
LINE
  8
0
 62
     0
 10
182.713
 20
63.1155
 30
0.0
 11
182.713
 21
64.0348
 31
0.0
  0
LINE
  8
0
 62
     0
 10
182.713
 20
64.0348
 30
0.0
 11
179.412
 21
64.0348
 31
0.0
  0
LINE
  8
0
 62
     0
 10
179.412
 20
64.0348
 30
0.0
 11
179.412
 21
63.1155
 31
0.0
  0
LINE
  8
0
 62
     0
 10
179.412
 20
63.1155
 30
0.0
 11
177.687
 21
63.1155
 31
0.0
  0
LINE
  8
0
 62
     0
 10
177.687
 20
63.1155
 30
0.0
 11
177.687
 21
59.8854
 31
0.0
  0
LINE
  8
0
 62
     0
 10
177.687
 20
59.8854
 30
0.0
 11
176.163
 21
59.8854
 31
0.0
  0
LINE
  8
0
 62
     0
 10
176.163
 20
59.8854
 30
0.0
 11
176.163
 21
60.4848
 31
0.0
  0
LINE
  8
0
 62
     0
 10
176.163
 20
60.4848
 30
0.0
 11
176.962
 21
60.4848
 31
0.0
  0
LINE
  8
0
 62
     0
 10
176.962
 20
60.4848
 30
0.0
 11
176.962
 21
63.5854
 31
0.0
  0
LINE
  8
0
 62
     0
 10
176.962
 20
63.5854
 30
0.0
 11
176.163
 21
63.5854
 31
0.0
  0
LINE
  8
0
 62
     0
 10
176.163
 20
63.5854
 30
0.0
 11
176.163
 21
64.5844
 31
0.0
  0
LINE
  8
0
 62
     0
 10
176.163
 20
64.5844
 30
0.0
 11
162.162
 21
64.5844
 31
0.0
  0
LINE
  8
0
 62
     0
 10
131.207
 20
64.5844
 30
0.0
 11
131.207
 21
63.5854
 31
0.0
  0
LINE
  8
0
 62
     0
 10
131.207
 20
63.5854
 30
0.0
 11
130.406
 21
63.5854
 31
0.0
  0
LINE
  8
0
 62
     0
 10
130.406
 20
63.5854
 30
0.0
 11
130.406
 21
60.4848
 31
0.0
  0
LINE
  8
0
 62
     0
 10
130.406
 20
60.4848
 30
0.0
 11
131.207
 21
60.4848
 31
0.0
  0
LINE
  8
0
 62
     0
 10
131.207
 20
60.4848
 30
0.0
 11
131.207
 21
54.6848
 31
0.0
  0
LINE
  8
0
 62
     0
 10
131.207
 20
54.6848
 30
0.0
 11
130.406
 21
54.6848
 31
0.0
  0
LINE
  8
0
 62
     0
 10
130.406
 20
54.6848
 30
0.0
 11
130.406
 21
51.5856
 31
0.0
  0
LINE
  8
0
 62
     0
 10
130.406
 20
51.5856
 30
0.0
 11
131.207
 21
51.5856
 31
0.0
  0
LINE
  8
0
 62
     0
 10
131.207
 20
51.5856
 30
0.0
 11
131.207
 21
50.5852
 31
0.0
  0
LINE
  8
0
 62
     0
 10
131.207
 20
50.5852
 30
0.0
 11
145.207
 21
50.5852
 31
0.0
  0
LINE
  8
0
 62
     0
 10
145.207
 20
50.5852
 30
0.0
 11
145.207
 21
51.5856
 31
0.0
  0
LINE
  8
0
 62
     0
 10
145.207
 20
51.5856
 30
0.0
 11
146.006
 21
51.5856
 31
0.0
  0
LINE
  8
0
 62
     0
 10
146.006
 20
51.5856
 30
0.0
 11
146.006
 21
54.6848
 31
0.0
  0
LINE
  8
0
 62
     0
 10
146.006
 20
54.6848
 30
0.0
 11
145.207
 21
54.6848
 31
0.0
  0
LINE
  8
0
 62
     0
 10
145.207
 20
54.6848
 30
0.0
 11
145.207
 21
60.4848
 31
0.0
  0
LINE
  8
0
 62
     0
 10
145.207
 20
60.4848
 30
0.0
 11
146.006
 21
60.4848
 31
0.0
  0
LINE
  8
0
 62
     0
 10
146.006
 20
60.4848
 30
0.0
 11
146.006
 21
63.5854
 31
0.0
  0
LINE
  8
0
 62
     0
 10
146.006
 20
63.5854
 30
0.0
 11
145.207
 21
63.5854
 31
0.0
  0
LINE
  8
0
 62
     0
 10
145.207
 20
63.5854
 30
0.0
 11
145.207
 21
64.5844
 31
0.0
  0
LINE
  8
0
 62
     0
 10
145.207
 20
64.5844
 30
0.0
 11
131.207
 21
64.5844
 31
0.0
  0
LINE
  8
0
 62
     0
 10
112.157
 20
64.5844
 30
0.0
 11
112.157
 21
63.5854
 31
0.0
  0
LINE
  8
0
 62
     0
 10
112.157
 20
63.5854
 30
0.0
 11
111.356
 21
63.5854
 31
0.0
  0
LINE
  8
0
 62
     0
 10
111.356
 20
63.5854
 30
0.0
 11
111.356
 21
60.4848
 31
0.0
  0
LINE
  8
0
 62
     0
 10
111.356
 20
60.4848
 30
0.0
 11
112.157
 21
60.4848
 31
0.0
  0
LINE
  8
0
 62
     0
 10
112.157
 20
60.4848
 30
0.0
 11
112.157
 21
54.6848
 31
0.0
  0
LINE
  8
0
 62
     0
 10
112.157
 20
54.6848
 30
0.0
 11
111.356
 21
54.6848
 31
0.0
  0
LINE
  8
0
 62
     0
 10
111.356
 20
54.6848
 30
0.0
 11
111.356
 21
51.5856
 31
0.0
  0
LINE
  8
0
 62
     0
 10
111.356
 20
51.5856
 30
0.0
 11
112.157
 21
51.5856
 31
0.0
  0
LINE
  8
0
 62
     0
 10
112.157
 20
51.5856
 30
0.0
 11
112.157
 21
50.5852
 31
0.0
  0
LINE
  8
0
 62
     0
 10
112.157
 20
50.5852
 30
0.0
 11
126.157
 21
50.5852
 31
0.0
  0
LINE
  8
0
 62
     0
 10
126.157
 20
50.5852
 30
0.0
 11
126.157
 21
51.5856
 31
0.0
  0
LINE
  8
0
 62
     0
 10
126.157
 20
51.5856
 30
0.0
 11
126.956
 21
51.5856
 31
0.0
  0
LINE
  8
0
 62
     0
 10
126.956
 20
51.5856
 30
0.0
 11
126.956
 21
54.6848
 31
0.0
  0
LINE
  8
0
 62
     0
 10
126.956
 20
54.6848
 30
0.0
 11
126.157
 21
54.6848
 31
0.0
  0
LINE
  8
0
 62
     0
 10
126.157
 20
54.6848
 30
0.0
 11
126.157
 21
60.4848
 31
0.0
  0
LINE
  8
0
 62
     0
 10
126.157
 20
60.4848
 30
0.0
 11
126.956
 21
60.4848
 31
0.0
  0
LINE
  8
0
 62
     0
 10
126.956
 20
60.4848
 30
0.0
 11
126.956
 21
63.5854
 31
0.0
  0
LINE
  8
0
 62
     0
 10
126.956
 20
63.5854
 30
0.0
 11
126.157
 21
63.5854
 31
0.0
  0
LINE
  8
0
 62
     0
 10
126.157
 20
63.5854
 30
0.0
 11
126.157
 21
64.5844
 31
0.0
  0
LINE
  8
0
 62
     0
 10
126.157
 20
64.5844
 30
0.0
 11
112.157
 21
64.5844
 31
0.0
  0
LINE
  8
0
 62
     0
 10
93.1072
 20
64.5844
 30
0.0
 11
93.1072
 21
63.5854
 31
0.0
  0
LINE
  8
0
 62
     0
 10
93.1072
 20
63.5854
 30
0.0
 11
92.3064
 21
63.5854
 31
0.0
  0
LINE
  8
0
 62
     0
 10
92.3064
 20
63.5854
 30
0.0
 11
92.3064
 21
60.4848
 31
0.0
  0
LINE
  8
0
 62
     0
 10
92.3064
 20
60.4848
 30
0.0
 11
93.1072
 21
60.4848
 31
0.0
  0
LINE
  8
0
 62
     0
 10
93.1072
 20
60.4848
 30
0.0
 11
93.1072
 21
54.6848
 31
0.0
  0
LINE
  8
0
 62
     0
 10
93.1072
 20
54.6848
 30
0.0
 11
92.3064
 21
54.6848
 31
0.0
  0
LINE
  8
0
 62
     0
 10
92.3064
 20
54.6848
 30
0.0
 11
92.3064
 21
51.5856
 31
0.0
  0
LINE
  8
0
 62
     0
 10
92.3064
 20
51.5856
 30
0.0
 11
93.1072
 21
51.5856
 31
0.0
  0
LINE
  8
0
 62
     0
 10
93.1072
 20
51.5856
 30
0.0
 11
93.1072
 21
50.5852
 31
0.0
  0
LINE
  8
0
 62
     0
 10
93.1072
 20
50.5852
 30
0.0
 11
107.107
 21
50.5852
 31
0.0
  0
LINE
  8
0
 62
     0
 10
107.107
 20
50.5852
 30
0.0
 11
107.107
 21
51.5856
 31
0.0
  0
LINE
  8
0
 62
     0
 10
107.107
 20
51.5856
 30
0.0
 11
107.906
 21
51.5856
 31
0.0
  0
LINE
  8
0
 62
     0
 10
107.906
 20
51.5856
 30
0.0
 11
107.906
 21
54.6848
 31
0.0
  0
LINE
  8
0
 62
     0
 10
107.906
 20
54.6848
 30
0.0
 11
107.107
 21
54.6848
 31
0.0
  0
LINE
  8
0
 62
     0
 10
107.107
 20
54.6848
 30
0.0
 11
107.107
 21
60.4848
 31
0.0
  0
LINE
  8
0
 62
     0
 10
107.107
 20
60.4848
 30
0.0
 11
107.906
 21
60.4848
 31
0.0
  0
LINE
  8
0
 62
     0
 10
107.906
 20
60.4848
 30
0.0
 11
107.906
 21
63.5854
 31
0.0
  0
LINE
  8
0
 62
     0
 10
107.906
 20
63.5854
 30
0.0
 11
107.107
 21
63.5854
 31
0.0
  0
LINE
  8
0
 62
     0
 10
107.107
 20
63.5854
 30
0.0
 11
107.107
 21
64.5844
 31
0.0
  0
LINE
  8
0
 62
     0
 10
107.107
 20
64.5844
 30
0.0
 11
93.1072
 21
64.5844
 31
0.0
  0
LINE
  8
0
 62
     0
 10
74.0572
 20
64.5844
 30
0.0
 11
74.0572
 21
63.5854
 31
0.0
  0
LINE
  8
0
 62
     0
 10
74.0572
 20
63.5854
 30
0.0
 11
73.2564
 21
63.5854
 31
0.0
  0
LINE
  8
0
 62
     0
 10
73.2564
 20
63.5854
 30
0.0
 11
73.2564
 21
60.4848
 31
0.0
  0
LINE
  8
0
 62
     0
 10
73.2564
 20
60.4848
 30
0.0
 11
74.0572
 21
60.4848
 31
0.0
  0
LINE
  8
0
 62
     0
 10
74.0572
 20
60.4848
 30
0.0
 11
74.0572
 21
54.6848
 31
0.0
  0
LINE
  8
0
 62
     0
 10
74.0572
 20
54.6848
 30
0.0
 11
73.2564
 21
54.6848
 31
0.0
  0
LINE
  8
0
 62
     0
 10
73.2564
 20
54.6848
 30
0.0
 11
73.2564
 21
51.5856
 31
0.0
  0
LINE
  8
0
 62
     0
 10
73.2564
 20
51.5856
 30
0.0
 11
74.0572
 21
51.5856
 31
0.0
  0
LINE
  8
0
 62
     0
 10
74.0572
 20
51.5856
 30
0.0
 11
74.0572
 21
50.5852
 31
0.0
  0
LINE
  8
0
 62
     0
 10
74.0572
 20
50.5852
 30
0.0
 11
88.0565
 21
50.5852
 31
0.0
  0
LINE
  8
0
 62
     0
 10
88.0565
 20
50.5852
 30
0.0
 11
88.0565
 21
51.5856
 31
0.0
  0
LINE
  8
0
 62
     0
 10
88.0565
 20
51.5856
 30
0.0
 11
88.8559
 21
51.5856
 31
0.0
  0
LINE
  8
0
 62
     0
 10
88.8559
 20
51.5856
 30
0.0
 11
88.8559
 21
54.6848
 31
0.0
  0
LINE
  8
0
 62
     0
 10
88.8559
 20
54.6848
 30
0.0
 11
88.0565
 21
54.6848
 31
0.0
  0
LINE
  8
0
 62
     0
 10
88.0565
 20
54.6848
 30
0.0
 11
88.0565
 21
60.4848
 31
0.0
  0
LINE
  8
0
 62
     0
 10
88.0565
 20
60.4848
 30
0.0
 11
88.8559
 21
60.4848
 31
0.0
  0
LINE
  8
0
 62
     0
 10
88.8559
 20
60.4848
 30
0.0
 11
88.8559
 21
63.5854
 31
0.0
  0
LINE
  8
0
 62
     0
 10
88.8559
 20
63.5854
 30
0.0
 11
88.0565
 21
63.5854
 31
0.0
  0
LINE
  8
0
 62
     0
 10
88.0565
 20
63.5854
 30
0.0
 11
88.0565
 21
64.5844
 31
0.0
  0
LINE
  8
0
 62
     0
 10
88.0565
 20
64.5844
 30
0.0
 11
74.0572
 21
64.5844
 31
0.0
  0
LINE
  8
0
 62
     0
 10
55.0072
 20
64.5844
 30
0.0
 11
55.0072
 21
63.5854
 31
0.0
  0
LINE
  8
0
 62
     0
 10
55.0072
 20
63.5854
 30
0.0
 11
54.2064
 21
63.5854
 31
0.0
  0
LINE
  8
0
 62
     0
 10
54.2064
 20
63.5854
 30
0.0
 11
54.2064
 21
60.4848
 31
0.0
  0
LINE
  8
0
 62
     0
 10
54.2064
 20
60.4848
 30
0.0
 11
55.0072
 21
60.4848
 31
0.0
  0
LINE
  8
0
 62
     0
 10
55.0072
 20
60.4848
 30
0.0
 11
55.0072
 21
54.6848
 31
0.0
  0
LINE
  8
0
 62
     0
 10
55.0072
 20
54.6848
 30
0.0
 11
54.2064
 21
54.6848
 31
0.0
  0
LINE
  8
0
 62
     0
 10
54.2064
 20
54.6848
 30
0.0
 11
54.2064
 21
51.5856
 31
0.0
  0
LINE
  8
0
 62
     0
 10
54.2064
 20
51.5856
 30
0.0
 11
55.0072
 21
51.5856
 31
0.0
  0
LINE
  8
0
 62
     0
 10
55.0072
 20
51.5856
 30
0.0
 11
55.0072
 21
50.5852
 31
0.0
  0
LINE
  8
0
 62
     0
 10
55.0072
 20
50.5852
 30
0.0
 11
69.0065
 21
50.5852
 31
0.0
  0
LINE
  8
0
 62
     0
 10
69.0065
 20
50.5852
 30
0.0
 11
69.0065
 21
51.5856
 31
0.0
  0
LINE
  8
0
 62
     0
 10
69.0065
 20
51.5856
 30
0.0
 11
69.8059
 21
51.5856
 31
0.0
  0
LINE
  8
0
 62
     0
 10
69.8059
 20
51.5856
 30
0.0
 11
69.8059
 21
54.6848
 31
0.0
  0
LINE
  8
0
 62
     0
 10
69.8059
 20
54.6848
 30
0.0
 11
69.0065
 21
54.6848
 31
0.0
  0
LINE
  8
0
 62
     0
 10
69.0065
 20
54.6848
 30
0.0
 11
69.0065
 21
60.4848
 31
0.0
  0
LINE
  8
0
 62
     0
 10
69.0065
 20
60.4848
 30
0.0
 11
69.8059
 21
60.4848
 31
0.0
  0
LINE
  8
0
 62
     0
 10
69.8059
 20
60.4848
 30
0.0
 11
69.8059
 21
63.5854
 31
0.0
  0
LINE
  8
0
 62
     0
 10
69.8059
 20
63.5854
 30
0.0
 11
69.0065
 21
63.5854
 31
0.0
  0
LINE
  8
0
 62
     0
 10
69.0065
 20
63.5854
 30
0.0
 11
69.0065
 21
64.5844
 31
0.0
  0
LINE
  8
0
 62
     0
 10
69.0065
 20
64.5844
 30
0.0
 11
55.0072
 21
64.5844
 31
0.0
  0
LINE
  8
0
 62
     0
 10
35.9572
 20
64.5844
 30
0.0
 11
35.9572
 21
63.5854
 31
0.0
  0
LINE
  8
0
 62
     0
 10
35.9572
 20
63.5854
 30
0.0
 11
35.1565
 21
63.5854
 31
0.0
  0
LINE
  8
0
 62
     0
 10
35.1565
 20
63.5854
 30
0.0
 11
35.1565
 21
60.4848
 31
0.0
  0
LINE
  8
0
 62
     0
 10
35.1565
 20
60.4848
 30
0.0
 11
35.9572
 21
60.4848
 31
0.0
  0
LINE
  8
0
 62
     0
 10
35.9572
 20
60.4848
 30
0.0
 11
35.9572
 21
54.6848
 31
0.0
  0
LINE
  8
0
 62
     0
 10
35.9572
 20
54.6848
 30
0.0
 11
35.1565
 21
54.6848
 31
0.0
  0
LINE
  8
0
 62
     0
 10
35.1565
 20
54.6848
 30
0.0
 11
35.1565
 21
51.5856
 31
0.0
  0
LINE
  8
0
 62
     0
 10
35.1565
 20
51.5856
 30
0.0
 11
35.9572
 21
51.5856
 31
0.0
  0
LINE
  8
0
 62
     0
 10
35.9572
 20
51.5856
 30
0.0
 11
35.9572
 21
50.5852
 31
0.0
  0
LINE
  8
0
 62
     0
 10
35.9572
 20
50.5852
 30
0.0
 11
49.9565
 21
50.5852
 31
0.0
  0
LINE
  8
0
 62
     0
 10
49.9565
 20
50.5852
 30
0.0
 11
49.9565
 21
51.5856
 31
0.0
  0
LINE
  8
0
 62
     0
 10
49.9565
 20
51.5856
 30
0.0
 11
50.7559
 21
51.5856
 31
0.0
  0
LINE
  8
0
 62
     0
 10
50.7559
 20
51.5856
 30
0.0
 11
50.7559
 21
54.6848
 31
0.0
  0
LINE
  8
0
 62
     0
 10
50.7559
 20
54.6848
 30
0.0
 11
49.9565
 21
54.6848
 31
0.0
  0
LINE
  8
0
 62
     0
 10
49.9565
 20
54.6848
 30
0.0
 11
49.9565
 21
60.4848
 31
0.0
  0
LINE
  8
0
 62
     0
 10
49.9565
 20
60.4848
 30
0.0
 11
50.7559
 21
60.4848
 31
0.0
  0
LINE
  8
0
 62
     0
 10
50.7559
 20
60.4848
 30
0.0
 11
50.7559
 21
63.5854
 31
0.0
  0
LINE
  8
0
 62
     0
 10
50.7559
 20
63.5854
 30
0.0
 11
49.9565
 21
63.5854
 31
0.0
  0
LINE
  8
0
 62
     0
 10
49.9565
 20
63.5854
 30
0.0
 11
49.9565
 21
64.5844
 31
0.0
  0
LINE
  8
0
 62
     0
 10
49.9565
 20
64.5844
 30
0.0
 11
35.9572
 21
64.5844
 31
0.0
  0
LINE
  8
0
 62
     0
 10
7.38216
 20
64.5844
 30
0.0
 11
7.38216
 21
63.5854
 31
0.0
  0
LINE
  8
0
 62
     0
 10
7.38216
 20
63.5854
 30
0.0
 11
6.58153
 21
63.5854
 31
0.0
  0
LINE
  8
0
 62
     0
 10
6.58153
 20
63.5854
 30
0.0
 11
6.58153
 21
60.4848
 31
0.0
  0
LINE
  8
0
 62
     0
 10
6.58153
 20
60.4848
 30
0.0
 11
7.38216
 21
60.4848
 31
0.0
  0
LINE
  8
0
 62
     0
 10
7.38216
 20
60.4848
 30
0.0
 11
7.38216
 21
54.6848
 31
0.0
  0
LINE
  8
0
 62
     0
 10
7.38216
 20
54.6848
 30
0.0
 11
6.58153
 21
54.6848
 31
0.0
  0
LINE
  8
0
 62
     0
 10
6.58153
 20
54.6848
 30
0.0
 11
6.58153
 21
51.5856
 31
0.0
  0
LINE
  8
0
 62
     0
 10
6.58153
 20
51.5856
 30
0.0
 11
7.38216
 21
51.5856
 31
0.0
  0
LINE
  8
0
 62
     0
 10
7.38216
 20
51.5856
 30
0.0
 11
7.38216
 21
50.5852
 31
0.0
  0
LINE
  8
0
 62
     0
 10
7.38216
 20
50.5852
 30
0.0
 11
21.3817
 21
50.5852
 31
0.0
  0
LINE
  8
0
 62
     0
 10
21.3817
 20
50.5852
 30
0.0
 11
21.3817
 21
51.5856
 31
0.0
  0
LINE
  8
0
 62
     0
 10
21.3817
 20
51.5856
 30
0.0
 11
22.1809
 21
51.5856
 31
0.0
  0
LINE
  8
0
 62
     0
 10
22.1809
 20
51.5856
 30
0.0
 11
22.1809
 21
54.6848
 31
0.0
  0
LINE
  8
0
 62
     0
 10
22.1809
 20
54.6848
 30
0.0
 11
21.3817
 21
54.6848
 31
0.0
  0
LINE
  8
0
 62
     0
 10
21.3817
 20
54.6848
 30
0.0
 11
21.3817
 21
60.4848
 31
0.0
  0
LINE
  8
0
 62
     0
 10
21.3817
 20
60.4848
 30
0.0
 11
22.1809
 21
60.4848
 31
0.0
  0
LINE
  8
0
 62
     0
 10
22.1809
 20
60.4848
 30
0.0
 11
22.1809
 21
63.5854
 31
0.0
  0
LINE
  8
0
 62
     0
 10
22.1809
 20
63.5854
 30
0.0
 11
21.3817
 21
63.5854
 31
0.0
  0
LINE
  8
0
 62
     0
 10
21.3817
 20
63.5854
 30
0.0
 11
21.3817
 21
64.5844
 31
0.0
  0
LINE
  8
0
 62
     0
 10
21.3817
 20
64.5844
 30
0.0
 11
7.38216
 21
64.5844
 31
0.0
  0
LINE
  8
0
 62
     0
 10
169.307
 20
83.6344
 30
0.0
 11
169.307
 21
82.6354
 31
0.0
  0
LINE
  8
0
 62
     0
 10
169.307
 20
82.6354
 30
0.0
 11
168.506
 21
82.6354
 31
0.0
  0
LINE
  8
0
 62
     0
 10
168.506
 20
82.6354
 30
0.0
 11
168.506
 21
79.5348
 31
0.0
  0
LINE
  8
0
 62
     0
 10
168.506
 20
79.5348
 30
0.0
 11
169.307
 21
79.5348
 31
0.0
  0
LINE
  8
0
 62
     0
 10
169.307
 20
79.5348
 30
0.0
 11
169.307
 21
73.7348
 31
0.0
  0
LINE
  8
0
 62
     0
 10
169.307
 20
73.7348
 30
0.0
 11
168.506
 21
73.7348
 31
0.0
  0
LINE
  8
0
 62
     0
 10
168.506
 20
73.7348
 30
0.0
 11
168.506
 21
70.6356
 31
0.0
  0
LINE
  8
0
 62
     0
 10
168.506
 20
70.6356
 30
0.0
 11
169.307
 21
70.6356
 31
0.0
  0
LINE
  8
0
 62
     0
 10
169.307
 20
70.6356
 30
0.0
 11
169.307
 21
69.6352
 31
0.0
  0
LINE
  8
0
 62
     0
 10
169.307
 20
69.6352
 30
0.0
 11
183.307
 21
69.6352
 31
0.0
  0
LINE
  8
0
 62
     0
 10
183.307
 20
69.6352
 30
0.0
 11
183.307
 21
70.6356
 31
0.0
  0
LINE
  8
0
 62
     0
 10
183.307
 20
70.6356
 30
0.0
 11
184.106
 21
70.6356
 31
0.0
  0
LINE
  8
0
 62
     0
 10
184.106
 20
70.6356
 30
0.0
 11
184.106
 21
73.7348
 31
0.0
  0
LINE
  8
0
 62
     0
 10
184.106
 20
73.7348
 30
0.0
 11
183.307
 21
73.7348
 31
0.0
  0
LINE
  8
0
 62
     0
 10
183.307
 20
73.7348
 30
0.0
 11
183.307
 21
79.5348
 31
0.0
  0
LINE
  8
0
 62
     0
 10
183.307
 20
79.5348
 30
0.0
 11
184.106
 21
79.5348
 31
0.0
  0
LINE
  8
0
 62
     0
 10
184.106
 20
79.5348
 30
0.0
 11
184.106
 21
82.6354
 31
0.0
  0
LINE
  8
0
 62
     0
 10
184.106
 20
82.6354
 30
0.0
 11
183.307
 21
82.6354
 31
0.0
  0
LINE
  8
0
 62
     0
 10
183.307
 20
82.6354
 30
0.0
 11
183.307
 21
83.6344
 31
0.0
  0
LINE
  8
0
 62
     0
 10
183.307
 20
83.6344
 30
0.0
 11
169.307
 21
83.6344
 31
0.0
  0
LINE
  8
0
 62
     0
 10
145.495
 20
83.6344
 30
0.0
 11
145.495
 21
82.6354
 31
0.0
  0
LINE
  8
0
 62
     0
 10
145.495
 20
82.6354
 30
0.0
 11
144.694
 21
82.6354
 31
0.0
  0
LINE
  8
0
 62
     0
 10
144.694
 20
82.6354
 30
0.0
 11
144.694
 21
79.5348
 31
0.0
  0
LINE
  8
0
 62
     0
 10
144.694
 20
79.5348
 30
0.0
 11
145.495
 21
79.5348
 31
0.0
  0
LINE
  8
0
 62
     0
 10
145.495
 20
79.5348
 30
0.0
 11
145.495
 21
73.7348
 31
0.0
  0
LINE
  8
0
 62
     0
 10
145.495
 20
73.7348
 30
0.0
 11
144.694
 21
73.7348
 31
0.0
  0
LINE
  8
0
 62
     0
 10
144.694
 20
73.7348
 30
0.0
 11
144.694
 21
70.6356
 31
0.0
  0
LINE
  8
0
 62
     0
 10
144.694
 20
70.6356
 30
0.0
 11
145.495
 21
70.6356
 31
0.0
  0
LINE
  8
0
 62
     0
 10
145.495
 20
70.6356
 30
0.0
 11
145.495
 21
69.6352
 31
0.0
  0
LINE
  8
0
 62
     0
 10
145.495
 20
69.6352
 30
0.0
 11
159.494
 21
69.6352
 31
0.0
  0
LINE
  8
0
 62
     0
 10
159.494
 20
69.6352
 30
0.0
 11
159.494
 21
70.6356
 31
0.0
  0
LINE
  8
0
 62
     0
 10
159.494
 20
70.6356
 30
0.0
 11
160.295
 21
70.6356
 31
0.0
  0
LINE
  8
0
 62
     0
 10
160.295
 20
70.6356
 30
0.0
 11
160.295
 21
73.7348
 31
0.0
  0
LINE
  8
0
 62
     0
 10
160.295
 20
73.7348
 30
0.0
 11
159.494
 21
73.7348
 31
0.0
  0
LINE
  8
0
 62
     0
 10
159.494
 20
73.7348
 30
0.0
 11
159.494
 21
79.5348
 31
0.0
  0
LINE
  8
0
 62
     0
 10
159.494
 20
79.5348
 30
0.0
 11
160.295
 21
79.5348
 31
0.0
  0
LINE
  8
0
 62
     0
 10
160.295
 20
79.5348
 30
0.0
 11
160.295
 21
82.6354
 31
0.0
  0
LINE
  8
0
 62
     0
 10
160.295
 20
82.6354
 30
0.0
 11
159.494
 21
82.6354
 31
0.0
  0
LINE
  8
0
 62
     0
 10
159.494
 20
82.6354
 30
0.0
 11
159.494
 21
83.6344
 31
0.0
  0
LINE
  8
0
 62
     0
 10
159.494
 20
83.6344
 30
0.0
 11
145.495
 21
83.6344
 31
0.0
  0
LINE
  8
0
 62
     0
 10
126.445
 20
83.6344
 30
0.0
 11
126.445
 21
82.6354
 31
0.0
  0
LINE
  8
0
 62
     0
 10
126.445
 20
82.6354
 30
0.0
 11
125.644
 21
82.6354
 31
0.0
  0
LINE
  8
0
 62
     0
 10
125.644
 20
82.6354
 30
0.0
 11
125.644
 21
79.5348
 31
0.0
  0
LINE
  8
0
 62
     0
 10
125.644
 20
79.5348
 30
0.0
 11
126.445
 21
79.5348
 31
0.0
  0
LINE
  8
0
 62
     0
 10
126.445
 20
79.5348
 30
0.0
 11
126.445
 21
73.7348
 31
0.0
  0
LINE
  8
0
 62
     0
 10
126.445
 20
73.7348
 30
0.0
 11
125.644
 21
73.7348
 31
0.0
  0
LINE
  8
0
 62
     0
 10
125.644
 20
73.7348
 30
0.0
 11
125.644
 21
70.6356
 31
0.0
  0
LINE
  8
0
 62
     0
 10
125.644
 20
70.6356
 30
0.0
 11
126.445
 21
70.6356
 31
0.0
  0
LINE
  8
0
 62
     0
 10
126.445
 20
70.6356
 30
0.0
 11
126.445
 21
69.6352
 31
0.0
  0
LINE
  8
0
 62
     0
 10
126.445
 20
69.6352
 30
0.0
 11
140.444
 21
69.6352
 31
0.0
  0
LINE
  8
0
 62
     0
 10
140.444
 20
69.6352
 30
0.0
 11
140.444
 21
70.6356
 31
0.0
  0
LINE
  8
0
 62
     0
 10
140.444
 20
70.6356
 30
0.0
 11
141.245
 21
70.6356
 31
0.0
  0
LINE
  8
0
 62
     0
 10
141.245
 20
70.6356
 30
0.0
 11
141.245
 21
73.7348
 31
0.0
  0
LINE
  8
0
 62
     0
 10
141.245
 20
73.7348
 30
0.0
 11
140.444
 21
73.7348
 31
0.0
  0
LINE
  8
0
 62
     0
 10
140.444
 20
73.7348
 30
0.0
 11
140.444
 21
79.5348
 31
0.0
  0
LINE
  8
0
 62
     0
 10
140.444
 20
79.5348
 30
0.0
 11
141.245
 21
79.5348
 31
0.0
  0
LINE
  8
0
 62
     0
 10
141.245
 20
79.5348
 30
0.0
 11
141.245
 21
82.6354
 31
0.0
  0
LINE
  8
0
 62
     0
 10
141.245
 20
82.6354
 30
0.0
 11
140.444
 21
82.6354
 31
0.0
  0
LINE
  8
0
 62
     0
 10
140.444
 20
82.6354
 30
0.0
 11
140.444
 21
83.6344
 31
0.0
  0
LINE
  8
0
 62
     0
 10
140.444
 20
83.6344
 30
0.0
 11
126.445
 21
83.6344
 31
0.0
  0
LINE
  8
0
 62
     0
 10
107.395
 20
83.6344
 30
0.0
 11
107.395
 21
82.6354
 31
0.0
  0
LINE
  8
0
 62
     0
 10
107.395
 20
82.6354
 30
0.0
 11
106.594
 21
82.6354
 31
0.0
  0
LINE
  8
0
 62
     0
 10
106.594
 20
82.6354
 30
0.0
 11
106.594
 21
79.5348
 31
0.0
  0
LINE
  8
0
 62
     0
 10
106.594
 20
79.5348
 30
0.0
 11
107.395
 21
79.5348
 31
0.0
  0
LINE
  8
0
 62
     0
 10
107.395
 20
79.5348
 30
0.0
 11
107.395
 21
73.7348
 31
0.0
  0
LINE
  8
0
 62
     0
 10
107.395
 20
73.7348
 30
0.0
 11
106.594
 21
73.7348
 31
0.0
  0
LINE
  8
0
 62
     0
 10
106.594
 20
73.7348
 30
0.0
 11
106.594
 21
70.6356
 31
0.0
  0
LINE
  8
0
 62
     0
 10
106.594
 20
70.6356
 30
0.0
 11
107.395
 21
70.6356
 31
0.0
  0
LINE
  8
0
 62
     0
 10
107.395
 20
70.6356
 30
0.0
 11
107.395
 21
69.6352
 31
0.0
  0
LINE
  8
0
 62
     0
 10
107.395
 20
69.6352
 30
0.0
 11
121.394
 21
69.6352
 31
0.0
  0
LINE
  8
0
 62
     0
 10
121.394
 20
69.6352
 30
0.0
 11
121.394
 21
70.6356
 31
0.0
  0
LINE
  8
0
 62
     0
 10
121.394
 20
70.6356
 30
0.0
 11
122.195
 21
70.6356
 31
0.0
  0
LINE
  8
0
 62
     0
 10
122.195
 20
70.6356
 30
0.0
 11
122.195
 21
73.7348
 31
0.0
  0
LINE
  8
0
 62
     0
 10
122.195
 20
73.7348
 30
0.0
 11
121.394
 21
73.7348
 31
0.0
  0
LINE
  8
0
 62
     0
 10
121.394
 20
73.7348
 30
0.0
 11
121.394
 21
79.5348
 31
0.0
  0
LINE
  8
0
 62
     0
 10
121.394
 20
79.5348
 30
0.0
 11
122.195
 21
79.5348
 31
0.0
  0
LINE
  8
0
 62
     0
 10
122.195
 20
79.5348
 30
0.0
 11
122.195
 21
82.6354
 31
0.0
  0
LINE
  8
0
 62
     0
 10
122.195
 20
82.6354
 30
0.0
 11
121.394
 21
82.6354
 31
0.0
  0
LINE
  8
0
 62
     0
 10
121.394
 20
82.6354
 30
0.0
 11
121.394
 21
83.6344
 31
0.0
  0
LINE
  8
0
 62
     0
 10
121.394
 20
83.6344
 30
0.0
 11
107.395
 21
83.6344
 31
0.0
  0
LINE
  8
0
 62
     0
 10
88.3447
 20
83.6344
 30
0.0
 11
88.3447
 21
82.6354
 31
0.0
  0
LINE
  8
0
 62
     0
 10
88.3447
 20
82.6354
 30
0.0
 11
87.5439
 21
82.6354
 31
0.0
  0
LINE
  8
0
 62
     0
 10
87.5439
 20
82.6354
 30
0.0
 11
87.5439
 21
79.5348
 31
0.0
  0
LINE
  8
0
 62
     0
 10
87.5439
 20
79.5348
 30
0.0
 11
88.3447
 21
79.5348
 31
0.0
  0
LINE
  8
0
 62
     0
 10
88.3447
 20
79.5348
 30
0.0
 11
88.3447
 21
73.7348
 31
0.0
  0
LINE
  8
0
 62
     0
 10
88.3447
 20
73.7348
 30
0.0
 11
87.5439
 21
73.7348
 31
0.0
  0
LINE
  8
0
 62
     0
 10
87.5439
 20
73.7348
 30
0.0
 11
87.5439
 21
70.6356
 31
0.0
  0
LINE
  8
0
 62
     0
 10
87.5439
 20
70.6356
 30
0.0
 11
88.3447
 21
70.6356
 31
0.0
  0
LINE
  8
0
 62
     0
 10
88.3447
 20
70.6356
 30
0.0
 11
88.3447
 21
69.6352
 31
0.0
  0
LINE
  8
0
 62
     0
 10
88.3447
 20
69.6352
 30
0.0
 11
102.344
 21
69.6352
 31
0.0
  0
LINE
  8
0
 62
     0
 10
102.344
 20
69.6352
 30
0.0
 11
102.344
 21
70.6356
 31
0.0
  0
LINE
  8
0
 62
     0
 10
102.344
 20
70.6356
 30
0.0
 11
103.145
 21
70.6356
 31
0.0
  0
LINE
  8
0
 62
     0
 10
103.145
 20
70.6356
 30
0.0
 11
103.145
 21
73.7348
 31
0.0
  0
LINE
  8
0
 62
     0
 10
103.145
 20
73.7348
 30
0.0
 11
102.344
 21
73.7348
 31
0.0
  0
LINE
  8
0
 62
     0
 10
102.344
 20
73.7348
 30
0.0
 11
102.344
 21
79.5348
 31
0.0
  0
LINE
  8
0
 62
     0
 10
102.344
 20
79.5348
 30
0.0
 11
103.145
 21
79.5348
 31
0.0
  0
LINE
  8
0
 62
     0
 10
103.145
 20
79.5348
 30
0.0
 11
103.145
 21
82.6354
 31
0.0
  0
LINE
  8
0
 62
     0
 10
103.145
 20
82.6354
 30
0.0
 11
102.344
 21
82.6354
 31
0.0
  0
LINE
  8
0
 62
     0
 10
102.344
 20
82.6354
 30
0.0
 11
102.344
 21
83.6344
 31
0.0
  0
LINE
  8
0
 62
     0
 10
102.344
 20
83.6344
 30
0.0
 11
88.3447
 21
83.6344
 31
0.0
  0
LINE
  8
0
 62
     0
 10
69.2947
 20
83.6344
 30
0.0
 11
69.2947
 21
82.6354
 31
0.0
  0
LINE
  8
0
 62
     0
 10
69.2947
 20
82.6354
 30
0.0
 11
68.4939
 21
82.6354
 31
0.0
  0
LINE
  8
0
 62
     0
 10
68.4939
 20
82.6354
 30
0.0
 11
68.4939
 21
79.5348
 31
0.0
  0
LINE
  8
0
 62
     0
 10
68.4939
 20
79.5348
 30
0.0
 11
69.2947
 21
79.5348
 31
0.0
  0
LINE
  8
0
 62
     0
 10
69.2947
 20
79.5348
 30
0.0
 11
69.2947
 21
73.7348
 31
0.0
  0
LINE
  8
0
 62
     0
 10
69.2947
 20
73.7348
 30
0.0
 11
68.4939
 21
73.7348
 31
0.0
  0
LINE
  8
0
 62
     0
 10
68.4939
 20
73.7348
 30
0.0
 11
68.4939
 21
70.6356
 31
0.0
  0
LINE
  8
0
 62
     0
 10
68.4939
 20
70.6356
 30
0.0
 11
69.2947
 21
70.6356
 31
0.0
  0
LINE
  8
0
 62
     0
 10
69.2947
 20
70.6356
 30
0.0
 11
69.2947
 21
69.6352
 31
0.0
  0
LINE
  8
0
 62
     0
 10
69.2947
 20
69.6352
 30
0.0
 11
83.294
 21
69.6352
 31
0.0
  0
LINE
  8
0
 62
     0
 10
83.294
 20
69.6352
 30
0.0
 11
83.294
 21
70.6356
 31
0.0
  0
LINE
  8
0
 62
     0
 10
83.294
 20
70.6356
 30
0.0
 11
84.0948
 21
70.6356
 31
0.0
  0
LINE
  8
0
 62
     0
 10
84.0948
 20
70.6356
 30
0.0
 11
84.0948
 21
73.7348
 31
0.0
  0
LINE
  8
0
 62
     0
 10
84.0948
 20
73.7348
 30
0.0
 11
83.294
 21
73.7348
 31
0.0
  0
LINE
  8
0
 62
     0
 10
83.294
 20
73.7348
 30
0.0
 11
83.294
 21
79.5348
 31
0.0
  0
LINE
  8
0
 62
     0
 10
83.294
 20
79.5348
 30
0.0
 11
84.0948
 21
79.5348
 31
0.0
  0
LINE
  8
0
 62
     0
 10
84.0948
 20
79.5348
 30
0.0
 11
84.0948
 21
82.6354
 31
0.0
  0
LINE
  8
0
 62
     0
 10
84.0948
 20
82.6354
 30
0.0
 11
83.294
 21
82.6354
 31
0.0
  0
LINE
  8
0
 62
     0
 10
83.294
 20
82.6354
 30
0.0
 11
83.294
 21
83.6344
 31
0.0
  0
LINE
  8
0
 62
     0
 10
83.294
 20
83.6344
 30
0.0
 11
69.2947
 21
83.6344
 31
0.0
  0
LINE
  8
0
 62
     0
 10
50.2447
 20
83.6344
 30
0.0
 11
50.2447
 21
82.6354
 31
0.0
  0
LINE
  8
0
 62
     0
 10
50.2447
 20
82.6354
 30
0.0
 11
49.4439
 21
82.6354
 31
0.0
  0
LINE
  8
0
 62
     0
 10
49.4439
 20
82.6354
 30
0.0
 11
49.4439
 21
79.5348
 31
0.0
  0
LINE
  8
0
 62
     0
 10
49.4439
 20
79.5348
 30
0.0
 11
50.2447
 21
79.5348
 31
0.0
  0
LINE
  8
0
 62
     0
 10
50.2447
 20
79.5348
 30
0.0
 11
50.2447
 21
73.7348
 31
0.0
  0
LINE
  8
0
 62
     0
 10
50.2447
 20
73.7348
 30
0.0
 11
49.4439
 21
73.7348
 31
0.0
  0
LINE
  8
0
 62
     0
 10
49.4439
 20
73.7348
 30
0.0
 11
49.4439
 21
70.6356
 31
0.0
  0
LINE
  8
0
 62
     0
 10
49.4439
 20
70.6356
 30
0.0
 11
50.2447
 21
70.6356
 31
0.0
  0
LINE
  8
0
 62
     0
 10
50.2447
 20
70.6356
 30
0.0
 11
50.2447
 21
69.6352
 31
0.0
  0
LINE
  8
0
 62
     0
 10
50.2447
 20
69.6352
 30
0.0
 11
64.244
 21
69.6352
 31
0.0
  0
LINE
  8
0
 62
     0
 10
64.244
 20
69.6352
 30
0.0
 11
64.244
 21
70.6356
 31
0.0
  0
LINE
  8
0
 62
     0
 10
64.244
 20
70.6356
 30
0.0
 11
65.0448
 21
70.6356
 31
0.0
  0
LINE
  8
0
 62
     0
 10
65.0448
 20
70.6356
 30
0.0
 11
65.0448
 21
73.7348
 31
0.0
  0
LINE
  8
0
 62
     0
 10
65.0448
 20
73.7348
 30
0.0
 11
64.244
 21
73.7348
 31
0.0
  0
LINE
  8
0
 62
     0
 10
64.244
 20
73.7348
 30
0.0
 11
64.244
 21
79.5348
 31
0.0
  0
LINE
  8
0
 62
     0
 10
64.244
 20
79.5348
 30
0.0
 11
65.0448
 21
79.5348
 31
0.0
  0
LINE
  8
0
 62
     0
 10
65.0448
 20
79.5348
 30
0.0
 11
65.0448
 21
82.6354
 31
0.0
  0
LINE
  8
0
 62
     0
 10
65.0448
 20
82.6354
 30
0.0
 11
64.244
 21
82.6354
 31
0.0
  0
LINE
  8
0
 62
     0
 10
64.244
 20
82.6354
 30
0.0
 11
64.244
 21
83.6344
 31
0.0
  0
LINE
  8
0
 62
     0
 10
64.244
 20
83.6344
 30
0.0
 11
50.2447
 21
83.6344
 31
0.0
  0
LINE
  8
0
 62
     0
 10
31.1947
 20
83.6344
 30
0.0
 11
31.1947
 21
82.6354
 31
0.0
  0
LINE
  8
0
 62
     0
 10
31.1947
 20
82.6354
 30
0.0
 11
30.394
 21
82.6354
 31
0.0
  0
LINE
  8
0
 62
     0
 10
30.394
 20
82.6354
 30
0.0
 11
30.394
 21
79.5348
 31
0.0
  0
LINE
  8
0
 62
     0
 10
30.394
 20
79.5348
 30
0.0
 11
31.1947
 21
79.5348
 31
0.0
  0
LINE
  8
0
 62
     0
 10
31.1947
 20
79.5348
 30
0.0
 11
31.1947
 21
73.7348
 31
0.0
  0
LINE
  8
0
 62
     0
 10
31.1947
 20
73.7348
 30
0.0
 11
30.394
 21
73.7348
 31
0.0
  0
LINE
  8
0
 62
     0
 10
30.394
 20
73.7348
 30
0.0
 11
30.394
 21
70.6356
 31
0.0
  0
LINE
  8
0
 62
     0
 10
30.394
 20
70.6356
 30
0.0
 11
31.1947
 21
70.6356
 31
0.0
  0
LINE
  8
0
 62
     0
 10
31.1947
 20
70.6356
 30
0.0
 11
31.1947
 21
69.6352
 31
0.0
  0
LINE
  8
0
 62
     0
 10
31.1947
 20
69.6352
 30
0.0
 11
45.194
 21
69.6352
 31
0.0
  0
LINE
  8
0
 62
     0
 10
45.194
 20
69.6352
 30
0.0
 11
45.194
 21
70.6356
 31
0.0
  0
LINE
  8
0
 62
     0
 10
45.194
 20
70.6356
 30
0.0
 11
45.9948
 21
70.6356
 31
0.0
  0
LINE
  8
0
 62
     0
 10
45.9948
 20
70.6356
 30
0.0
 11
45.9948
 21
73.7348
 31
0.0
  0
LINE
  8
0
 62
     0
 10
45.9948
 20
73.7348
 30
0.0
 11
45.194
 21
73.7348
 31
0.0
  0
LINE
  8
0
 62
     0
 10
45.194
 20
73.7348
 30
0.0
 11
45.194
 21
79.5348
 31
0.0
  0
LINE
  8
0
 62
     0
 10
45.194
 20
79.5348
 30
0.0
 11
45.9948
 21
79.5348
 31
0.0
  0
LINE
  8
0
 62
     0
 10
45.9948
 20
79.5348
 30
0.0
 11
45.9948
 21
82.6354
 31
0.0
  0
LINE
  8
0
 62
     0
 10
45.9948
 20
82.6354
 30
0.0
 11
45.194
 21
82.6354
 31
0.0
  0
LINE
  8
0
 62
     0
 10
45.194
 20
82.6354
 30
0.0
 11
45.194
 21
83.6344
 31
0.0
  0
LINE
  8
0
 62
     0
 10
45.194
 20
83.6344
 30
0.0
 11
31.1947
 21
83.6344
 31
0.0
  0
LINE
  8
0
 62
     0
 10
7.38216
 20
83.6344
 30
0.0
 11
7.38216
 21
82.6354
 31
0.0
  0
LINE
  8
0
 62
     0
 10
7.38216
 20
82.6354
 30
0.0
 11
6.58153
 21
82.6354
 31
0.0
  0
LINE
  8
0
 62
     0
 10
6.58153
 20
82.6354
 30
0.0
 11
6.58153
 21
79.5348
 31
0.0
  0
LINE
  8
0
 62
     0
 10
6.58153
 20
79.5348
 30
0.0
 11
7.38216
 21
79.5348
 31
0.0
  0
LINE
  8
0
 62
     0
 10
7.38216
 20
79.5348
 30
0.0
 11
7.38216
 21
73.7348
 31
0.0
  0
LINE
  8
0
 62
     0
 10
7.38216
 20
73.7348
 30
0.0
 11
6.58153
 21
73.7348
 31
0.0
  0
LINE
  8
0
 62
     0
 10
6.58153
 20
73.7348
 30
0.0
 11
6.58153
 21
70.6356
 31
0.0
  0
LINE
  8
0
 62
     0
 10
6.58153
 20
70.6356
 30
0.0
 11
7.38216
 21
70.6356
 31
0.0
  0
LINE
  8
0
 62
     0
 10
7.38216
 20
70.6356
 30
0.0
 11
7.38216
 21
69.6352
 31
0.0
  0
LINE
  8
0
 62
     0
 10
7.38216
 20
69.6352
 30
0.0
 11
21.3817
 21
69.6352
 31
0.0
  0
LINE
  8
0
 62
     0
 10
21.3817
 20
69.6352
 30
0.0
 11
21.3817
 21
70.6356
 31
0.0
  0
LINE
  8
0
 62
     0
 10
21.3817
 20
70.6356
 30
0.0
 11
22.1809
 21
70.6356
 31
0.0
  0
LINE
  8
0
 62
     0
 10
22.1809
 20
70.6356
 30
0.0
 11
22.1809
 21
73.7348
 31
0.0
  0
LINE
  8
0
 62
     0
 10
22.1809
 20
73.7348
 30
0.0
 11
21.3817
 21
73.7348
 31
0.0
  0
LINE
  8
0
 62
     0
 10
21.3817
 20
73.7348
 30
0.0
 11
21.3817
 21
79.5348
 31
0.0
  0
LINE
  8
0
 62
     0
 10
21.3817
 20
79.5348
 30
0.0
 11
22.1809
 21
79.5348
 31
0.0
  0
LINE
  8
0
 62
     0
 10
22.1809
 20
79.5348
 30
0.0
 11
22.1809
 21
82.6354
 31
0.0
  0
LINE
  8
0
 62
     0
 10
22.1809
 20
82.6354
 30
0.0
 11
21.3817
 21
82.6354
 31
0.0
  0
LINE
  8
0
 62
     0
 10
21.3817
 20
82.6354
 30
0.0
 11
21.3817
 21
83.6344
 31
0.0
  0
LINE
  8
0
 62
     0
 10
21.3817
 20
83.6344
 30
0.0
 11
7.38216
 21
83.6344
 31
0.0
  0
LINE
  8
0
 62
     0
 10
135.97
 20
102.684
 30
0.0
 11
135.97
 21
101.685
 31
0.0
  0
LINE
  8
0
 62
     0
 10
135.97
 20
101.685
 30
0.0
 11
135.169
 21
101.685
 31
0.0
  0
LINE
  8
0
 62
     0
 10
135.169
 20
101.685
 30
0.0
 11
135.169
 21
98.5848
 31
0.0
  0
LINE
  8
0
 62
     0
 10
135.169
 20
98.5848
 30
0.0
 11
135.97
 21
98.5848
 31
0.0
  0
LINE
  8
0
 62
     0
 10
135.97
 20
98.5848
 30
0.0
 11
135.97
 21
92.7848
 31
0.0
  0
LINE
  8
0
 62
     0
 10
135.97
 20
92.7848
 30
0.0
 11
135.169
 21
92.7848
 31
0.0
  0
LINE
  8
0
 62
     0
 10
135.169
 20
92.7848
 30
0.0
 11
135.169
 21
89.6856
 31
0.0
  0
LINE
  8
0
 62
     0
 10
135.169
 20
89.6856
 30
0.0
 11
135.97
 21
89.6856
 31
0.0
  0
LINE
  8
0
 62
     0
 10
135.97
 20
89.6856
 30
0.0
 11
135.97
 21
88.6852
 31
0.0
  0
LINE
  8
0
 62
     0
 10
135.97
 20
88.6852
 30
0.0
 11
149.969
 21
88.6852
 31
0.0
  0
LINE
  8
0
 62
     0
 10
149.969
 20
88.6852
 30
0.0
 11
149.969
 21
89.6856
 31
0.0
  0
LINE
  8
0
 62
     0
 10
149.969
 20
89.6856
 30
0.0
 11
150.77
 21
89.6856
 31
0.0
  0
LINE
  8
0
 62
     0
 10
150.77
 20
89.6856
 30
0.0
 11
150.77
 21
92.7848
 31
0.0
  0
LINE
  8
0
 62
     0
 10
150.77
 20
92.7848
 30
0.0
 11
149.969
 21
92.7848
 31
0.0
  0
LINE
  8
0
 62
     0
 10
149.969
 20
92.7848
 30
0.0
 11
149.969
 21
98.5848
 31
0.0
  0
LINE
  8
0
 62
     0
 10
149.969
 20
98.5848
 30
0.0
 11
150.77
 21
98.5848
 31
0.0
  0
LINE
  8
0
 62
     0
 10
150.77
 20
98.5848
 30
0.0
 11
150.77
 21
101.685
 31
0.0
  0
LINE
  8
0
 62
     0
 10
150.77
 20
101.685
 30
0.0
 11
149.969
 21
101.685
 31
0.0
  0
LINE
  8
0
 62
     0
 10
149.969
 20
101.685
 30
0.0
 11
149.969
 21
102.684
 31
0.0
  0
LINE
  8
0
 62
     0
 10
149.969
 20
102.684
 30
0.0
 11
135.97
 21
102.684
 31
0.0
  0
LINE
  8
0
 62
     0
 10
116.918
 20
102.684
 30
0.0
 11
116.918
 21
101.685
 31
0.0
  0
LINE
  8
0
 62
     0
 10
116.918
 20
101.685
 30
0.0
 11
116.119
 21
101.685
 31
0.0
  0
LINE
  8
0
 62
     0
 10
116.119
 20
101.685
 30
0.0
 11
116.119
 21
98.5848
 31
0.0
  0
LINE
  8
0
 62
     0
 10
116.119
 20
98.5848
 30
0.0
 11
116.918
 21
98.5848
 31
0.0
  0
LINE
  8
0
 62
     0
 10
116.918
 20
98.5848
 30
0.0
 11
116.918
 21
92.7848
 31
0.0
  0
LINE
  8
0
 62
     0
 10
116.918
 20
92.7848
 30
0.0
 11
116.119
 21
92.7848
 31
0.0
  0
LINE
  8
0
 62
     0
 10
116.119
 20
92.7848
 30
0.0
 11
116.119
 21
89.6856
 31
0.0
  0
LINE
  8
0
 62
     0
 10
116.119
 20
89.6856
 30
0.0
 11
116.918
 21
89.6856
 31
0.0
  0
LINE
  8
0
 62
     0
 10
116.918
 20
89.6856
 30
0.0
 11
116.918
 21
88.6852
 31
0.0
  0
LINE
  8
0
 62
     0
 10
116.918
 20
88.6852
 30
0.0
 11
130.919
 21
88.6852
 31
0.0
  0
LINE
  8
0
 62
     0
 10
130.919
 20
88.6852
 30
0.0
 11
130.919
 21
89.6856
 31
0.0
  0
LINE
  8
0
 62
     0
 10
130.919
 20
89.6856
 30
0.0
 11
131.72
 21
89.6856
 31
0.0
  0
LINE
  8
0
 62
     0
 10
131.72
 20
89.6856
 30
0.0
 11
131.72
 21
92.7848
 31
0.0
  0
LINE
  8
0
 62
     0
 10
131.72
 20
92.7848
 30
0.0
 11
130.919
 21
92.7848
 31
0.0
  0
LINE
  8
0
 62
     0
 10
130.919
 20
92.7848
 30
0.0
 11
130.919
 21
98.5848
 31
0.0
  0
LINE
  8
0
 62
     0
 10
130.919
 20
98.5848
 30
0.0
 11
131.72
 21
98.5848
 31
0.0
  0
LINE
  8
0
 62
     0
 10
131.72
 20
98.5848
 30
0.0
 11
131.72
 21
101.685
 31
0.0
  0
LINE
  8
0
 62
     0
 10
131.72
 20
101.685
 30
0.0
 11
130.919
 21
101.685
 31
0.0
  0
LINE
  8
0
 62
     0
 10
130.919
 20
101.685
 30
0.0
 11
130.919
 21
102.684
 31
0.0
  0
LINE
  8
0
 62
     0
 10
130.919
 20
102.684
 30
0.0
 11
116.918
 21
102.684
 31
0.0
  0
LINE
  8
0
 62
     0
 10
97.8683
 20
102.684
 30
0.0
 11
97.8683
 21
101.685
 31
0.0
  0
LINE
  8
0
 62
     0
 10
97.8683
 20
101.685
 30
0.0
 11
97.0689
 21
101.685
 31
0.0
  0
LINE
  8
0
 62
     0
 10
97.0689
 20
101.685
 30
0.0
 11
97.0689
 21
98.5848
 31
0.0
  0
LINE
  8
0
 62
     0
 10
97.0689
 20
98.5848
 30
0.0
 11
97.8683
 21
98.5848
 31
0.0
  0
LINE
  8
0
 62
     0
 10
97.8683
 20
98.5848
 30
0.0
 11
97.8683
 21
92.7848
 31
0.0
  0
LINE
  8
0
 62
     0
 10
97.8683
 20
92.7848
 30
0.0
 11
97.0689
 21
92.7848
 31
0.0
  0
LINE
  8
0
 62
     0
 10
97.0689
 20
92.7848
 30
0.0
 11
97.0689
 21
89.6856
 31
0.0
  0
LINE
  8
0
 62
     0
 10
97.0689
 20
89.6856
 30
0.0
 11
97.8683
 21
89.6856
 31
0.0
  0
LINE
  8
0
 62
     0
 10
97.8683
 20
89.6856
 30
0.0
 11
97.8683
 21
88.6852
 31
0.0
  0
LINE
  8
0
 62
     0
 10
97.8683
 20
88.6852
 30
0.0
 11
111.869
 21
88.6852
 31
0.0
  0
LINE
  8
0
 62
     0
 10
111.869
 20
88.6852
 30
0.0
 11
111.869
 21
89.6856
 31
0.0
  0
LINE
  8
0
 62
     0
 10
111.869
 20
89.6856
 30
0.0
 11
112.668
 21
89.6856
 31
0.0
  0
LINE
  8
0
 62
     0
 10
112.668
 20
89.6856
 30
0.0
 11
112.668
 21
92.7848
 31
0.0
  0
LINE
  8
0
 62
     0
 10
112.668
 20
92.7848
 30
0.0
 11
111.869
 21
92.7848
 31
0.0
  0
LINE
  8
0
 62
     0
 10
111.869
 20
92.7848
 30
0.0
 11
111.869
 21
98.5848
 31
0.0
  0
LINE
  8
0
 62
     0
 10
111.869
 20
98.5848
 30
0.0
 11
112.668
 21
98.5848
 31
0.0
  0
LINE
  8
0
 62
     0
 10
112.668
 20
98.5848
 30
0.0
 11
112.668
 21
101.685
 31
0.0
  0
LINE
  8
0
 62
     0
 10
112.668
 20
101.685
 30
0.0
 11
111.869
 21
101.685
 31
0.0
  0
LINE
  8
0
 62
     0
 10
111.869
 20
101.685
 30
0.0
 11
111.869
 21
102.684
 31
0.0
  0
LINE
  8
0
 62
     0
 10
111.869
 20
102.684
 30
0.0
 11
97.8683
 21
102.684
 31
0.0
  0
LINE
  8
0
 62
     0
 10
78.8197
 20
102.684
 30
0.0
 11
78.8197
 21
101.685
 31
0.0
  0
LINE
  8
0
 62
     0
 10
78.8197
 20
101.685
 30
0.0
 11
78.0189
 21
101.685
 31
0.0
  0
LINE
  8
0
 62
     0
 10
78.0189
 20
101.685
 30
0.0
 11
78.0189
 21
98.5848
 31
0.0
  0
LINE
  8
0
 62
     0
 10
78.0189
 20
98.5848
 30
0.0
 11
78.8197
 21
98.5848
 31
0.0
  0
LINE
  8
0
 62
     0
 10
78.8197
 20
98.5848
 30
0.0
 11
78.8197
 21
92.7848
 31
0.0
  0
LINE
  8
0
 62
     0
 10
78.8197
 20
92.7848
 30
0.0
 11
78.0189
 21
92.7848
 31
0.0
  0
LINE
  8
0
 62
     0
 10
78.0189
 20
92.7848
 30
0.0
 11
78.0189
 21
89.6856
 31
0.0
  0
LINE
  8
0
 62
     0
 10
78.0189
 20
89.6856
 30
0.0
 11
78.8197
 21
89.6856
 31
0.0
  0
LINE
  8
0
 62
     0
 10
78.8197
 20
89.6856
 30
0.0
 11
78.8197
 21
88.6852
 31
0.0
  0
LINE
  8
0
 62
     0
 10
78.8197
 20
88.6852
 30
0.0
 11
92.819
 21
88.6852
 31
0.0
  0
LINE
  8
0
 62
     0
 10
92.819
 20
88.6852
 30
0.0
 11
92.819
 21
89.6856
 31
0.0
  0
LINE
  8
0
 62
     0
 10
92.819
 20
89.6856
 30
0.0
 11
93.6184
 21
89.6856
 31
0.0
  0
LINE
  8
0
 62
     0
 10
93.6184
 20
89.6856
 30
0.0
 11
93.6184
 21
92.7848
 31
0.0
  0
LINE
  8
0
 62
     0
 10
93.6184
 20
92.7848
 30
0.0
 11
92.819
 21
92.7848
 31
0.0
  0
LINE
  8
0
 62
     0
 10
92.819
 20
92.7848
 30
0.0
 11
92.819
 21
98.5848
 31
0.0
  0
LINE
  8
0
 62
     0
 10
92.819
 20
98.5848
 30
0.0
 11
93.6184
 21
98.5848
 31
0.0
  0
LINE
  8
0
 62
     0
 10
93.6184
 20
98.5848
 30
0.0
 11
93.6184
 21
101.685
 31
0.0
  0
LINE
  8
0
 62
     0
 10
93.6184
 20
101.685
 30
0.0
 11
92.819
 21
101.685
 31
0.0
  0
LINE
  8
0
 62
     0
 10
92.819
 20
101.685
 30
0.0
 11
92.819
 21
102.684
 31
0.0
  0
LINE
  8
0
 62
     0
 10
92.819
 20
102.684
 30
0.0
 11
78.8197
 21
102.684
 31
0.0
  0
LINE
  8
0
 62
     0
 10
59.7697
 20
102.684
 30
0.0
 11
59.7697
 21
101.685
 31
0.0
  0
LINE
  8
0
 62
     0
 10
59.7697
 20
101.685
 30
0.0
 11
58.9689
 21
101.685
 31
0.0
  0
LINE
  8
0
 62
     0
 10
58.9689
 20
101.685
 30
0.0
 11
58.9689
 21
98.5848
 31
0.0
  0
LINE
  8
0
 62
     0
 10
58.9689
 20
98.5848
 30
0.0
 11
59.7697
 21
98.5848
 31
0.0
  0
LINE
  8
0
 62
     0
 10
59.7697
 20
98.5848
 30
0.0
 11
59.7697
 21
92.7848
 31
0.0
  0
LINE
  8
0
 62
     0
 10
59.7697
 20
92.7848
 30
0.0
 11
58.9689
 21
92.7848
 31
0.0
  0
LINE
  8
0
 62
     0
 10
58.9689
 20
92.7848
 30
0.0
 11
58.9689
 21
89.6856
 31
0.0
  0
LINE
  8
0
 62
     0
 10
58.9689
 20
89.6856
 30
0.0
 11
59.7697
 21
89.6856
 31
0.0
  0
LINE
  8
0
 62
     0
 10
59.7697
 20
89.6856
 30
0.0
 11
59.7697
 21
88.6852
 31
0.0
  0
LINE
  8
0
 62
     0
 10
59.7697
 20
88.6852
 30
0.0
 11
73.769
 21
88.6852
 31
0.0
  0
LINE
  8
0
 62
     0
 10
73.769
 20
88.6852
 30
0.0
 11
73.769
 21
89.6856
 31
0.0
  0
LINE
  8
0
 62
     0
 10
73.769
 20
89.6856
 30
0.0
 11
74.5698
 21
89.6856
 31
0.0
  0
LINE
  8
0
 62
     0
 10
74.5698
 20
89.6856
 30
0.0
 11
74.5698
 21
92.7848
 31
0.0
  0
LINE
  8
0
 62
     0
 10
74.5698
 20
92.7848
 30
0.0
 11
73.769
 21
92.7848
 31
0.0
  0
LINE
  8
0
 62
     0
 10
73.769
 20
92.7848
 30
0.0
 11
73.769
 21
98.5848
 31
0.0
  0
LINE
  8
0
 62
     0
 10
73.769
 20
98.5848
 30
0.0
 11
74.5698
 21
98.5848
 31
0.0
  0
LINE
  8
0
 62
     0
 10
74.5698
 20
98.5848
 30
0.0
 11
74.5698
 21
101.685
 31
0.0
  0
LINE
  8
0
 62
     0
 10
74.5698
 20
101.685
 30
0.0
 11
73.769
 21
101.685
 31
0.0
  0
LINE
  8
0
 62
     0
 10
73.769
 20
101.685
 30
0.0
 11
73.769
 21
102.684
 31
0.0
  0
LINE
  8
0
 62
     0
 10
73.769
 20
102.684
 30
0.0
 11
59.7697
 21
102.684
 31
0.0
  0
LINE
  8
0
 62
     0
 10
40.7197
 20
102.684
 30
0.0
 11
40.7197
 21
101.685
 31
0.0
  0
LINE
  8
0
 62
     0
 10
40.7197
 20
101.685
 30
0.0
 11
39.9189
 21
101.685
 31
0.0
  0
LINE
  8
0
 62
     0
 10
39.9189
 20
101.685
 30
0.0
 11
39.9189
 21
98.5848
 31
0.0
  0
LINE
  8
0
 62
     0
 10
39.9189
 20
98.5848
 30
0.0
 11
40.7197
 21
98.5848
 31
0.0
  0
LINE
  8
0
 62
     0
 10
40.7197
 20
98.5848
 30
0.0
 11
40.7197
 21
92.7848
 31
0.0
  0
LINE
  8
0
 62
     0
 10
40.7197
 20
92.7848
 30
0.0
 11
39.9189
 21
92.7848
 31
0.0
  0
LINE
  8
0
 62
     0
 10
39.9189
 20
92.7848
 30
0.0
 11
39.9189
 21
89.6856
 31
0.0
  0
LINE
  8
0
 62
     0
 10
39.9189
 20
89.6856
 30
0.0
 11
40.7197
 21
89.6856
 31
0.0
  0
LINE
  8
0
 62
     0
 10
40.7197
 20
89.6856
 30
0.0
 11
40.7197
 21
88.6852
 31
0.0
  0
LINE
  8
0
 62
     0
 10
40.7197
 20
88.6852
 30
0.0
 11
54.719
 21
88.6852
 31
0.0
  0
LINE
  8
0
 62
     0
 10
54.719
 20
88.6852
 30
0.0
 11
54.719
 21
89.6856
 31
0.0
  0
LINE
  8
0
 62
     0
 10
54.719
 20
89.6856
 30
0.0
 11
55.5198
 21
89.6856
 31
0.0
  0
LINE
  8
0
 62
     0
 10
55.5198
 20
89.6856
 30
0.0
 11
55.5198
 21
92.7848
 31
0.0
  0
LINE
  8
0
 62
     0
 10
55.5198
 20
92.7848
 30
0.0
 11
54.719
 21
92.7848
 31
0.0
  0
LINE
  8
0
 62
     0
 10
54.719
 20
92.7848
 30
0.0
 11
54.719
 21
98.5848
 31
0.0
  0
LINE
  8
0
 62
     0
 10
54.719
 20
98.5848
 30
0.0
 11
55.5198
 21
98.5848
 31
0.0
  0
LINE
  8
0
 62
     0
 10
55.5198
 20
98.5848
 30
0.0
 11
55.5198
 21
101.685
 31
0.0
  0
LINE
  8
0
 62
     0
 10
55.5198
 20
101.685
 30
0.0
 11
54.719
 21
101.685
 31
0.0
  0
LINE
  8
0
 62
     0
 10
54.719
 20
101.685
 30
0.0
 11
54.719
 21
102.684
 31
0.0
  0
LINE
  8
0
 62
     0
 10
54.719
 20
102.684
 30
0.0
 11
40.7197
 21
102.684
 31
0.0
  0
LINE
  8
0
 62
     0
 10
126.445
 20
126.497
 30
0.0
 11
126.445
 21
125.496
 31
0.0
  0
LINE
  8
0
 62
     0
 10
126.445
 20
125.496
 30
0.0
 11
125.644
 21
125.496
 31
0.0
  0
LINE
  8
0
 62
     0
 10
125.644
 20
125.496
 30
0.0
 11
125.644
 21
122.397
 31
0.0
  0
LINE
  8
0
 62
     0
 10
125.644
 20
122.397
 30
0.0
 11
126.445
 21
122.397
 31
0.0
  0
LINE
  8
0
 62
     0
 10
126.445
 20
122.397
 30
0.0
 11
126.445
 21
116.597
 31
0.0
  0
LINE
  8
0
 62
     0
 10
126.445
 20
116.597
 30
0.0
 11
125.644
 21
116.597
 31
0.0
  0
LINE
  8
0
 62
     0
 10
125.644
 20
116.597
 30
0.0
 11
125.644
 21
113.497
 31
0.0
  0
LINE
  8
0
 62
     0
 10
125.644
 20
113.497
 30
0.0
 11
126.445
 21
113.497
 31
0.0
  0
LINE
  8
0
 62
     0
 10
126.445
 20
113.497
 30
0.0
 11
126.445
 21
112.498
 31
0.0
  0
LINE
  8
0
 62
     0
 10
126.445
 20
112.498
 30
0.0
 11
140.444
 21
112.498
 31
0.0
  0
LINE
  8
0
 62
     0
 10
140.444
 20
112.498
 30
0.0
 11
140.444
 21
113.497
 31
0.0
  0
LINE
  8
0
 62
     0
 10
140.444
 20
113.497
 30
0.0
 11
141.245
 21
113.497
 31
0.0
  0
LINE
  8
0
 62
     0
 10
141.245
 20
113.497
 30
0.0
 11
141.245
 21
116.597
 31
0.0
  0
LINE
  8
0
 62
     0
 10
141.245
 20
116.597
 30
0.0
 11
140.444
 21
116.597
 31
0.0
  0
LINE
  8
0
 62
     0
 10
140.444
 20
116.597
 30
0.0
 11
140.444
 21
122.397
 31
0.0
  0
LINE
  8
0
 62
     0
 10
140.444
 20
122.397
 30
0.0
 11
141.245
 21
122.397
 31
0.0
  0
LINE
  8
0
 62
     0
 10
141.245
 20
122.397
 30
0.0
 11
141.245
 21
125.496
 31
0.0
  0
LINE
  8
0
 62
     0
 10
141.245
 20
125.496
 30
0.0
 11
140.444
 21
125.496
 31
0.0
  0
LINE
  8
0
 62
     0
 10
140.444
 20
125.496
 30
0.0
 11
140.444
 21
126.497
 31
0.0
  0
LINE
  8
0
 62
     0
 10
140.444
 20
126.497
 30
0.0
 11
126.445
 21
126.497
 31
0.0
  0
LINE
  8
0
 62
     0
 10
107.395
 20
126.497
 30
0.0
 11
107.395
 21
125.496
 31
0.0
  0
LINE
  8
0
 62
     0
 10
107.395
 20
125.496
 30
0.0
 11
106.594
 21
125.496
 31
0.0
  0
LINE
  8
0
 62
     0
 10
106.594
 20
125.496
 30
0.0
 11
106.594
 21
122.397
 31
0.0
  0
LINE
  8
0
 62
     0
 10
106.594
 20
122.397
 30
0.0
 11
107.395
 21
122.397
 31
0.0
  0
LINE
  8
0
 62
     0
 10
107.395
 20
122.397
 30
0.0
 11
107.395
 21
116.597
 31
0.0
  0
LINE
  8
0
 62
     0
 10
107.395
 20
116.597
 30
0.0
 11
106.594
 21
116.597
 31
0.0
  0
LINE
  8
0
 62
     0
 10
106.594
 20
116.597
 30
0.0
 11
106.594
 21
113.497
 31
0.0
  0
LINE
  8
0
 62
     0
 10
106.594
 20
113.497
 30
0.0
 11
107.395
 21
113.497
 31
0.0
  0
LINE
  8
0
 62
     0
 10
107.395
 20
113.497
 30
0.0
 11
107.395
 21
112.498
 31
0.0
  0
LINE
  8
0
 62
     0
 10
107.395
 20
112.498
 30
0.0
 11
121.394
 21
112.498
 31
0.0
  0
LINE
  8
0
 62
     0
 10
121.394
 20
112.498
 30
0.0
 11
121.394
 21
113.497
 31
0.0
  0
LINE
  8
0
 62
     0
 10
121.394
 20
113.497
 30
0.0
 11
122.195
 21
113.497
 31
0.0
  0
LINE
  8
0
 62
     0
 10
122.195
 20
113.497
 30
0.0
 11
122.195
 21
116.597
 31
0.0
  0
LINE
  8
0
 62
     0
 10
122.195
 20
116.597
 30
0.0
 11
121.394
 21
116.597
 31
0.0
  0
LINE
  8
0
 62
     0
 10
121.394
 20
116.597
 30
0.0
 11
121.394
 21
122.397
 31
0.0
  0
LINE
  8
0
 62
     0
 10
121.394
 20
122.397
 30
0.0
 11
122.195
 21
122.397
 31
0.0
  0
LINE
  8
0
 62
     0
 10
122.195
 20
122.397
 30
0.0
 11
122.195
 21
125.496
 31
0.0
  0
LINE
  8
0
 62
     0
 10
122.195
 20
125.496
 30
0.0
 11
121.394
 21
125.496
 31
0.0
  0
LINE
  8
0
 62
     0
 10
121.394
 20
125.496
 30
0.0
 11
121.394
 21
126.497
 31
0.0
  0
LINE
  8
0
 62
     0
 10
121.394
 20
126.497
 30
0.0
 11
107.395
 21
126.497
 31
0.0
  0
LINE
  8
0
 62
     0
 10
88.3447
 20
126.497
 30
0.0
 11
88.3447
 21
125.496
 31
0.0
  0
LINE
  8
0
 62
     0
 10
88.3447
 20
125.496
 30
0.0
 11
87.5439
 21
125.496
 31
0.0
  0
LINE
  8
0
 62
     0
 10
87.5439
 20
125.496
 30
0.0
 11
87.5439
 21
122.397
 31
0.0
  0
LINE
  8
0
 62
     0
 10
87.5439
 20
122.397
 30
0.0
 11
88.3447
 21
122.397
 31
0.0
  0
LINE
  8
0
 62
     0
 10
88.3447
 20
122.397
 30
0.0
 11
88.3447
 21
116.597
 31
0.0
  0
LINE
  8
0
 62
     0
 10
88.3447
 20
116.597
 30
0.0
 11
87.5439
 21
116.597
 31
0.0
  0
LINE
  8
0
 62
     0
 10
87.5439
 20
116.597
 30
0.0
 11
87.5439
 21
113.497
 31
0.0
  0
LINE
  8
0
 62
     0
 10
87.5439
 20
113.497
 30
0.0
 11
88.3447
 21
113.497
 31
0.0
  0
LINE
  8
0
 62
     0
 10
88.3447
 20
113.497
 30
0.0
 11
88.3447
 21
112.498
 31
0.0
  0
LINE
  8
0
 62
     0
 10
88.3447
 20
112.498
 30
0.0
 11
102.344
 21
112.498
 31
0.0
  0
LINE
  8
0
 62
     0
 10
102.344
 20
112.498
 30
0.0
 11
102.344
 21
113.497
 31
0.0
  0
LINE
  8
0
 62
     0
 10
102.344
 20
113.497
 30
0.0
 11
103.145
 21
113.497
 31
0.0
  0
LINE
  8
0
 62
     0
 10
103.145
 20
113.497
 30
0.0
 11
103.145
 21
116.597
 31
0.0
  0
LINE
  8
0
 62
     0
 10
103.145
 20
116.597
 30
0.0
 11
102.344
 21
116.597
 31
0.0
  0
LINE
  8
0
 62
     0
 10
102.344
 20
116.597
 30
0.0
 11
102.344
 21
122.397
 31
0.0
  0
LINE
  8
0
 62
     0
 10
102.344
 20
122.397
 30
0.0
 11
103.145
 21
122.397
 31
0.0
  0
LINE
  8
0
 62
     0
 10
103.145
 20
122.397
 30
0.0
 11
103.145
 21
125.496
 31
0.0
  0
LINE
  8
0
 62
     0
 10
103.145
 20
125.496
 30
0.0
 11
102.344
 21
125.496
 31
0.0
  0
LINE
  8
0
 62
     0
 10
102.344
 20
125.496
 30
0.0
 11
102.344
 21
126.497
 31
0.0
  0
LINE
  8
0
 62
     0
 10
102.344
 20
126.497
 30
0.0
 11
88.3447
 21
126.497
 31
0.0
  0
LINE
  8
0
 62
     0
 10
69.2947
 20
126.497
 30
0.0
 11
69.2947
 21
125.496
 31
0.0
  0
LINE
  8
0
 62
     0
 10
69.2947
 20
125.496
 30
0.0
 11
68.4939
 21
125.496
 31
0.0
  0
LINE
  8
0
 62
     0
 10
68.4939
 20
125.496
 30
0.0
 11
68.4939
 21
122.397
 31
0.0
  0
LINE
  8
0
 62
     0
 10
68.4939
 20
122.397
 30
0.0
 11
69.2947
 21
122.397
 31
0.0
  0
LINE
  8
0
 62
     0
 10
69.2947
 20
122.397
 30
0.0
 11
69.2947
 21
116.597
 31
0.0
  0
LINE
  8
0
 62
     0
 10
69.2947
 20
116.597
 30
0.0
 11
68.4939
 21
116.597
 31
0.0
  0
LINE
  8
0
 62
     0
 10
68.4939
 20
116.597
 30
0.0
 11
68.4939
 21
113.497
 31
0.0
  0
LINE
  8
0
 62
     0
 10
68.4939
 20
113.497
 30
0.0
 11
69.2947
 21
113.497
 31
0.0
  0
LINE
  8
0
 62
     0
 10
69.2947
 20
113.497
 30
0.0
 11
69.2947
 21
112.498
 31
0.0
  0
LINE
  8
0
 62
     0
 10
69.2947
 20
112.498
 30
0.0
 11
83.294
 21
112.498
 31
0.0
  0
LINE
  8
0
 62
     0
 10
83.294
 20
112.498
 30
0.0
 11
83.294
 21
113.497
 31
0.0
  0
LINE
  8
0
 62
     0
 10
83.294
 20
113.497
 30
0.0
 11
84.0948
 21
113.497
 31
0.0
  0
LINE
  8
0
 62
     0
 10
84.0948
 20
113.497
 30
0.0
 11
84.0948
 21
116.597
 31
0.0
  0
LINE
  8
0
 62
     0
 10
84.0948
 20
116.597
 30
0.0
 11
83.294
 21
116.597
 31
0.0
  0
LINE
  8
0
 62
     0
 10
83.294
 20
116.597
 30
0.0
 11
83.294
 21
122.397
 31
0.0
  0
LINE
  8
0
 62
     0
 10
83.294
 20
122.397
 30
0.0
 11
84.0948
 21
122.397
 31
0.0
  0
LINE
  8
0
 62
     0
 10
84.0948
 20
122.397
 30
0.0
 11
84.0948
 21
125.496
 31
0.0
  0
LINE
  8
0
 62
     0
 10
84.0948
 20
125.496
 30
0.0
 11
83.294
 21
125.496
 31
0.0
  0
LINE
  8
0
 62
     0
 10
83.294
 20
125.496
 30
0.0
 11
83.294
 21
126.497
 31
0.0
  0
LINE
  8
0
 62
     0
 10
83.294
 20
126.497
 30
0.0
 11
69.2947
 21
126.497
 31
0.0
  0
LINE
  8
0
 62
     0
 10
40.7197
 20
126.497
 30
0.0
 11
40.7197
 21
125.496
 31
0.0
  0
LINE
  8
0
 62
     0
 10
40.7197
 20
125.496
 30
0.0
 11
39.9189
 21
125.496
 31
0.0
  0
LINE
  8
0
 62
     0
 10
39.9189
 20
125.496
 30
0.0
 11
39.9189
 21
122.397
 31
0.0
  0
LINE
  8
0
 62
     0
 10
39.9189
 20
122.397
 30
0.0
 11
40.7197
 21
122.397
 31
0.0
  0
LINE
  8
0
 62
     0
 10
40.7197
 20
122.397
 30
0.0
 11
40.7197
 21
116.597
 31
0.0
  0
LINE
  8
0
 62
     0
 10
40.7197
 20
116.597
 30
0.0
 11
39.9189
 21
116.597
 31
0.0
  0
LINE
  8
0
 62
     0
 10
39.9189
 20
116.597
 30
0.0
 11
39.9189
 21
113.497
 31
0.0
  0
LINE
  8
0
 62
     0
 10
39.9189
 20
113.497
 30
0.0
 11
40.7197
 21
113.497
 31
0.0
  0
LINE
  8
0
 62
     0
 10
40.7197
 20
113.497
 30
0.0
 11
40.7197
 21
112.498
 31
0.0
  0
LINE
  8
0
 62
     0
 10
40.7197
 20
112.498
 30
0.0
 11
54.719
 21
112.498
 31
0.0
  0
LINE
  8
0
 62
     0
 10
54.719
 20
112.498
 30
0.0
 11
54.719
 21
113.497
 31
0.0
  0
LINE
  8
0
 62
     0
 10
54.719
 20
113.497
 30
0.0
 11
55.5198
 21
113.497
 31
0.0
  0
LINE
  8
0
 62
     0
 10
55.5198
 20
113.497
 30
0.0
 11
55.5198
 21
116.597
 31
0.0
  0
LINE
  8
0
 62
     0
 10
55.5198
 20
116.597
 30
0.0
 11
54.719
 21
116.597
 31
0.0
  0
LINE
  8
0
 62
     0
 10
54.719
 20
116.597
 30
0.0
 11
54.719
 21
122.397
 31
0.0
  0
LINE
  8
0
 62
     0
 10
54.719
 20
122.397
 30
0.0
 11
55.5198
 21
122.397
 31
0.0
  0
LINE
  8
0
 62
     0
 10
55.5198
 20
122.397
 30
0.0
 11
55.5198
 21
125.496
 31
0.0
  0
LINE
  8
0
 62
     0
 10
55.5198
 20
125.496
 30
0.0
 11
54.719
 21
125.496
 31
0.0
  0
LINE
  8
0
 62
     0
 10
54.719
 20
125.496
 30
0.0
 11
54.719
 21
126.497
 31
0.0
  0
LINE
  8
0
 62
     0
 10
54.719
 20
126.497
 30
0.0
 11
40.7197
 21
126.497
 31
0.0
  0
LINE
  8
0
 62
     0
 10
21.6697
 20
126.497
 30
0.0
 11
21.6697
 21
125.496
 31
0.0
  0
LINE
  8
0
 62
     0
 10
21.6697
 20
125.496
 30
0.0
 11
20.869
 21
125.496
 31
0.0
  0
LINE
  8
0
 62
     0
 10
20.869
 20
125.496
 30
0.0
 11
20.869
 21
122.397
 31
0.0
  0
LINE
  8
0
 62
     0
 10
20.869
 20
122.397
 30
0.0
 11
21.6697
 21
122.397
 31
0.0
  0
LINE
  8
0
 62
     0
 10
21.6697
 20
122.397
 30
0.0
 11
21.6697
 21
116.597
 31
0.0
  0
LINE
  8
0
 62
     0
 10
21.6697
 20
116.597
 30
0.0
 11
20.869
 21
116.597
 31
0.0
  0
LINE
  8
0
 62
     0
 10
20.869
 20
116.597
 30
0.0
 11
20.869
 21
113.497
 31
0.0
  0
LINE
  8
0
 62
     0
 10
20.869
 20
113.497
 30
0.0
 11
21.6697
 21
113.497
 31
0.0
  0
LINE
  8
0
 62
     0
 10
21.6697
 20
113.497
 30
0.0
 11
21.6697
 21
112.498
 31
0.0
  0
LINE
  8
0
 62
     0
 10
21.6697
 20
112.498
 30
0.0
 11
35.669
 21
112.498
 31
0.0
  0
LINE
  8
0
 62
     0
 10
35.669
 20
112.498
 30
0.0
 11
35.669
 21
113.497
 31
0.0
  0
LINE
  8
0
 62
     0
 10
35.669
 20
113.497
 30
0.0
 11
36.4698
 21
113.497
 31
0.0
  0
LINE
  8
0
 62
     0
 10
36.4698
 20
113.497
 30
0.0
 11
36.4698
 21
116.597
 31
0.0
  0
LINE
  8
0
 62
     0
 10
36.4698
 20
116.597
 30
0.0
 11
35.669
 21
116.597
 31
0.0
  0
LINE
  8
0
 62
     0
 10
35.669
 20
116.597
 30
0.0
 11
35.669
 21
122.397
 31
0.0
  0
LINE
  8
0
 62
     0
 10
35.669
 20
122.397
 30
0.0
 11
36.4698
 21
122.397
 31
0.0
  0
LINE
  8
0
 62
     0
 10
36.4698
 20
122.397
 30
0.0
 11
36.4698
 21
125.496
 31
0.0
  0
LINE
  8
0
 62
     0
 10
36.4698
 20
125.496
 30
0.0
 11
35.669
 21
125.496
 31
0.0
  0
LINE
  8
0
 62
     0
 10
35.669
 20
125.496
 30
0.0
 11
35.669
 21
126.497
 31
0.0
  0
LINE
  8
0
 62
     0
 10
35.669
 20
126.497
 30
0.0
 11
21.6697
 21
126.497
 31
0.0
  0
LINE
  8
0
 62
     0
 10
2.61965
 20
126.497
 30
0.0
 11
2.61965
 21
125.496
 31
0.0
  0
LINE
  8
0
 62
     0
 10
2.61965
 20
125.496
 30
0.0
 11
1.81901
 21
125.496
 31
0.0
  0
LINE
  8
0
 62
     0
 10
1.81901
 20
125.496
 30
0.0
 11
1.81901
 21
122.397
 31
0.0
  0
LINE
  8
0
 62
     0
 10
1.81901
 20
122.397
 30
0.0
 11
2.61965
 21
122.397
 31
0.0
  0
LINE
  8
0
 62
     0
 10
2.61965
 20
122.397
 30
0.0
 11
2.61965
 21
116.597
 31
0.0
  0
LINE
  8
0
 62
     0
 10
2.61965
 20
116.597
 30
0.0
 11
1.81901
 21
116.597
 31
0.0
  0
LINE
  8
0
 62
     0
 10
1.81901
 20
116.597
 30
0.0
 11
1.81901
 21
113.497
 31
0.0
  0
LINE
  8
0
 62
     0
 10
1.81901
 20
113.497
 30
0.0
 11
2.61965
 21
113.497
 31
0.0
  0
LINE
  8
0
 62
     0
 10
2.61965
 20
113.497
 30
0.0
 11
2.61965
 21
112.498
 31
0.0
  0
LINE
  8
0
 62
     0
 10
2.61965
 20
112.498
 30
0.0
 11
16.6192
 21
112.498
 31
0.0
  0
LINE
  8
0
 62
     0
 10
16.6192
 20
112.498
 30
0.0
 11
16.6192
 21
113.497
 31
0.0
  0
LINE
  8
0
 62
     0
 10
16.6192
 20
113.497
 30
0.0
 11
17.4198
 21
113.497
 31
0.0
  0
LINE
  8
0
 62
     0
 10
17.4198
 20
113.497
 30
0.0
 11
17.4198
 21
116.597
 31
0.0
  0
LINE
  8
0
 62
     0
 10
17.4198
 20
116.597
 30
0.0
 11
16.6192
 21
116.597
 31
0.0
  0
LINE
  8
0
 62
     0
 10
16.6192
 20
116.597
 30
0.0
 11
16.6192
 21
122.397
 31
0.0
  0
LINE
  8
0
 62
     0
 10
16.6192
 20
122.397
 30
0.0
 11
17.4198
 21
122.397
 31
0.0
  0
LINE
  8
0
 62
     0
 10
17.4198
 20
122.397
 30
0.0
 11
17.4198
 21
125.496
 31
0.0
  0
LINE
  8
0
 62
     0
 10
17.4198
 20
125.496
 30
0.0
 11
16.6192
 21
125.496
 31
0.0
  0
LINE
  8
0
 62
     0
 10
16.6192
 20
125.496
 30
0.0
 11
16.6192
 21
126.497
 31
0.0
  0
LINE
  8
0
 62
     0
 10
16.6192
 20
126.497
 30
0.0
 11
2.61965
 21
126.497
 31
0.0
  0
ENDSEC
  0
EOF
